<svg xmlns="http://www.w3.org/2000/svg" version="1.1" width="2000px" height="634px" style="shape-rendering:geometricPrecision; text-rendering:geometricPrecision; image-rendering:optimizeQuality; fill-rule:evenodd; clip-rule:evenodd" xmlns:xlink="http://www.w3.org/1999/xlink">
    <g><path style="opacity:0.988" fill="#199bc7" d="M 380.5,173.5 C 380.5,205.5 380.5,237.5 380.5,269.5C 349.167,269.5 317.833,269.5 286.5,269.5C 286.5,268.833 286.167,268.5 285.5,268.5C 285.5,237.167 285.5,205.833 285.5,174.5C 253.833,174.5 222.167,174.5 190.5,174.5C 190.5,142.833 190.5,111.167 190.5,79.5C 222.5,79.5 254.5,79.5 286.5,79.5C 286.5,110.833 286.5,142.167 286.5,173.5C 317.833,173.5 349.167,173.5 380.5,173.5 Z"/></g>
    <g><path style="opacity:1" fill="#4ec5de" d="M 475.5,173.5 C 475.5,205.5 475.5,237.5 475.5,269.5C 443.833,269.5 412.167,269.5 380.5,269.5C 380.5,237.5 380.5,205.5 380.5,173.5C 380.5,142.167 380.5,110.833 380.5,79.5C 412.167,79.5 443.833,79.5 475.5,79.5C 475.5,110.833 475.5,142.167 475.5,173.5 Z"/></g>
    <g><path style="opacity:0.987" fill="#199cc8" d="M 475.5,173.5 C 507.167,173.5 538.833,173.5 570.5,173.5C 570.5,205.5 570.5,237.5 570.5,269.5C 538.833,269.5 507.167,269.5 475.5,269.5C 475.5,237.5 475.5,205.5 475.5,173.5 Z"/></g>
    <g><path style="opacity:0.97" fill="#221f1f" d="M 1411.5,207.5 C 1421.83,207.5 1432.17,207.5 1442.5,207.5C 1442.33,250.168 1442.5,292.835 1443,335.5C 1462.72,313.239 1482.55,291.072 1502.5,269C 1514.5,268.333 1526.5,268.333 1538.5,269C 1521.11,288.718 1504.11,308.718 1487.5,329C 1505.57,360.481 1523.91,391.815 1542.5,423C 1530.17,423.667 1517.83,423.667 1505.5,423C 1492.29,400.085 1478.96,377.251 1465.5,354.5C 1457.54,362.415 1450.04,370.748 1443,379.5C 1442.5,394.163 1442.33,408.83 1442.5,423.5C 1432.17,423.5 1421.83,423.5 1411.5,423.5C 1411.5,351.5 1411.5,279.5 1411.5,207.5 Z"/></g>
    <g><path style="opacity:0.98" fill="#221f1f" d="M 839.5,219.5 C 865.502,219.333 891.502,219.5 917.5,220C 961.805,222.305 984.471,245.638 985.5,290C 985.99,312.999 977.99,332.333 961.5,348C 952.228,354.801 941.895,359.134 930.5,361C 910.536,362.411 890.536,362.911 870.5,362.5C 870.5,382.833 870.5,403.167 870.5,423.5C 860.167,423.5 849.833,423.5 839.5,423.5C 839.5,355.5 839.5,287.5 839.5,219.5 Z M 870.5,251.5 C 886.503,251.333 902.503,251.5 918.5,252C 941.751,254.415 953.751,267.248 954.5,290.5C 954.535,312.959 943.535,326.126 921.5,330C 904.503,330.5 887.503,330.667 870.5,330.5C 870.5,304.167 870.5,277.833 870.5,251.5 Z"/></g>
    <g><path style="opacity:0.977" fill="#221f1f" d="M 1688.5,232.5 C 1698.5,232.5 1708.5,232.5 1718.5,232.5C 1718.5,246.5 1718.5,260.5 1718.5,274.5C 1732.17,274.5 1745.83,274.5 1759.5,274.5C 1759.5,283.167 1759.5,291.833 1759.5,300.5C 1745.83,300.5 1732.17,300.5 1718.5,300.5C 1718.33,325.169 1718.5,349.836 1719,374.5C 1719.06,391.55 1727.23,397.384 1743.5,392C 1747.17,390.317 1750.83,388.984 1754.5,388C 1757.26,396.114 1759.93,404.28 1762.5,412.5C 1747.97,424.047 1731.64,427.547 1713.5,423C 1698.95,417.09 1690.78,406.257 1689,390.5C 1688.5,360.502 1688.33,330.502 1688.5,300.5C 1681.83,300.5 1675.17,300.5 1668.5,300.5C 1668.5,291.833 1668.5,283.167 1668.5,274.5C 1675.17,274.5 1681.83,274.5 1688.5,274.5C 1688.5,260.5 1688.5,246.5 1688.5,232.5 Z"/></g>
    <g><path style="opacity:0.965" fill="#221f1f" d="M 733.5,267.5 C 778.352,264.853 803.185,285.853 808,330.5C 808.5,340.161 808.666,349.828 808.5,359.5C 773.498,359.333 738.498,359.5 703.5,360C 713.171,391.504 733.838,402.504 765.5,393C 772.981,389.507 779.481,384.674 785,378.5C 791.066,384.73 796.566,391.396 801.5,398.5C 789.567,412.97 774.234,421.47 755.5,424C 711.243,428.051 684.076,408.551 674,365.5C 669.694,342.305 673.028,320.305 684,299.5C 695.937,281.624 712.437,270.957 733.5,267.5 Z M 734.5,295.5 C 762.107,292.792 777.774,305.125 781.5,332.5C 755.509,333.5 729.509,333.833 703.5,333.5C 705.867,314.15 716.201,301.483 734.5,295.5 Z"/></g>
    <g><path style="opacity:0.971" fill="#221f1f" d="M 1054.5,267.5 C 1062.84,267.334 1071.17,267.5 1079.5,268C 1105.21,271.378 1120.04,285.878 1124,311.5C 1124.5,348.832 1124.67,386.165 1124.5,423.5C 1114.5,423.5 1104.5,423.5 1094.5,423.5C 1094.67,417.824 1094.5,412.157 1094,406.5C 1087.23,415.143 1078.4,420.643 1067.5,423C 1048.76,427.773 1031.42,424.773 1015.5,414C 1001.08,399.152 996.579,381.652 1002,361.5C 1008.17,343.675 1020.67,333.509 1039.5,331C 1057.8,329.649 1076.14,329.149 1094.5,329.5C 1094.98,306.984 1083.98,295.65 1061.5,295.5C 1046.9,296.089 1033.9,300.922 1022.5,310C 1021.36,310.749 1020.36,310.583 1019.5,309.5C 1015.75,302.991 1012.25,296.324 1009,289.5C 1008.33,288.5 1008.33,287.5 1009,286.5C 1022.58,276.146 1037.75,269.813 1054.5,267.5 Z M 1047.5,355.5 C 1063.17,355.5 1078.83,355.5 1094.5,355.5C 1095.48,382.022 1082.65,396.022 1056,397.5C 1036.37,397.546 1027.71,387.879 1030,368.5C 1031.41,363.427 1034.57,359.927 1039.5,358C 1042.31,357.218 1044.98,356.384 1047.5,355.5 Z"/></g>
    <g><path style="opacity:0.968" fill="#221f1f" d="M 1232.5,267.5 C 1235.5,267.5 1238.5,267.5 1241.5,267.5C 1241.5,278.5 1241.5,289.5 1241.5,300.5C 1213.83,300.325 1198,313.992 1194,341.5C 1193.5,368.831 1193.33,396.165 1193.5,423.5C 1183.17,423.5 1172.83,423.5 1162.5,423.5C 1162.5,371.833 1162.5,320.167 1162.5,268.5C 1172.83,268.5 1183.17,268.5 1193.5,268.5C 1193.33,277.839 1193.5,287.173 1194,296.5C 1201.93,280.138 1214.76,270.472 1232.5,267.5 Z"/></g>
    <g><path style="opacity:0.965" fill="#221f1f" d="M 1302.5,267.5 C 1316.15,266.455 1329.49,267.955 1342.5,272C 1361.61,281.475 1371.44,296.975 1372,318.5C 1372.5,353.498 1372.67,388.498 1372.5,423.5C 1362.17,423.5 1351.83,423.5 1341.5,423.5C 1341.67,418.156 1341.5,412.823 1341,407.5C 1328.83,419.841 1313.99,425.841 1296.5,425.5C 1258.5,421.324 1242.67,400.324 1249,362.5C 1254.82,344.157 1267.32,333.657 1286.5,331C 1304.8,329.649 1323.14,329.149 1341.5,329.5C 1342.19,307.518 1331.52,296.184 1309.5,295.5C 1294.27,296.285 1280.6,301.285 1268.5,310.5C 1267.11,309.395 1265.94,308.061 1265,306.5C 1261.37,299.927 1258.37,293.261 1256,286.5C 1270.02,276.332 1285.52,269.999 1302.5,267.5 Z M 1294.5,355.5 C 1310.17,355.5 1325.83,355.5 1341.5,355.5C 1343.19,382.645 1330.36,396.645 1303,397.5C 1281.36,396.211 1273.36,385.211 1279,364.5C 1283.29,359.779 1288.46,356.779 1294.5,355.5 Z"/></g>
    <g><path style="opacity:0.967" fill="#221f1f" d="M 1591.5,267.5 C 1611.42,265.384 1630.09,269.217 1647.5,279C 1649.59,280.041 1651.25,281.541 1652.5,283.5C 1649.14,292.079 1645.31,300.413 1641,308.5C 1628.94,300.258 1615.61,295.592 1601,294.5C 1592.14,294.094 1585.8,297.761 1582,305.5C 1580.57,311.816 1582.41,316.983 1587.5,321C 1602.72,327.52 1618.05,333.853 1633.5,340C 1651.39,351.315 1658.23,367.482 1654,388.5C 1648.23,409.595 1634.4,421.428 1612.5,424C 1586.54,427.184 1563.87,420.184 1544.5,403C 1548.23,394.612 1552.23,386.445 1556.5,378.5C 1572.67,393.502 1591.67,399.335 1613.5,396C 1622.32,392.867 1625.82,386.7 1624,377.5C 1620.75,370.265 1615.25,365.432 1607.5,363C 1595.03,359.51 1583.03,354.843 1571.5,349C 1554.76,337.47 1548.59,321.637 1553,301.5C 1556.09,286.402 1564.93,276.236 1579.5,271C 1583.62,269.808 1587.62,268.641 1591.5,267.5 Z"/></g>
    <g><path style="opacity:0.967" fill="#221f1f" d="M 1817.5,267.5 C 1837.42,265.384 1856.09,269.217 1873.5,279C 1875.59,280.041 1877.25,281.541 1878.5,283.5C 1875.14,292.079 1871.31,300.413 1867,308.5C 1854.95,300.26 1841.61,295.593 1827,294.5C 1818.14,294.094 1811.8,297.761 1808,305.5C 1806.57,311.816 1808.41,316.983 1813.5,321C 1828.72,327.52 1844.05,333.853 1859.5,340C 1877.39,351.315 1884.23,367.482 1880,388.5C 1874.24,409.586 1860.4,421.419 1838.5,424C 1812.54,427.184 1789.87,420.184 1770.5,403C 1773.86,394.446 1777.86,386.279 1782.5,378.5C 1798.67,393.502 1817.67,399.335 1839.5,396C 1848.32,392.867 1851.82,386.7 1850,377.5C 1846.75,370.265 1841.25,365.432 1833.5,363C 1821.03,359.51 1809.03,354.843 1797.5,349C 1784.07,340.474 1777.4,328.141 1777.5,312C 1779.11,286.563 1792.44,271.73 1817.5,267.5 Z"/></g>
    <g><path style="opacity:0.99" fill="#405051" d="M 285.5,268.5 C 286.167,268.5 286.5,268.833 286.5,269.5C 286.5,300.833 286.5,332.167 286.5,363.5C 285.502,394.996 285.168,426.662 285.5,458.5C 254.167,458.5 222.833,458.5 191.5,458.5C 191.5,490.167 191.5,521.833 191.5,553.5C 159.833,553.5 128.167,553.5 96.5,553.5C 96.5,521.5 96.5,489.5 96.5,457.5C 127.833,457.5 159.167,457.5 190.5,457.5C 190.5,394.5 190.5,331.5 190.5,268.5C 222.167,268.5 253.833,268.5 285.5,268.5 Z"/></g>
    <g><path style="opacity:1" fill="#22363b" d="M 286.5,269.5 C 317.833,269.5 349.167,269.5 380.5,269.5C 380.5,300.833 380.5,332.167 380.5,363.5C 349.167,363.5 317.833,363.5 286.5,363.5C 286.5,332.167 286.5,300.833 286.5,269.5 Z"/></g>
    <g><path style="opacity:1" fill="#199cc8" d="M 380.5,269.5 C 412.167,269.5 443.833,269.5 475.5,269.5C 475.5,300.833 475.5,332.167 475.5,363.5C 443.833,363.5 412.167,363.5 380.5,363.5C 380.5,332.167 380.5,300.833 380.5,269.5 Z"/></g>
    <g><path style="opacity:1" fill="#0f1818" d="M 286.5,363.5 C 317.833,363.5 349.167,363.5 380.5,363.5C 380.5,395.167 380.5,426.833 380.5,458.5C 348.833,458.5 317.167,458.5 285.5,458.5C 285.168,426.662 285.502,394.996 286.5,363.5 Z"/></g>
    <g><path style="opacity:1" fill="#e15c26" d="M 380.5,363.5 C 412.167,363.5 443.833,363.5 475.5,363.5C 475.5,395.167 475.5,426.833 475.5,458.5C 444.167,458.5 412.833,458.5 381.5,458.5C 381.167,458.5 380.833,458.5 380.5,458.5C 380.5,426.833 380.5,395.167 380.5,363.5 Z"/></g>
    <g><path style="opacity:0.984" fill="#a26dac" d="M 285.5,458.5 C 317.167,458.5 348.833,458.5 380.5,458.5C 380.833,458.5 381.167,458.5 381.5,458.5C 381.5,490.167 381.5,521.833 381.5,553.5C 349.5,553.5 317.5,553.5 285.5,553.5C 285.5,521.833 285.5,490.167 285.5,458.5 Z"/></g>
</svg>