<svg class="svg-icon" style="width: 1em; height: 1em;vertical-align: middle;fill: currentColor;overflow: hidden;" viewBox="0 0 1024 1024" version="1.1" xmlns="http://www.w3.org/2000/svg"><path d="M509.57653367 31.675733a477.866667 477.866667 0 1 0 0 955.733334 477.866667 477.866667 0 0 0 0-955.733334m0 51.2a427.144533 427.144533 0 0 1 426.666666 426.666667 427.144533 427.144533 0 0 1-426.666666 426.666667 427.144533 427.144533 0 0 1-426.666667-426.666667 427.144533 427.144533 0 0 1 426.666667-426.666667" fill="#d73e3e" /><path d="M483.97653367 241.2544a25.6 25.6 0 0 1 51.2 0v373.418667a25.6 25.6 0 0 1-51.2 0v-373.418667z" fill="#d73e3e" /><path d="M546.91839967 750.045867a37.341867 37.341867 0 1 1-74.683733 0 37.341867 37.341867 0 0 1 74.683733 0" fill="#d73e3e" /></svg>
