<svg xmlns="http://www.w3.org/2000/svg" viewBox="0 0 314.1 68" class="FrejaEidButton_icon_mdLrU">
    <g fill="#3E3A94">
        <path d="M272.1 30.9c1.8 2.3 2.5 5.3 2.3 8.3h-17.2c0 2.1.9 3.9 2.5 5.3 1.4 1.4 3.4 2.1 5.3 2.1 1.1 0 2.5-.2 3.7-.7 1.1-.5 2.1-1.1 3-2.1l1.6 1.4c-.9 1.1-2.3 1.8-3.7 2.5-1.4.7-3 .9-4.6.9-1.8 0-3.7-.5-5.3-1.4-1.6-.9-2.8-2.1-3.7-3.7-1.8-3.4-1.8-7.3 0-10.8.9-1.6 2.1-2.8 3.7-3.7 1.6-.9 3.4-1.4 5.3-1.4 2.5-.1 5.3 1 7.1 3.3zm0 6.2c0-1.8-.9-3.7-2.1-5.1-1.4-1.4-3.2-2.1-5.1-1.8-1.8 0-3.9.7-5.3 1.8-1.4 1.4-2.3 3.2-2.5 5.1h15zM280.4 21h2.8v27.6h-2.8V21zM307 22.6c6.7 3.7 9 11.9 5.5 18.6-1.1 2.3-3.2 4.1-5.5 5.5-2.3 1.1-4.8 1.8-7.3 1.8h-11V21h11c2.5-.2 5 .5 7.3 1.6zm-1.3 21.9c5.5-3 7.3-10.1 4.1-15.4-.9-1.8-2.5-3.2-4.1-4.1-1.8-.9-3.7-1.6-5.7-1.6h-8.3v22.7h8.5c1.8 0 3.6-.5 5.5-1.6zM96 48.4V20.1h19.5v5.3h-13.7v6.7h10.3v5.2h-10.3v11.1zM142.4 48.4l-5.1-8.3h-6.9v8.3h-5.7V20.1h11.5c7.3 0 11.5 3.7 11.5 9.9.2 3.9-1.8 7.3-5.3 9l6.4 9.4h-6.4zm-6-13.4c4.1 0 6-1.6 6-4.8s-2.1-4.8-6-4.8h-6V35h6zM157.3 48.4V20.1h20.5v5.3h-14.7v6.2h12.4v5.3h-12.4v6.4h15.1v5.1zM195 48.6c-3.2.2-6.2-1.1-8.3-3.7l-.2-.2 2.8-4.4.5.5c1.4 1.4 3.2 2.3 5.3 2.3 2.8 0 3.4-2.1 3.4-3.7v-14H190v-5.3h14.2v19.3c.5 4.6-3 8.7-7.6 9.2H195zM232.9 48.4l-2.5-6.2h-13.1l-2.5 6.2h-6l12.4-28.2h5.5l12.4 28.2h-6.2zm-4.8-11.3L223.7 27l-4.4 10.1h8.8zM43.3 37.9H28.7c-3.4 0-6.2-2.8-6.3-6.2V16.5c0-2.2 1.8-3.9 3.9-3.9 2.2 0 3.9 1.8 3.9 3.9v12c0 .9.7 1.6 1.6 1.6h11.5c5.8 0 10.5-4.7 10.5-10.5 0-6.5-5.3-11.8-11.8-11.8h-3.1C36.7 7.8 35 6 35 3.9 35 1.7 36.8 0 38.9 0H42c10.8 0 19.6 8.8 19.6 19.6 0 10.1-8.2 18.3-18.3 18.3z"></path>
        <circle cx="26.3" cy="3.9" r="3.9"></circle>
        <circle cx="3.7" cy="26" r="3.7"></circle>
        <circle cx="3.7" cy="42.7" r="3.6"></circle>
        <circle cx="12.6" cy="11.9" r="3.9"></circle>
        <circle cx="12.2" cy="56.9" r="3.5"></circle>
        <circle cx="58.6" cy="56.9" r="2.7"></circle>
        <circle cx="26.5" cy="64.8" r="3.2"></circle>
        <circle cx="43.8" cy="64.6" r="3"></circle>
    </g>
</svg>