<svg xmlns="http://www.w3.org/2000/svg" width="2000" height="634" shape-rendering="geometricPrecision" text-rendering="geometricPrecision" image-rendering="optimizeQuality" fill-rule="evenodd" clip-rule="evenodd"><path fill="#199bc7" d="M380.5 173.5v96h-94c0-.667-.333-1-1-1v-94h-95v-95h96v94h94z" opacity=".988"/><path fill="#4ec5de" d="M475.5 173.5v96h-95v-190h95v94z"/><path fill="#199cc8" d="M475.5 173.5h95v96h-95v-96z" opacity=".987"/><path fill="#221f1f" d="M1411.5 207.5h31c-.17 42.668 0 85.335.5 128a8923.732 8923.732 0 0159.5-66.5c12-.667 24-.667 36 0a2154.232 2154.232 0 00-51 60 6608.258 6608.258 0 0055 94 342.33 342.33 0 01-37 0 7024.538 7024.538 0 00-40-68.5 303.415 303.415 0 00-22.5 25c-.5 14.663-.67 29.33-.5 44h-31v-216z" opacity=".97"/><path fill="#221f1f" d="M839.5 219.5c26.002-.167 52.002 0 78 .5 44.305 2.305 66.971 25.638 68 70 .49 22.999-7.51 42.333-24 58-9.272 6.801-19.605 11.134-31 13a658.926 658.926 0 01-60 1.5v61h-31v-204zm31 32c16.003-.167 32.003 0 48 .5 23.251 2.415 35.251 15.248 36 38.5.035 22.459-10.965 35.626-33 39.5-16.997.5-33.997.667-51 .5v-79z" opacity=".98"/><path fill="#221f1f" d="M1688.5 232.5h30v42h41v26h-41c-.17 24.669 0 49.336.5 74 .06 17.05 8.23 22.884 24.5 17.5 3.67-1.683 7.33-3.016 11-4 2.76 8.114 5.43 16.28 8 24.5-14.53 11.547-30.86 15.047-49 10.5-14.55-5.91-22.72-16.743-24.5-32.5-.5-29.998-.67-59.998-.5-90h-20v-26h20v-42z" opacity=".977"/><path fill="#221f1f" d="M733.5 267.5c44.852-2.647 69.685 18.353 74.5 63 .5 9.661.666 19.328.5 29a5509.9 5509.9 0 00-105 .5c9.671 31.504 30.338 42.504 62 33 7.481-3.493 13.981-8.326 19.5-14.5a157.036 157.036 0 0116.5 20c-11.933 14.47-27.266 22.97-46 25.5-44.257 4.051-71.424-15.449-81.5-58.5-4.306-23.195-.972-45.195 10-66 11.937-17.876 28.437-28.543 49.5-32zm1 28c27.607-2.708 43.274 9.625 47 37-25.991 1-51.991 1.333-78 1 2.367-19.35 12.701-32.017 31-38z" opacity=".965"/><path fill="#221f1f" d="M1054.5 267.5c8.34-.166 16.67 0 25 .5 25.71 3.378 40.54 17.878 44.5 43.5.5 37.332.67 74.665.5 112h-30c.17-5.676 0-11.343-.5-17-6.77 8.643-15.6 14.143-26.5 16.5-18.74 4.773-36.08 1.773-52-9-14.42-14.848-18.921-32.348-13.5-52.5 6.17-17.825 18.67-27.991 37.5-30.5a592.851 592.851 0 0155-1.5c.48-22.516-10.52-33.85-33-34-14.6.589-27.6 5.422-39 14.5-1.14.749-2.14.583-3-.5a288.816 288.816 0 01-10.5-20c-.67-1-.67-2 0-3 13.58-10.354 28.75-16.687 45.5-19zm-7 88h47c.98 26.522-11.85 40.522-38.5 42-19.63.046-28.29-9.621-26-29 1.41-5.073 4.57-8.573 9.5-10.5 2.81-.782 5.48-1.616 8-2.5z" opacity=".971"/><path fill="#221f1f" d="M1232.5 267.5h9v33c-27.67-.175-43.5 13.492-47.5 41-.5 27.331-.67 54.665-.5 82h-31v-155h31c-.17 9.339 0 18.673.5 28 7.93-16.362 20.76-26.028 38.5-29z" opacity=".968"/><path fill="#221f1f" d="M1302.5 267.5c13.65-1.045 26.99.455 40 4.5 19.11 9.475 28.94 24.975 29.5 46.5.5 34.998.67 69.998.5 105h-31c.17-5.344 0-10.677-.5-16-12.17 12.341-27.01 18.341-44.5 18-38-4.176-53.83-25.176-47.5-63 5.82-18.343 18.32-28.843 37.5-31.5a592.851 592.851 0 0155-1.5c.69-21.982-9.98-33.316-32-34-15.23.785-28.9 5.785-41 15a14.857 14.857 0 01-3.5-4c-3.63-6.573-6.63-13.239-9-20 14.02-10.168 29.52-16.501 46.5-19zm-8 88h47c1.69 27.145-11.14 41.145-38.5 42-21.64-1.289-29.64-12.289-24-33 4.29-4.721 9.46-7.721 15.5-9z" opacity=".965"/><path fill="#221f1f" d="M1591.5 267.5c19.92-2.116 38.59 1.717 56 11.5a12.355 12.355 0 015 4.5 236.396 236.396 0 01-11.5 25c-12.06-8.242-25.39-12.908-40-14-8.86-.406-15.2 3.261-19 11-1.43 6.316.41 11.483 5.5 15.5 15.22 6.52 30.55 12.853 46 19 17.89 11.315 24.73 27.482 20.5 48.5-5.77 21.095-19.6 32.928-41.5 35.5-25.96 3.184-48.63-3.816-68-21a365.048 365.048 0 0112-24.5c16.17 15.002 35.17 20.835 57 17.5 8.82-3.133 12.32-9.3 10.5-18.5-3.25-7.235-8.75-12.068-16.5-14.5a196.762 196.762 0 01-36-14c-16.74-11.53-22.91-27.363-18.5-47.5 3.09-15.098 11.93-25.264 26.5-30.5 4.12-1.192 8.12-2.359 12-3.5zm226 0c19.92-2.116 38.59 1.717 56 11.5a12.355 12.355 0 015 4.5 236.396 236.396 0 01-11.5 25c-12.05-8.24-25.39-12.907-40-14-8.86-.406-15.2 3.261-19 11-1.43 6.316.41 11.483 5.5 15.5 15.22 6.52 30.55 12.853 46 19 17.89 11.315 24.73 27.482 20.5 48.5-5.76 21.086-19.6 32.919-41.5 35.5-25.96 3.184-48.63-3.816-68-21a166.73 166.73 0 0112-24.5c16.17 15.002 35.17 20.835 57 17.5 8.82-3.133 12.32-9.3 10.5-18.5-3.25-7.235-8.75-12.068-16.5-14.5a196.762 196.762 0 01-36-14c-13.43-8.526-20.1-20.859-20-37 1.61-25.437 14.94-40.27 40-44.5z" opacity=".967"/><path fill="#405051" d="M285.5 268.5c.667 0 1 .333 1 1v94a2256.409 2256.409 0 00-1 95h-94v95h-95v-96h94v-189h95z" opacity=".99"/><path fill="#22363b" d="M286.5 269.5h94v94h-94v-94z"/><path fill="#199cc8" d="M380.5 269.5h95v94h-95v-94z"/><path fill="#0f1818" d="M286.5 363.5h94v95h-95c-.332-31.838.002-63.504 1-95z"/><path fill="#e15c26" d="M380.5 363.5h95v95h-95v-95z"/><path fill="#a26dac" d="M285.5 458.5h96v95h-96v-95z" opacity=".984"/></svg>