<svg viewBox="0 0 186.2 24.9" xmlns="http://www.w3.org/2000/svg"><path d="M.1 17.1h4.4c.3 2.5 1.3 4.6 5.5 4.6 2.7 0 4.7-1.5 4.7-3.8s-1.1-3.1-5.2-3.8C3.6 13.3.7 11.5.7 6.9c0-4 3.5-7.1 8.6-7.1 5.3 0 8.5 2.4 9 7.2h-4.2c-.5-2.6-1.9-3.7-4.8-3.7C6.5 3.3 5 4.6 5 6.5c0 2 .8 3 5.1 3.6 5.8.8 8.9 2.5 8.9 7.4 0 4.3-3.6 7.6-9.1 7.6-6.6 0-9.4-3.3-9.8-8zM27.9.1h6.2l6.5 16.8L47 .1h6.1v24.7h-4.6V6.1l-7.4 18.7h-1.5L32 6.1v18.7h-4.1zm95 3.6H116V.1h18.5v3.6h-6.9v21.1h-4.7zm12.5 8h9.3v3.6h-9.3zM83.6 24.8L75.4.1h-6.1L61 24.8h4.4l6.7-21 3.4 10.7h-3l-1.1 3.6h5.2l2.2 6.7zM151 .1h4.7v24.7H151zm22.2 0h-7.5v24.7h4.6V3.7h2.7c5.8 0 8.3 3.2 8.3 8.5v.3c0 4.6-1.9 7.6-5.8 8.4v3.8c7.2-.8 10.7-5.6 10.7-12.2v-.3C186.1 5 181.9.1 173.2.1m-69.6 14c3.1-.8 5.5-2.8 5.5-6.6v-.2c0-5-3.8-7.3-9.3-7.3h-8.3v24.7h4.6V3.6h3.7c3 0 4.7 1 4.7 3.8v.1c0 2.6-1.6 3.9-4.7 3.9H99v3.3l6.5 10h5l-6.9-10.6z" fill="#00afaa"/></svg>