<svg viewBox="0 0 99 25" fill="none" xmlns="http://www.w3.org/2000/svg" class="SmartIdButton_icon_uZ2V3">
<g clip-path="url(#clip0)" fill="#00AFAA"><path d="M15.723 7.835a.888.888 0 01-.897.902.888.888 0 01-.897-.902c0-.507.393-.902.897-.902.505 0 .897.395.897.902z"></path>
<path d="M19.479 22.717a.787.787 0 01-.589-.282.754.754 0 01.14-1.014 11.115 11.115 0 004.513-8.935C23.57 6.398 18.61 1.409 12.5 1.409c-.533 0-1.065.028-1.598.113v15.67c0 .395-.308.705-.728.705-.393 0-.729-.31-.729-.704V.902c0-.338.252-.648.589-.705A12.01 12.01 0 0112.5-.056c6.895 0 12.5 5.608 12.5 12.514 0 3.974-1.906 7.75-5.1 10.09-.141.14-.281.169-.421.169z"></path>
<path d="M12.5 25.028C5.605 25.028 0 19.391 0 12.514c0-3.974 1.906-7.75 5.1-10.09a.71.71 0 011.01.14.754.754 0 01-.14 1.015C3.11 5.637 1.43 8.991 1.43 12.514c0 6.116 4.96 11.077 11.07 11.077.533 0 1.065-.028 1.598-.113V13.19c0-.394.308-.704.728-.704.393 0 .729.31.729.704v10.88a.723.723 0 01-.589.704 12.01 12.01 0 01-2.466.254z"></path>
</g>
<g clip-path="url(#clip1)" fill="#00AFAA"><path d="M32.036 15.18h1.583c.108.904.468 1.663 1.98 1.663.97 0 1.69-.542 1.69-1.373 0-.832-.395-1.12-1.87-1.374-2.124-.289-3.167-.94-3.167-2.602 0-1.446 1.26-2.566 3.094-2.566 1.908 0 3.059.867 3.239 2.602h-1.511c-.18-.94-.684-1.337-1.728-1.337-1.007 0-1.547.47-1.547 1.156 0 .723.288 1.085 1.835 1.302 2.087.289 3.203.903 3.203 2.674 0 1.555-1.296 2.747-3.275 2.747-2.375 0-3.382-1.192-3.526-2.891zM42.04 9.036h2.23l2.339 6.072 2.303-6.072h2.195v8.928h-1.655v-6.76l-2.663 6.76h-.54l-2.735-6.76v6.76H42.04V9.036zM76.223 10.337H73.74v-1.3h6.657v1.3h-2.483v7.627h-1.691v-7.627zM84.067 13.229h-3.346v1.301h3.346V13.23zM62.082 17.964L59.13 9.036h-2.195l-2.986 8.928h1.583l2.41-7.59 1.224 3.867h-1.08l-.395 1.301h1.87l.793 2.422h1.727zM88.025 9.036h-1.691v8.928h1.691V9.036zM94.322 9.036h-2.698v8.928h1.655v-7.627h.971c2.087 0 2.987 1.157 2.987 3.073v.108c0 1.663-.684 2.747-2.087 3.036v1.374c2.59-.29 3.85-2.024 3.85-4.41v-.108c-.036-2.603-1.547-4.374-4.678-4.374zM69.278 14.096c1.116-.289 1.98-1.012 1.98-2.385v-.072C71.257 9.83 69.89 9 67.91 9h-2.987v8.928h1.655V10.3h1.332c1.08 0 1.691.362 1.691 1.374v.036c0 .94-.576 1.41-1.691 1.41h-.288v1.192l2.339 3.615h1.799l-2.483-3.832z"></path>
</g>
<defs><clipPath id="clip0"><path fill="#fff" d="M0 0h25v25H0z"></path></clipPath>
<clipPath id="clip1"><path fill="#fff" transform="translate(32 9)" d="M0 0h67v9H0z"></path></clipPath></defs>
</svg>