<svg width="1345" height="394" viewBox="0 0 1345 394" fill="none" xmlns="http://www.w3.org/2000/svg">
    <g clip-path="url(#clip0_1201_1321)">
        <path d="M196.92 393.91C305.68 393.91 393.84 305.74 393.84 196.95C393.84 88.16 305.68 0 196.92 0C88.16 0 0 88.17 0 196.96C0 305.75 88.17 393.92 196.92 393.92V393.91Z" fill="#076CE3"/>
        <path d="M209.58 316.91C275.29 315.48 326.58 263.98 328.1 205.81C329.36 157.74 296.43 111.75 246.4 94.6699" stroke="white" stroke-width="13.39" stroke-miterlimit="10" stroke-linecap="round"/>
        <path d="M208.07 213.54C212.82 213.54 216.67 209.68 216.67 204.94C216.67 200.2 212.82 196.34 208.07 196.34C203.32 196.34 199.47 200.18 199.47 204.94C199.47 209.7 203.32 213.54 208.07 213.54Z" fill="white" stroke="white" stroke-width="1.91" stroke-miterlimit="10" stroke-linecap="round"/>
        <path d="M102.33 94.73C112.39 110.12 154.56 163.3 154.56 163.3C154.56 163.3 201.97 105.3 207.72 94.73" stroke="white" stroke-width="13.39" stroke-miterlimit="10" stroke-linecap="round"/>
        <path d="M102.33 269.98V94.73" stroke="white" stroke-width="13.39" stroke-linecap="round" stroke-linejoin="round"/>
        <path d="M208.99 177.28V94.73" stroke="white" stroke-width="13.39" stroke-linecap="round" stroke-linejoin="round"/>
        <path d="M207.72 316.97V234.42" stroke="white" stroke-width="13.39" stroke-linecap="round" stroke-linejoin="round"/>
        <path d="M574.36 234.4L541.94 192.83V275.36H516.29V140.13H532.6L578.34 202.58L619.9 140.13H635.61V275.36H609.56V197.4L584.3 233.01L574.36 234.41V234.4ZM708.92 277.75C693.67 277.75 681.74 273.18 673.12 264.02C664.63 254.75 660.39 242.35 660.39 226.83C660.39 211.31 664.83 199.2 673.71 190.04C682.72 180.9 694.99 176.33 710.5 176.33C726.01 176.33 738.94 181.09 747.69 190.65C756.57 200.06 761.01 212.45 761.01 227.82C761.01 243.19 756.24 255.41 746.69 264.42C737.14 273.31 724.55 277.75 708.9 277.75H708.92ZM734.38 227.82C734.38 218.68 732.32 211.53 728.22 206.35C724.24 201.05 718.54 198.4 711.12 198.4C703.7 198.4 697.66 200.73 693.42 205.36C689.18 210.01 687.06 217.1 687.06 226.64C687.06 236.18 688.85 243.41 692.43 248.32C696.14 253.21 701.78 255.66 709.33 255.66C716.88 255.66 722.79 253.48 727.43 249.1C732.07 244.59 734.39 237.51 734.39 227.82H734.38ZM808.72 134.96V181.89C812.57 179.77 816.61 178.1 820.85 176.92C825.23 175.73 829.14 175.12 832.58 175.12C846.77 175.12 857.64 180.03 865.19 189.84C872.75 199.65 876.53 211.85 876.53 226.44C876.53 241.03 872.62 253.21 864.8 263.02C857.11 272.83 846.37 277.74 832.58 277.74C828.07 277.74 823.03 276.8 817.47 274.95C811.9 273.1 806.93 270.51 802.55 267.21L796.19 275.36H783.06V137.14L808.71 134.96H808.72ZM825.82 255.66C834.7 255.66 840.93 252.49 844.51 246.12C848.09 239.62 849.88 233.06 849.88 226.44C849.88 218.87 848.29 212.12 845.11 206.15C841.93 200.18 835.5 197.2 825.82 197.2C823.04 197.2 820.12 197.74 817.07 198.79C814.15 199.73 811.37 201.05 808.72 202.77V250.1C811.37 251.69 814.16 253.03 817.07 254.08C820.12 255.15 823.04 255.67 825.82 255.67V255.66ZM910.15 136.15C914.26 136.15 917.71 137.55 920.49 140.32C923.41 143.11 924.87 146.55 924.87 150.67C924.87 154.79 923.41 158.22 920.49 161.01C917.71 163.8 914.26 165.18 910.15 165.18C906.04 165.18 902.79 163.8 900.01 161.01C897.23 158.22 895.83 154.78 895.83 150.67C895.83 146.56 897.22 143.12 900.01 140.32C902.79 137.55 906.17 136.15 910.15 136.15ZM923.08 178.91V275.36H897.23V178.91H923.08ZM975.16 134.97V275.36H949.51V137.14L975.16 134.96V134.97ZM1050.85 277.75C1034.15 277.75 1020.95 273.18 1011.28 264.02C1001.73 254.88 996.96 242.6 996.96 227.23C996.96 211.86 1001.27 199.52 1009.89 190.25C1018.64 180.96 1030.51 176.33 1045.49 176.33C1060.47 176.33 1071.68 181.36 1078.7 191.44C1085.86 201.38 1089.44 213.18 1089.44 226.83V234.78H1024.41C1025.6 241.15 1028.52 246.25 1033.16 250.1C1037.8 253.81 1043.9 255.66 1051.46 255.66C1055.84 255.66 1059.75 255.14 1063.19 254.07C1066.77 252.88 1070.88 251.22 1075.52 249.1L1083.08 267.8C1078.57 271.24 1073.07 273.77 1066.57 275.35C1060.21 276.94 1054.97 277.74 1050.86 277.74L1050.85 277.75ZM1064.97 217.5C1063.64 211 1061.26 206.22 1057.81 203.18C1054.36 199.99 1050.05 198.4 1044.88 198.4C1039.71 198.4 1035.14 200.06 1031.56 203.37C1027.98 206.56 1025.66 211.27 1024.6 217.5H1064.97V217.5ZM1154.25 231.02H1102.35L1100.16 210.73H1152.26L1154.25 231.02V231.02ZM1199.73 140.13V275.36H1174.08V140.13H1199.73ZM1282.43 275.36H1233.11V140.13H1283.23C1304.05 140.13 1319.49 146.42 1329.57 159.02C1339.65 171.62 1344.68 187.59 1344.68 206.94C1344.68 227.9 1339.25 244.53 1328.37 256.87C1317.5 269.2 1302.19 275.36 1282.43 275.36V275.36ZM1283.42 162H1258.76V253.67H1282.03C1292.9 253.67 1301.59 250.09 1308.08 242.94C1314.71 235.77 1318.02 223.78 1318.02 206.93C1318.02 192.88 1315.24 181.88 1309.67 173.93C1304.1 165.98 1295.35 162 1283.42 162V162Z" fill="#076CE3"/>
    </g>
    <defs>
        <clipPath id="clip0_1201_1321">
            <rect width="1344.68" height="393.91" fill="white"/>
        </clipPath>
    </defs>
</svg>
