<svg xmlns="http://www.w3.org/2000/svg" xml:space="preserve" style="fill-rule:evenodd;clip-rule:evenodd;stroke-linejoin:round;stroke-miterlimit:2" viewBox="0 0.69 150 42.63">
    <path d="M133.293 1.094h-13.627v19.322a42.928 42.928 0 0 1 6.919-4.057V8.011h6.708v.013c5.364 0 9.778 4.414 9.778 9.777 0 5.364-4.414 9.778-9.778 9.778v.006h-6.708v-6.037c0-.173-.157-.171-.236-.113a31.898 31.898 0 0 0-6.683 6.25v6.825h13.627c9.165 0 16.708-7.542 16.708-16.708 0-9.165-7.543-16.707-16.708-16.707v-.001Z" style="fill-rule:nonzero"/>
    <path d="m126.585 16.359-6.919 4.057V1.094l6.919 6.917v8.348Z" style="fill:url(#a);fill-rule:nonzero"/>
    <path style="fill:url(#b)" d="M106.335 11.382h6.634v23.101h-6.634z"/>
    <path d="M140.191 13.257a.79.79 0 0 0-.2-.505.935.935 0 0 0-.82-.191 42.369 42.369 0 0 0-32.84 21.922h6.634c7.037-12.392 17.369-17.99 26.691-20.609.416-.138.544-.391.535-.617Z" style="fill:url(#c);fill-rule:nonzero"/>
    <path d="M6.362 11.314v2.906a6.664 6.664 0 0 1 6.362-3.707 6.424 6.424 0 0 1 6.313 3.858 7.38 7.38 0 0 1 7.013-3.858 7.437 7.437 0 0 1 5.611 2.154c1.4 1.5 1.854 3.107 1.854 6.664v15.178h-6.363V20.532c0-3.157-1.152-4.659-3.558-4.659-2.353 0-3.706 1.7-3.706 4.659v13.977h-6.362V20.733c0-3.207-1.2-4.86-3.507-4.86-2.4 0-3.657 1.7-3.657 4.86v13.776H0v-23.2l6.362.005ZM62.4 23.137c0 6.813-5.562 12.174-12.676 12.174-7.313 0-12.573-5.16-12.573-12.375 0-7.313 5.209-12.423 12.674-12.423.138-.005.275-.007.413-.007 6.677 0 12.171 5.494 12.171 12.171 0 .153-.003.307-.009.46Zm-18.837-.2c0 4.008 2.5 6.714 6.212 6.714 3.657 0 6.211-2.756 6.211-6.613 0-4.158-2.4-6.813-6.162-6.813s-6.258 2.704-6.258 6.711l-.003.001ZM72.943 33.4c0 3.507-.7 5.862-2.205 7.414-1.553 1.653-4.129 2.5-7.085 2.5-.351 0-1 0-1.7-.049v-5.81h.947c2.155 0 3.407-1.5 3.407-4.058V11.314h6.635l.001 22.086ZM95.522 26.677l-.121-.033a6.197 6.197 0 0 1-5.309 3.006 6.21 6.21 0 0 1-6.113-5.211h18.135c.05-.45.05-1.1.05-1.251 0-7.464-5.16-12.674-12.524-12.674-7.215 0-12.27 5.111-12.27 12.374 0 7.214 5.256 12.424 12.621 12.424a12.158 12.158 0 0 0 10.4-5.574l-4.869-3.061Zm-5.831-10.8c2.934-.158 5.527 1.996 5.91 4.909H83.979c.602-3.16 2.657-4.913 5.712-4.913v.004Z" style="fill-rule:nonzero"/><path d="M109.652.685c2.177 0 3.969 1.792 3.969 3.969 0 2.177-1.792 3.969-3.969 3.969-2.177 0-3.969-1.792-3.969-3.969v-.001c.002-2.177 1.792-3.967 3.969-3.968Z" style="fill:#ffcb00;fill-rule:nonzero"/>
    <path d="M69.625.685h.001c2.177 0 3.969 1.792 3.969 3.969 0 2.177-1.792 3.969-3.969 3.969-2.177 0-3.969-1.792-3.969-3.969v-.001c.002-2.176 1.792-3.966 3.968-3.968Z" style="fill-rule:nonzero"/>
    <defs>
        <linearGradient id="a" x1="0" y1="0" x2="1" y2="0" gradientUnits="userSpaceOnUse" gradientTransform="rotate(-115 68.169 -30.789) scale(17.51)">
            <stop offset="0" style="stop-color:#bfbfbd;stop-opacity:1"/>
            <stop offset=".01" style="stop-color:#bfbfbd;stop-opacity:1"/>
            <stop offset=".05" style="stop-color:#c7c7c5;stop-opacity:1"/>
            <stop offset=".28" style="stop-color:#efefef;stop-opacity:1"/>
            <stop offset=".39" style="stop-color:#fff;stop-opacity:1"/>
            <stop offset="1" style="stop-color:#fff;stop-opacity:1"/>
        </linearGradient>
        <linearGradient id="b" x1="0" y1="0" x2="1" y2="0" gradientUnits="userSpaceOnUse" gradientTransform="rotate(-130.001 65.663 -11.54) scale(21.96)">
            <stop offset="0" style="stop-color:#df8200;stop-opacity:1"/>
            <stop offset=".39" style="stop-color:#f0a800;stop-opacity:1"/>
            <stop offset=".71" style="stop-color:#ffcb00;stop-opacity:1"/>
            <stop offset="1" style="stop-color:#ffcb00;stop-opacity:1"/>
        </linearGradient>
        <linearGradient id="c" x1="0" y1="0" x2="1" y2="0" gradientUnits="userSpaceOnUse" gradientTransform="translate(106.335 23.516) scale(33.857)">
            <stop offset="0" style="stop-color:#fcc200;stop-opacity:1"/>
            <stop offset="1" style="stop-color:#ffcb00;stop-opacity:1"/>
        </linearGradient>
    </defs>
</svg>