<svg width="1345" height="394" fill="none" xmlns="http://www.w3.org/2000/svg"><g clip-path="url(#clip0_1201_1321)"><path d="M196.92 393.91c108.76 0 196.92-88.17 196.92-196.96S305.68 0 196.92 0C88.16 0 0 88.17 0 196.96s88.17 196.96 196.92 196.96v-.01z" fill="#076CE3"/><path d="M209.58 316.91c65.71-1.43 117-52.93 118.52-111.1 1.26-48.07-31.67-94.06-81.7-111.14" stroke="#fff" stroke-width="13.39" stroke-miterlimit="10" stroke-linecap="round"/><path d="M208.07 213.54c4.75 0 8.6-3.86 8.6-8.6s-3.85-8.6-8.6-8.6-8.6 3.84-8.6 8.6 3.85 8.6 8.6 8.6z" fill="#fff" stroke="#fff" stroke-width="1.91" stroke-miterlimit="10" stroke-linecap="round"/><path d="M102.33 94.73c10.06 15.39 52.23 68.57 52.23 68.57s47.41-58 53.16-68.57" stroke="#fff" stroke-width="13.39" stroke-miterlimit="10" stroke-linecap="round"/><path d="M102.33 269.98V94.73m106.66 82.55V94.73m-1.27 222.24v-82.55" stroke="#fff" stroke-width="13.39" stroke-linecap="round" stroke-linejoin="round"/><path d="M574.36 234.4l-32.42-41.57v82.53h-25.65V140.13h16.31l45.74 62.45 41.56-62.45h15.71v135.23h-26.05V197.4l-25.26 35.61-9.94 1.4v-.01zm134.56 43.35c-15.25 0-27.18-4.57-35.8-13.73-8.49-9.27-12.73-21.67-12.73-37.19 0-15.52 4.44-27.63 13.32-36.79 9.01-9.14 21.28-13.71 36.79-13.71 15.51 0 28.44 4.76 37.19 14.32 8.88 9.41 13.32 21.8 13.32 37.17 0 15.37-4.77 27.59-14.32 36.6-9.55 8.89-22.14 13.33-37.79 13.33h.02zm25.46-49.93c0-9.14-2.06-16.29-6.16-21.47-3.98-5.3-9.68-7.95-17.1-7.95-7.42 0-13.46 2.33-17.7 6.96-4.24 4.65-6.36 11.74-6.36 21.28 0 9.54 1.79 16.77 5.37 21.68 3.71 4.89 9.35 7.34 16.9 7.34 7.55 0 13.46-2.18 18.1-6.56 4.64-4.51 6.96-11.59 6.96-21.28h-.01zm74.34-92.86v46.93c3.85-2.12 7.89-3.79 12.13-4.97 4.38-1.19 8.29-1.8 11.73-1.8 14.19 0 25.06 4.91 32.61 14.72 7.56 9.81 11.34 22.01 11.34 36.6s-3.91 26.77-11.73 36.58c-7.69 9.81-18.43 14.72-32.22 14.72-4.51 0-9.55-.94-15.11-2.79-5.57-1.85-10.54-4.44-14.92-7.74l-6.36 8.15h-13.13V137.14l25.65-2.18h.01zm17.1 120.7c8.88 0 15.11-3.17 18.69-9.54 3.58-6.5 5.37-13.06 5.37-19.68 0-7.57-1.59-14.32-4.77-20.29-3.18-5.97-9.61-8.95-19.29-8.95-2.78 0-5.7.54-8.75 1.59-2.92.94-5.7 2.26-8.35 3.98v47.33a47.7 47.7 0 008.35 3.98c3.05 1.07 5.97 1.59 8.75 1.59v-.01zm84.33-119.51c4.11 0 7.56 1.4 10.34 4.17 2.92 2.79 4.38 6.23 4.38 10.35 0 4.12-1.46 7.55-4.38 10.34-2.78 2.79-6.23 4.17-10.34 4.17-4.11 0-7.36-1.38-10.14-4.17-2.78-2.79-4.18-6.23-4.18-10.34 0-4.11 1.39-7.55 4.18-10.35 2.78-2.77 6.16-4.17 10.14-4.17zm12.93 42.76v96.45h-25.85v-96.45h25.85zm52.08-43.94v140.39h-25.65V137.14l25.65-2.18v.01zm75.69 142.78c-16.7 0-29.9-4.57-39.57-13.73-9.55-9.14-14.32-21.42-14.32-36.79 0-15.37 4.31-27.71 12.93-36.98 8.75-9.29 20.62-13.92 35.6-13.92s26.19 5.03 33.21 15.11c7.16 9.94 10.74 21.74 10.74 35.39v7.95h-65.03c1.19 6.37 4.11 11.47 8.75 15.32 4.64 3.71 10.74 5.56 18.3 5.56 4.38 0 8.29-.52 11.73-1.59 3.58-1.19 7.69-2.85 12.33-4.97l7.56 18.7c-4.51 3.44-10.01 5.97-16.51 7.55-6.36 1.59-11.6 2.39-15.71 2.39l-.01.01zm14.12-60.25c-1.33-6.5-3.71-11.28-7.16-14.32-3.45-3.19-7.76-4.78-12.93-4.78s-9.74 1.66-13.32 4.97c-3.58 3.19-5.9 7.9-6.96 14.13h40.37zm89.28 13.52h-51.9l-2.19-20.29h52.1l1.99 20.29zm45.48-90.89v135.23h-25.65V140.13h25.65zm82.7 135.23h-49.32V140.13h50.12c20.82 0 36.26 6.29 46.34 18.89 10.08 12.6 15.11 28.57 15.11 47.92 0 20.96-5.43 37.59-16.31 49.93-10.87 12.33-26.18 18.49-45.94 18.49zm.99-113.36h-24.66v91.67h23.27c10.87 0 19.56-3.58 26.05-10.73 6.63-7.17 9.94-19.16 9.94-36.01 0-14.05-2.78-25.05-8.35-33-5.57-7.95-14.32-11.93-26.25-11.93z" fill="#076CE3"/></g><defs><clipPath id="clip0_1201_1321"><path fill="#fff" d="M0 0h1344.68v393.91H0z"/></clipPath></defs></svg>