<svg xmlns="http://www.w3.org/2000/svg" width="2048" height="471" shape-rendering="geometricPrecision" text-rendering="geometricPrecision" image-rendering="optimizeQuality" fill-rule="evenodd" clip-rule="evenodd"><path fill="#233679" d="M481.5 468.5c-.832-28.83-1.332-57.83-1.5-87-3.803-17.613-13.469-30.946-29-40l-1-72c-2.152-35.358-18.986-60.691-50.5-76v-3h-4v-7c3 .333 4.333-1 4-4h-7c.826 5.01-1.341 7.343-6.5 7a191.358 191.358 0 00-41.5-4l-24 .5c-.752.671-1.086 1.504-1 2.5a105.2 105.2 0 00-20 4c-3.416.028-6.416 1.028-9 3-23.122 7.288-38.955 22.288-47.5 45a66.761 66.761 0 00-5.5 22c-2.061 7.058-3.061 14.391-3 22a1003.27 1003.27 0 01-3 61c-14.257 9.142-23.09 22.142-26.5 39a3855.786 3855.786 0 01-1.5 88c-56.334.167-112.668 0-169-.5-11.811-2.152-21.311-7.985-28.5-17.5l-6.5-13v-407C5.94 14.23 18.273 4.063 36.5 1c146.667-.667 293.333-.667 440 0 19.866 3.534 32.366 15.034 37.5 34.5.667 133 .667 266 0 399-3.882 18.048-14.716 29.381-32.5 34z" opacity=".995"/><path fill="#373a6b" d="M320.5 26.5c-.996-.086-1.829.248-2.5 1-.942 2.874-2.109 5.54-3.5 8 .529-3.684-.471-6.85-3-9.5.35-1.258 1.017-1.59 2-1 2.168 4.7 3.168 4.532 3-.5 1.983-.343 3.317.323 4 2z"/><path fill="#3a365d" d="M320.5 26.5c1.466.847 2.3 2.18 2.5 4l1-1c.495 1.973.662 3.973.5 6l-2-3h-1a19.222 19.222 0 00-1-6z"/><path fill="#c79c5d" d="M320.5 26.5a19.22 19.22 0 011 6 31.12 31.12 0 01-2-2 89.309 89.309 0 00-6 11 19.22 19.22 0 011-6c1.391-2.46 2.558-5.126 3.5-8 .671-.752 1.504-1.086 2.5-1z"/><path fill="#9e7a60" d="M322.5 32.5l2 3v4c-1.424-2.014-2.09-4.348-2-7z"/><path fill="#f5b334" d="M321.5 32.5h1c-.09 2.652.576 4.986 2 7a74.214 74.214 0 005 18c.683.363 1.35.696 2 1 0 .667.333 1 1 1 10.872.342 21.539 1.342 32 3-.667 0-1 .333-1 1a129.7 129.7 0 01-7 1.5c.671.986.671 2.153 0 3.5l-2 1c-1.527-.073-2.527.594-3 2l-8 6c-2.636-.009-3.969 1.325-4 4 .902 5.047 2.569 9.713 5 14-.09 2.652.576 4.985 2 7v6c-2.608.1-4.942-.567-7-2a138.864 138.864 0 00-8-7.5 10.098 10.098 0 00-6-1.5c-1.799-3.744-4.466-4.744-8-3-1.904.238-3.238 1.238-4 3a17.91 17.91 0 00-6 4c-1.653.16-2.986.826-4 2v1c-2.132.054-3.465 1.054-4 3l-4 1h-3a117.667 117.667 0 005-20c-.268-1.599.066-2.932 1-4 .968-2.107 1.302-4.44 1-7h-4c-.762-1.762-2.096-2.762-4-3a99.539 99.539 0 00-8-7.5 42.584 42.584 0 00-5-1.5c-1.173-2.004-2.84-3.504-5-4.5a538.89 538.89 0 0033-1.5c.667 0 1-.333 1-1 1.574-1.602 2.241-3.602 2-6v-2c1.406-.473 2.073-1.473 2-3 1.574-1.602 2.241-3.602 2-6a89.309 89.309 0 016-11 31.12 31.12 0 002 2z"/><path fill="#ba9062" d="M313.5 41.5c.241 2.398-.426 4.398-2 6-.241-2.398.426-4.398 2-6z"/><path fill="#57575a" d="M908.5 45.5a676.07 676.07 0 0148 3v384a726.163 726.163 0 01-40 2 726.163 726.163 0 01-40-2v-384a534.852 534.852 0 0032-3z" opacity=".985"/><path fill="#57575a" d="M1095.5 42.5c41.37-2.982 82.03.851 122 11.5 57.5 17.829 94.33 55.662 110.5 113.5 8.84 39.95 10.84 80.283 6 121-11.6 78.235-56.1 125.735-133.5 142.5a402.267 402.267 0 01-100 7 6395.711 6395.711 0 01-71-5.5v-384a3403.77 3403.77 0 0066-6zm19 69c15-.167 30 0 45 .5 49.61 6.938 79.44 35.104 89.5 84.5 4.65 30 4.65 60 0 90-4.33 22.736-14.5 42.236-30.5 58.5-16.83 14.403-36.5 22.403-59 24-16.69.775-33.36.608-50-.5v-256c1.91.284 3.58-.049 5-1z" opacity=".975"/><path fill="#57575a" d="M1594.5 45.5c18.03.469 36.03 1.469 54 3 .5 2.987 1 5.987 1.5 9 38.67 122.667 77.33 245.333 116 368 .5 2.31.66 4.643.5 7a699.857 699.857 0 01-42.5 2c-13.59.212-27.09-.788-40.5-3a6276.264 6276.264 0 00-21-75 1922.98 1922.98 0 00-124 0c-7.33 24.989-14.66 49.989-22 75a297.835 297.835 0 01-77 1 353.244 353.244 0 019.5-34 50218.27 50218.27 0 00110.5-350 866.85 866.85 0 0035-3zm6 89a10554.799 10554.799 0 0143 154 1261.865 1261.865 0 01-87 .5c14.13-49.59 28.63-99.09 43.5-148.5.5-1.973.66-3.973.5-6z" opacity=".976"/><path fill="#57575a" d="M1910.5 42.5c40.87-1.758 80.54 4.242 119 18 1.16 3.284 1.32 6.618.5 10-2.91 18.721-8.58 36.388-17 53a264.007 264.007 0 00-32.5-11.5 341.862 341.862 0 00-47.5-5.5c-13.73.141-26.57 3.474-38.5 10-9.84 7.634-14.17 17.801-13 30.5-.78 8.851 1.55 16.685 7 23.5 3.85 3.686 7.85 7.186 12 10.5a984.594 984.594 0 0058 23 1033.859 1033.859 0 0139 18c33.45 21.402 49.12 52.236 47 92.5-.13 53.829-24.8 90.996-74 111.5-35.09 11.767-71.09 15.433-108 11-23.42-2.189-46.09-7.522-68-16-2.37-.848-4.37-2.181-6-4 3.13-22.874 8.8-45.04 17-66.5a313.408 313.408 0 0040 13.5c19.82 4.499 39.82 5.832 60 4 18.33-1.39 33.83-8.557 46.5-21.5 8.33-14.968 9.67-30.634 4-47-2.33-3.333-4.67-6.667-7-10a120.298 120.298 0 00-14.5-11.5 1810.852 1810.852 0 00-74-29c-44.95-19.694-65.45-54.194-61.5-103.5 4.06-49.716 29.89-81.883 77.5-96.5a1005.14 1005.14 0 0134-6.5z" opacity=".974"/><path fill="#805d5a" d="M311.5 47.5c.073 1.527-.594 2.527-2 3-.073-1.527.594-2.527 2-3z"/><path fill="#d3a457" d="M324.5 39.5a109.537 109.537 0 015 14l2 5a44.043 44.043 0 01-2-1 74.214 74.214 0 01-5-18z"/><path fill="#a68475" d="M450.5 53.5v1a5.728 5.728 0 00-3-1c.76-2.484 1.76-2.484 3 0z"/><path fill="#d2a566" d="M193.5 56.5v2a31.12 31.12 0 01-2-2 44.293 44.293 0 01-2 3c-.236-2.726.597-5.059 2.5-7 1.188 1.063 1.688 2.397 1.5 4z"/><path fill="#ae8861" d="M308.5 52.5h1c.241 2.398-.426 4.398-2 6a19.22 19.22 0 011-6z"/><path fill="#353651" d="M308.5 52.5a19.222 19.222 0 00-1 6h-38a342.838 342.838 0 0137-1c-.423-2.281.244-3.948 2-5z"/><path fill="#3a3857" d="M329.5 53.5a95.592 95.592 0 006 3.5c12.014.167 24.014.667 36 1.5-.379 1.713-1.379 2.713-3 3 .304-.65.637-1.316 1-2a361.872 361.872 0 00-38-1l-2-5z"/><path fill="#bf945e" d="M447.5 53.5a5.728 5.728 0 013 1c.801 1.542 1.134 3.209 1 5-1.466-.847-2.3-2.18-2.5-4a74.75 74.75 0 00-5.5 10 42.395 42.395 0 014-12z"/><path fill="#715659" d="M193.5 56.5c1.406.473 2.073 1.473 2 3l-2-1v-2z"/><path fill="#98836e" d="M269.5 58.5h38c0 .667-.333 1-1 1-12.38-.646-24.38.02-36 2-1.882-.721-2.215-1.721-1-3z"/><path fill="#9a826e" d="M331.5 58.5c12.684-.332 25.351 0 38 1-.363.684-.696 1.35-1 2l-3 2h-2c0-.667.333-1 1-1 .978-.311 1.645-.978 2-2a289.882 289.882 0 00-34-1c-.667 0-1-.333-1-1z"/><path fill="#e1ac5a" d="M306.5 59.5a538.095 538.095 0 01-33 1.5c2.16.996 3.827 2.496 5 4.5h-2a35.347 35.347 0 00-6-4c11.62-1.98 23.62-2.646 36-2z"/><path fill="#e6b259" d="M332.5 59.5a289.882 289.882 0 0134 1c-.355 1.022-1.022 1.689-2 2-10.461-1.658-21.128-2.658-32-3z"/><path fill="#3c3d64" d="M450.5 53.5c1.676.683 2.343 2.017 2 4h3c.04 4.693.373 9.36 1 14h-1c-.732-4.287-2.065-8.287-4-12 .134-1.791-.199-3.458-1-5v-1z"/><path fill="#c89c5d" d="M189.5 59.5c-.525 4.033-1.858 7.7-4 11v-2c.963-3.244 2.296-6.244 4-9z"/><path fill="#91775f" d="M195.5 61.5c1.903 3.03 3.237 6.363 4 10-2.397-2.809-3.73-6.142-4-10z"/><path fill="#d9a754" d="M363.5 63.5a56.381 56.381 0 00-6 5h-1c.671-1.347.671-2.514 0-3.5a129.7 129.7 0 007-1.5z"/><path fill="#4d445c" d="M363.5 63.5h2c-1.899 2.9-4.566 4.566-8 5a56.381 56.381 0 016-5z"/><path fill="#f6b334" d="M451.5 59.5c.119 4.504 1.452 8.504 4 12-.334 2.991.666 5.324 3 7v1a11.987 11.987 0 001 6c12.029.345 23.696 1.345 35 3-.667 0-1 .333-1 1a37.8 37.8 0 00-10 6c-.333 1-1 1.667-2 2-2.698.345-4.698 1.678-6 4-3.013.081-5.013 1.414-6 4-1.134 2.466-1.301 5.133-.5 8 .708.881 1.542 1.547 2.5 2 .07 5.19 1.403 9.857 4 14 .667 0 1 .333 1 1a9.108 9.108 0 001 5c-1.2.792-2.533.792-4 0a5.727 5.727 0 01-3-1 579.57 579.57 0 01-6-5c-1.858-3.496-4.858-5.496-9-6-1.931-5.133-4.931-6.133-9-3h-2c-3.338-1.83-5.004-.83-5 3h-3v3c-1.951.273-3.451-.393-4.5-2-3.464 1.184-6.464 3.184-9 6a45.296 45.296 0 01.5-7 122.334 122.334 0 005.5-11 8.43 8.43 0 00.5-4c.215-1.679-.452-2.679-2-3-.473-1.406-1.473-2.073-3-2l-2-1-5-4c-.473-1.406-1.473-2.073-3-2-.473-1.406-1.473-2.073-3-2a18.47 18.47 0 01-6-4c-.444-1.613-1.444-2.78-3-3.5a572.33 572.33 0 0034-1.5h1c3.402-5.45 5.402-11.45 6-18v-2a74.75 74.75 0 015.5-10c.2 1.82 1.034 3.153 2.5 4z"/><path fill="#f5b334" d="M193.5 58.5l2 1v2c.27 3.858 1.603 7.191 4 10v4c-.09 2.652.576 4.986 2 7-.322 2.222.345 4.056 2 5.5a290.18 290.18 0 0124 1.5c-.748 1.916-.748 3.916 0 6l-1 2h-1c-2.866.133-4.866 1.466-6 4-1.904.238-3.238 1.238-4 3-.79.901-1.79 1.568-3 2-1.226 3.603-.56 6.936 2 10 1.191 6.028 3.191 11.695 6 17 .262 1.478-.071 2.811-1 4-2.183-2.284-4.85-3.618-8-4-1.21-.432-2.21-1.099-3-2-.473-1.406-1.473-2.073-3-2-.473-1.406-1.473-2.073-3-2-.473-1.406-1.473-2.073-3-2v-1c-3.227-5.931-7.894-7.264-14-4-.929 1.189-1.262 2.522-1 4h-1c-.709-.904-1.709-1.237-3-1v3c-5.381-1.758-7.381-5.425-6-11a27.07 27.07 0 01-2-4.5 19.522 19.522 0 001-7.5 20.69 20.69 0 01-5-1 23.705 23.705 0 01-9-7 71.926 71.926 0 00-11-4c-.473-1.406-1.473-2.073-3-2-.667 0-1-.333-1-1a305.3 305.3 0 0135-3c.63-2.25 1.63-4.25 3-6 1.424-2.014 2.09-4.348 2-7l1-2c2.142-3.3 3.475-6.967 4-11a44.293 44.293 0 002-3 31.12 31.12 0 002 2z"/><path fill="#d5a560" d="M451.5 59.5c1.935 3.713 3.268 7.713 4 12-2.548-3.496-3.881-7.496-4-12z"/><path fill="#413c61" d="M185.5 68.5v2l-1 2-2 3v-7h3z"/><path fill="#31376c" d="M276.5 65.5h2c3.507 4.171 7.841 7.171 13 9 .762 1.762 2.096 2.762 4 3v1c-2.331.002-4.331-.831-6-2.5a32.438 32.438 0 00-8-.5v-3c-1.808.009-3.475-.491-5-1.5 2.047-1.6 2.047-3.433 0-5.5z"/><path fill="#b38c62" d="M354.5 69.5c-.473 1.406-1.473 2.073-3 2 .473-1.406 1.473-2.073 3-2z"/><path fill="#c59b5a" d="M278.5 65.5a42.47 42.47 0 015 1.5 99.539 99.539 0 018 7.5c-5.159-1.829-9.493-4.829-13-9z"/><path fill="#705c59" d="M443.5 65.5v2a82.274 82.274 0 01-6 13 96.095 96.095 0 003.5-13c.708-.88 1.542-1.547 2.5-2z"/><path fill="#daa464" d="M455.5 71.5h1c.296 1.903.963 3.57 2 5v2c-2.334-1.676-3.334-4.009-3-7z"/><path fill="#bf9b5d" d="M184.5 72.5c.09 2.652-.576 4.986-2 7v-4l2-3z"/><path fill="#7a6256" d="M199.5 73.5c1.713 1.135 2.38 2.802 2 5l-2-3v-2z"/><path fill="#ba8a66" d="M291.5 74.5c1.904.238 3.238 1.238 4 3-1.904-.238-3.238-1.238-4-3z"/><path fill="#e1ab52" d="M443.5 67.5c-.598 6.55-2.598 12.55-6 18v-5a82.274 82.274 0 006-13z"/><path fill="#30396f" d="M356.5 68.5h1c-.734 1.208-1.067 2.541-1 4-3.245-.207-5.245 1.293-6 4.5.457.414.791.914 1 1.5a78.511 78.511 0 00-3.5 10l-1.5-1.5c1.277-2.466 1.277-4.966 0-7.5-1.226-.863-2.56-.863-4 0l1-2 8-6c1.527.073 2.527-.594 3-2l2-1z"/><path fill="#d8a759" d="M199.5 75.5l2 3c1.433 2.058 2.1 4.391 2 7l-2-3c-1.424-2.014-2.09-4.348-2-7z"/><path fill="#886c5a" d="M343.5 77.5l-1 2c-1.086.12-1.753.787-2 2a78.03 78.03 0 004 11v3c-2.431-4.287-4.098-8.953-5-14 .031-2.675 1.364-4.009 4-4z"/><path fill="#504454" d="M296.5 78.5c1.78 1.49 2.446 3.49 2 6-.934 1.068-1.268 2.401-1 4l-2 1c1.505-3.638 1.838-7.305 1-11z"/><path fill="#ba915a" d="M295.5 78.5v-1h4c.302 2.56-.032 4.893-1 7 .446-2.51-.22-4.51-2-6h-1z"/><path fill="#453c5a" d="M436.5 83.5a359.723 359.723 0 00-38 3c-.904-.709-1.237-1.709-1-3h39z"/><path fill="#433b59" d="M458.5 76.5a118.788 118.788 0 014 6c12.493.667 24.827 1.333 37 2h-39c-.296-1.903-.963-3.57-2-5v-3z"/><path fill="#333656" d="M182.5 77.5v2c-1.37 1.75-2.37 3.75-3 6-13.044-.647-25.711.02-38 2-.904-.709-1.237-1.709-1-3h38c.087-3.078 1.42-5.411 4-7z"/><path fill="#343650" d="M201.5 78.5c2.413 1.18 3.413 3.18 3 6a342.838 342.838 0 0137 1h-38c.1-2.609-.567-4.942-2-7z"/><path fill="#967965" d="M437.5 81.5v4h-1c-12.712-.646-25.045.02-37 2-.667 0-1-.333-1-1a359.723 359.723 0 0138-3c-.172-.992.162-1.658 1-2z"/><path fill="#967969" d="M460.5 84.5h39v2l-2 1a341.07 341.07 0 00-37-3z"/><path fill="#9e8151" d="M179.5 85.5a305.3 305.3 0 00-35 3 5.728 5.728 0 00-3-1c12.289-1.98 24.956-2.647 38-2z"/><path fill="#a28251" d="M203.5 85.5h38c.073 1.527-.594 2.527-2 3a322.982 322.982 0 00-36-3z"/><path fill="#e4b059" d="M436.5 85.5a571.316 571.316 0 01-34 1.5c1.556.72 2.556 1.887 3 3.5a401.2 401.2 0 01-6-3c11.955-1.98 24.288-2.646 37-2z"/><path fill="#e6b157" d="M458.5 79.5c1.037 1.43 1.704 3.097 2 5a341.07 341.07 0 0137 3 5.728 5.728 0 00-3 1c-11.304-1.655-22.971-2.655-35-3a11.987 11.987 0 01-1-6z"/><path fill="#efb142" d="M201.5 82.5l2 3c12.201.34 24.201 1.34 36 3a35.904 35.904 0 00-8 6l-4 1c-.748-2.084-.748-4.084 0-6a290.18 290.18 0 00-24-1.5c-1.655-1.444-2.322-3.278-2-5.5z"/><path fill="#a17962" d="M145.5 89.5c1.527-.073 2.527.594 3 2-1.527.073-2.527-.594-3-2z"/><path fill="#ad895e" d="M493.5 89.5l-6 5-4 1a37.8 37.8 0 0110-6z"/><path fill="#393c66" d="M499.5 86.5c-.381 1.431-1.381 2.264-3 2.5l2 1a6203.697 6203.697 0 01-11 4.5l6-5c0-.667.333-1 1-1a5.728 5.728 0 013-1l2-1z"/><path fill="#3c3961" d="M241.5 85.5c2.245 1.328 2.578 3.161 1 5.5a917.78 917.78 0 01-11 3.5 35.904 35.904 0 018-6c1.406-.473 2.073-1.473 2-3z"/><path fill="#d8a552" d="M148.5 91.5a71.926 71.926 0 0111 4 23.705 23.705 0 009 7l3 4a11.743 11.743 0 01-5-3c-.473-1.406-1.473-2.073-3-2-1.716-1.525-3.716-2.525-6-3-1.079-2.043-2.746-3.376-5-4-1.73-.526-3.064-1.526-4-3z"/><path fill="#493c4c" d="M152.5 94.5c2.254.624 3.921 1.957 5 4-2.295-.635-3.961-1.969-5-4z"/><path fill="#886c57" d="M317.5 94.5c-.762 1.762-2.096 2.762-4 3 .762-1.762 2.096-2.762 4-3z"/><path fill="#ad865f" d="M317.5 94.5c3.534-1.744 6.201-.744 8 3-2.281-1.928-4.947-2.928-8-3z"/><path fill="#ac866e" d="M411.5 94.5c1.527-.073 2.527.594 3 2-1.527.073-2.527-.594-3-2z"/><path fill="#634b4e" d="M231.5 94.5c-.986 1.908-2.652 2.908-5 3l1-2 4-1z"/><path fill="#33386b" d="M344.5 92.5c.996-.086 1.829.248 2.5 1a19.35 19.35 0 004.5 7c.261 2.895-.072 5.895-1 9h-1c-.764-2.518-1.764-4.851-3-7 .09-2.652-.576-4.986-2-7v-3z"/><path fill="#a58a64" d="M414.5 96.5c1.527-.073 2.527.594 3 2h-1c-1-.333-1.667-1-2-2z"/><path fill="#c79b64" d="M225.5 97.5v1a41.722 41.722 0 00-6 3c1.134-2.534 3.134-3.867 6-4z"/><path fill="#e0ab50" d="M297.5 88.5a117.667 117.667 0 01-5 20h3a308.607 308.607 0 01-4 3c-1.676-.683-2.343-2.017-2-4 1.406-.473 2.073-1.473 2-3v-4c1.741-1.895 2.741-4.228 3-7l1-4 2-1z"/><path fill="#2f376c" d="M317.5 94.5c3.053.072 5.719 1.072 8 3 .79.901 1.79 1.568 3 2 .473 1.406 1.473 2.073 3 2v1c-3.638 1.442-7.138 1.109-10.5-1a11.295 11.295 0 00-4 2c-2.727-2.463-5.56-2.463-8.5 0-1.141.925-1.141 1.759 0 2.5a12.93 12.93 0 01-5 .5v-3c1.88.271 3.213-.396 4-2a17.91 17.91 0 016-4c1.904-.238 3.238-1.238 4-3z"/><path fill="#b78c5f" d="M344.5 95.5c1.424 2.014 2.09 4.348 2 7-1.424-2.015-2.09-4.348-2-7z"/><path fill="#544754" d="M294.5 93.5c-.259 2.772-1.259 5.105-3 7 .259-2.772 1.259-5.105 3-7z"/><path fill="#433e55" d="M416.5 98.5h1l5 4c-2.837-.184-4.837-1.518-6-4z"/><path fill="#8a725b" d="M481.5 97.5c-1.534 1.869-3.534 3.202-6 4 1.302-2.322 3.302-3.655 6-4z"/><path fill="#a07f5e" d="M328.5 99.5c1.527-.073 2.527.594 3 2-1.527.073-2.527-.594-3-2z"/><path fill="#96785c" d="M163.5 102.5v-1c1.527-.073 2.527.594 3 2a5.727 5.727 0 01-3-1z"/><path fill="#9d846c" d="M219.5 101.5c-.762 1.762-2.096 2.762-4 3 .762-1.762 2.096-2.762 4-3z"/><path fill="#9a7a5f" d="M307.5 101.5c-.787 1.604-2.12 2.271-4 2 1.014-1.174 2.347-1.84 4-2z"/><path fill="#d3a359" d="M325.5 97.5a10.098 10.098 0 016 1.5 138.864 138.864 0 018 7.5 28.264 28.264 0 00-8-4v-1c-.473-1.406-1.473-2.073-3-2-1.21-.432-2.21-1.099-3-2z"/><path fill="#c29a61" d="M475.5 101.5a35.377 35.377 0 01-6 4c.987-2.586 2.987-3.919 6-4z"/><path fill="#81684f" d="M424.5 103.5c1.527-.073 2.527.594 3 2-1.527.073-2.527-.594-3-2z"/><path fill="#534d55" d="M303.5 104.5v2l-4 1c.535-1.946 1.868-2.946 4-3z"/><path fill="#2d366d" d="M225.5 98.5a28.236 28.236 0 01-6 6.5c.877 1.867 2.377 3.034 4.5 3.5 1.897 4.5.23 7.166-5 8l-1-2c-1.009 1.525-1.509 3.192-1.5 5l-2-3a81.802 81.802 0 00-2-10c1.21-.432 2.21-1.099 3-2 1.904-.238 3.238-1.238 4-3a41.722 41.722 0 016-3z"/><path fill="#996f5c" d="M291.5 104.5c.073 1.527-.594 2.527-2 3-.073-1.527.594-2.527 2-3z"/><path fill="#33386a" d="M487.5 94.5c-1.088 1.5-2.421 2.833-4 4a7.252 7.252 0 002 2.5c-1.921.36-3.588 1.194-5 2.5a3.647 3.647 0 01-1.5-1 12.17 12.17 0 01-4.5 3.5c1.211.893 1.211 1.726 0 2.5a3.647 3.647 0 01-1.5-1 23.788 23.788 0 00.5 10l-2-2a27.555 27.555 0 01-2-10 35.377 35.377 0 006-4c2.466-.798 4.466-2.131 6-4 1-.333 1.667-1 2-2l4-1z"/><path fill="#3c375f" d="M163.5 102.5c.891.61 1.891.943 3 1a11.743 11.743 0 005 3v3a27.195 27.195 0 00-3 5 32.462 32.462 0 00-.5-8c-1.859-1.079-3.359-2.412-4.5-4z"/><path fill="#d6a45b" d="M346.5 102.5c1.236 2.149 2.236 4.482 3 7 .215 1.679-.452 2.679-2 3a27.204 27.204 0 01-8-6c2.058 1.433 4.392 2.1 7 2v-6z"/><path fill="#a57859" d="M427.5 105.5c1.548.321 2.215 1.321 2 3l-2 2v-5z"/><path fill="#b18f61" d="M212.5 106.5a81.802 81.802 0 012 10c-2.56-3.064-3.226-6.397-2-10z"/><path fill="#af8a5a" d="M171.5 109.5c-.525 4.033-1.858 7.7-4 11-.134-1.792.199-3.458 1-5v-1a27.195 27.195 0 013-5z"/><path fill="#a08575" d="M289.5 107.5c-.343 1.983.324 3.317 2 4-.965 2.585-2.299 3.085-4 1.5.454-2.03 1.12-3.863 2-5.5z"/><path fill="#d6a55a" d="M469.5 105.5a27.555 27.555 0 002 10c-.958-.453-1.792-1.119-2.5-2-.801-2.867-.634-5.534.5-8z"/><path fill="#776774" d="M349.5 109.5h1c1.166 1.666 1.166 3.333 0 5-1.239-.442-2.239-1.109-3-2 1.548-.321 2.215-1.321 2-3z"/><path fill="#f3b23f" d="M168.5 102.5a20.69 20.69 0 005 1 19.522 19.522 0 01-1 7.5 27.07 27.07 0 002 4.5c-1.381 5.575.619 9.242 6 11v-3c1.291-.237 2.291.096 3 1v2c-2.698.345-4.698 1.678-6 4-2.132.054-3.465 1.054-4 3a32.508 32.508 0 00-7 3h-3v-5a127.41 127.41 0 004-11c2.142-3.3 3.475-6.967 4-11v-3l-3-4z"/><path fill="#dca55e" d="M429.5 108.5a8.43 8.43 0 01-.5 4 122.334 122.334 0 01-5.5 11v-2a54.155 54.155 0 014-11l2-2z"/><path fill="#dfa754" d="M455.5 123.5h-2c-1.074-1.385-2.407-2.551-4-3.5-.937-.692-1.603-.525-2 .5h-1c4.069-3.133 7.069-2.133 9 3z"/><path fill="#e6ac4b" d="M199.5 124.5a74.752 74.752 0 01-7.5-3c-1.876.025-3.376.691-4.5 2a5.727 5.727 0 00-3 1c-.262-1.478.071-2.811 1-4 6.106-3.264 10.773-1.931 14 4z"/><path fill="#c29864" d="M214.5 116.5l2 3c.296 1.903.963 3.57 2 5a46.86 46.86 0 012 9c-2.809-5.305-4.809-10.972-6-17z"/><path fill="#574856" d="M168.5 115.5c-.801 1.542-1.134 3.208-1 5a127.41 127.41 0 01-4 11c.529-5.909 2.196-11.242 5-16z"/><path fill="#443a62" d="M453.5 123.5c-3.663-1.869-6.663-1.203-9 2a39.934 39.934 0 01-9 3 18.478 18.478 0 016-4 18.478 18.478 0 006-4c.397-1.025 1.063-1.192 2-.5 1.593.949 2.926 2.115 4 3.5z"/><path fill="#403f5b" d="M199.5 124.5v2a72.147 72.147 0 00-8-3 343.58 343.58 0 01-4 1v-1c1.124-1.309 2.624-1.975 4.5-2a74.752 74.752 0 007.5 3z"/><path fill="#715c55" d="M473.5 120.5c1.948 1.82 2.948 4.154 3 7 .61.891.943 1.891 1 3h-1c0-.667-.333-1-1-1a33.691 33.691 0 00-2-9z"/><path fill="#896456" d="M444.5 120.5h3a18.478 18.478 0 01-6 4l3-4z"/><path fill="#997454" d="M187.5 123.5v1c-1.208.734-2.541 1.067-4 1v-1h1a5.727 5.727 0 013-1z"/><path fill="#514859" d="M423.5 121.5v2a25.163 25.163 0 01-4 7c.56-2.301 1.06-4.634 1.5-7 .708-.881 1.542-1.547 2.5-2z"/><path fill="#f0b143" d="M444.5 120.5l-3 4a18.478 18.478 0 00-6 4c-.992-.172-1.658.162-2 1-4.073.408-7.073 2.408-9 6-.667 0-1 .333-1 1h-4v-6a25.163 25.163 0 004-7 45.296 45.296 0 00-.5 7c2.536-2.816 5.536-4.816 9-6 1.049 1.607 2.549 2.273 4.5 2v-3h3c-.004-3.83 1.662-4.83 5-3z"/><path fill="#987962" d="M199.5 126.5v-1c1.527-.073 2.527.594 3 2a5.727 5.727 0 01-3-1z"/><path fill="#cba157" d="M455.5 123.5c4.142.504 7.142 2.504 9 6-3.549-1.223-6.549-3.223-9-6z"/><path fill="#9c795c" d="M202.5 127.5c1.527-.073 2.527.594 3 2-1.527.073-2.527-.594-3-2z"/><path fill="#5a4553" d="M183.5 126.5c-1.534 1.869-3.534 3.202-6 4 1.302-2.322 3.302-3.655 6-4z"/><path fill="#323868" d="M218.5 124.5c1.545.73 2.378 2.063 2.5 4l2-2c1.523 5.122 1.69 10.122.5 15 .284-1.915-.049-3.581-1-5-.432-1.21-1.099-2.21-2-3a46.86 46.86 0 00-2-9z"/><path fill="#deae55" d="M471.5 115.5l2 2v3a33.691 33.691 0 012 9c-2.597-4.143-3.93-8.81-4-14z"/><path fill="#a2835f" d="M205.5 129.5c1.527-.073 2.527.594 3 2-1.527.073-2.527-.594-3-2z"/><path fill="#b88f65" d="M433.5 129.5a64.322 64.322 0 01-9 6c1.927-3.592 4.927-5.592 9-6z"/><path fill="#ca9d5e" d="M476.5 130.5h1a272.002 272.002 0 002 6l-1 3c-1.919-1.112-3.586-2.446-5-4 1.467.792 2.8.792 4 0a9.108 9.108 0 01-1-5z"/><path fill="#c79f62" d="M211.5 133.5c3.15.382 5.817 1.716 8 4 .929-1.189 1.262-2.522 1-4 .901.79 1.568 1.79 2 3 .215 1.679-.452 2.679-2 3a675.984 675.984 0 00-9-6z"/><path fill="#b48e6d" d="M419.5 132.5v4h3a173.55 173.55 0 01-4 3c-.798-.457-1.131-1.124-1-2 .296-1.903.963-3.57 2-5z"/><path fill="#d0a066" d="M163.5 131.5v5h3l-2 3h-1c-1.333 0-2-.667-2-2-.241-2.398.426-4.398 2-6z"/><path fill="#493f55" d="M173.5 133.5c-1.902 3.557-4.902 5.557-9 6l2-3a32.508 32.508 0 017-3z"/><path fill="#a78769" d="M107.5 142.5c-.958-.453-1.792-1.119-2.5-2-.278.916-.778 1.582-1.5 2 .741-5.003 2.074-5.003 4 0z"/><path fill="#897273" d="M222.5 136.5c.951 1.419 1.284 3.085 1 5-1.527.073-2.527-.594-3-2 1.548-.321 2.215-1.321 2-3z"/><path fill="#706370" d="M161.5 137.5c0 1.333.667 2 2 2-.787 1.604-2.12 2.271-4 2-.343-1.983.324-3.317 2-4z"/><path fill="#494269" d="M422.5 136.5h1c-1.087 4.073-3.754 5.739-8 5-.271-1.88.396-3.213 2-4-.131.876.202 1.543 1 2a173.55 173.55 0 004-3z"/><path fill="#404368" d="M476.5 127.5c3.113 3.964 4.779 8.63 5 14h-6c.12-2.705-.88-3.372-3-2a11.637 11.637 0 01-2-5c.891.61 1.891.943 3 1 1.414 1.554 3.081 2.888 5 4l1-3a272.002 272.002 0 01-2-6 5.727 5.727 0 00-1-3z"/><path fill="#9a755c" d="M103.5 143.5c.073 1.527-.594 2.527-2 3-.073-1.527.594-2.527 2-3z"/><path fill="#796257" d="M107.5 144.5c1.406.473 2.073 1.473 2 3-1.406-.473-2.073-1.473-2-3z"/><path fill="#57575a" d="M683.5 149.5c36.14-3.723 68.14 5.777 96 28.5 21.708 21.25 34.541 47.083 38.5 77.5a244.282 244.282 0 01-1 61 7721.092 7721.092 0 01-175.5 1c2.929 33.101 20.929 52.268 54 57.5 24.716 2.221 49.049.221 73-6a222.604 222.604 0 0116-5c1.667-.667 3.333-.667 5 0 9.242 18.057 13.742 37.224 13.5 57.5a41.393 41.393 0 01-9.5 4.5c-46.556 14.465-93.556 16.132-141 5-45.594-14.603-73.427-45.436-83.5-92.5-8.437-42.118-4.103-82.785 13-122 15.487-29.486 38.987-49.653 70.5-60.5a337.94 337.94 0 0131-6.5zm10 59c24.989-.261 41.489 11.405 49.5 35a86.312 86.312 0 013.5 19c-34.66 1-69.327 1.333-104 1 .545-19.196 8.212-34.696 23-46.5 8.817-4.79 18.151-7.623 28-8.5z" opacity=".973"/><path fill="#a8895e" d="M101.5 147.5c.241 2.398-.426 4.398-2 6-.134-1.792.2-3.458 1-5 0-.667.333-1 1-1z"/><path fill="#b08d5f" d="M110.5 152.5c1.371 2.436 2.371 5.103 3 8-2.155-2.117-3.155-4.784-3-8z"/><path fill="#f5b336" d="M107.5 142.5v2c-.073 1.527.594 2.527 2 3 .801 1.542 1.134 3.208 1 5-.155 3.216.845 5.883 3 8v1c-.241 2.398.426 4.398 2 6-.183 2.436.484 4.603 2 6.5a452.47 452.47 0 0130 1.5c-.825.886-1.825 1.219-3 1v3a21.614 21.614 0 01-5 4c-1.527-.073-2.527.594-3 2-.667 0-1 .333-1 1-2.174.25-3.841 1.25-5 3-1.527-.073-2.527.594-3 2-1.193.47-1.86 1.47-2 3a28.156 28.156 0 012 7c-.241 2.398.426 4.398 2 6h1l1 4a46.86 46.86 0 002 9c.03.997-.47 1.664-1.5 2a14.093 14.093 0 00-3.5-1h-2l-4-4c-.473-1.406-1.473-2.073-3-2-.473-1.406-1.473-2.073-3-2a409.027 409.027 0 01-6-3v-1c-1.765-2.949-4.098-3.615-7-2-1.527-.073-2.527.594-3 2-1.21.432-2.21 1.099-3 2-1.527-.073-2.527.594-3 2-1.527-.073-2.527.594-3 2-1.527-.073-2.527.594-3 2-.667 0-1 .333-1 1-2.174.25-3.84 1.25-5 3-1.562.233-2.895.9-4 2-.997.03-1.664-.47-2-1.5a104.529 104.529 0 007-22.5v-1c1.526-.992 2.193-2.492 2-4.5-1.014-4.179-3.68-6.345-8-6.5-.473-1.406-1.473-2.073-3-2-.473-1.406-1.473-2.073-3-2-.473-1.406-1.473-2.073-3-2-.987-2.586-2.987-3.919-6-4-.473-1.406-1.473-2.073-3-2 .086-.996-.248-1.829-1-2.5a605 605 0 0035-1.5c.958-.453 1.792-1.119 2.5-2a99.987 99.987 0 011.5-8 19.24 19.24 0 011-6c.838-.342 1.172-1.008 1-2 1.574-1.602 2.241-3.602 2-6v-1c1.406-.473 2.073-1.473 2-3v-1c.722-.418 1.222-1.084 1.5-2 .708.881 1.542 1.547 2.5 2z"/><path fill="#6a5558" d="M98.5 155.5a19.24 19.24 0 00-1 6l-2 1c.259-2.772 1.259-5.105 3-7z"/><path fill="#ba955f" d="M113.5 161.5c1.574 1.602 2.241 3.602 2 6-1.574-1.602-2.241-3.602-2-6z"/><path fill="#d5a356" d="M97.5 161.5a99.987 99.987 0 00-1.5 8c-.708.881-1.542 1.547-2.5 2l2-9 2-1z"/><path fill="#3b3856" d="M100.5 148.5c-.8 1.542-1.134 3.208-1 5 .172.992-.162 1.658-1 2-1.741 1.895-2.741 4.228-3 7l-2 9c-13.376-.648-26.376.019-39 2-.904-.709-1.237-1.709-1-3h39c.566-8.31 3.232-15.643 8-22z"/><path fill="#3e3652" d="M116.5 167.5c1.548.321 2.215 1.321 2 3 12.178-.328 24.178.005 36 1h-37l-1-4z"/><path fill="#ba925c" d="M93.5 171.5a605 605 0 01-35 1.5c.752.671 1.086 1.504 1 2.5a16.336 16.336 0 01-5-2c12.624-1.981 25.624-2.648 39-2z"/><path fill="#bc8e5f" d="M117.5 171.5h37c.543.06.876.393 1 1-1.088 1.434-2.422 2.434-4 3 .304-.65.637-1.317 1-2-11.826-.667-23.493-1.333-35-2z"/><path fill="#efad4c" d="M115.5 167.5h1l1 4c11.507.667 23.174 1.333 35 2-.363.683-.696 1.35-1 2a35.775 35.775 0 01-7 4v-3c1.175.219 2.175-.114 3-1a452.47 452.47 0 00-30-1.5c-1.516-1.897-2.183-4.064-2-6.5z"/><path fill="#af8f62" d="M59.5 175.5c1.527-.073 2.527.594 3 2-1.527.073-2.527-.594-3-2z"/><path fill="#c99d5c" d="M62.5 177.5c3.013.081 5.013 1.414 6 4-2.698-.345-4.698-1.678-6-4z"/><path fill="#b1875e" d="M68.5 181.5c1.527-.073 2.527.594 3 2-1.527.073-2.527-.594-3-2z"/><path fill="#443f5b" d="M151.5 175.5v3c-4.763 1.218-8.763 3.718-12 7.5a8.43 8.43 0 01-4 .5c0-.667.333-1 1-1 1.527.073 2.527-.594 3-2a21.614 21.614 0 005-4 35.775 35.775 0 007-4z"/><path fill="#38437c" d="M399.5 193.5c-10.825-4.667-22.158-7.501-34-8.5a410.638 410.638 0 00-46 .5c-.086-.996.248-1.829 1-2.5l24-.5a191.358 191.358 0 0141.5 4c5.159.343 7.326-1.99 6.5-7h7c.333 3-1 4.333-4 4v7h4v3z"/><path fill="#ad8559" d="M71.5 183.5c1.527-.073 2.527.594 3 2-1.527.073-2.527-.594-3-2z"/><path fill="#70624e" d="M139.5 183.5c-.473 1.406-1.473 2.073-3 2 .473-1.406 1.473-2.073 3-2z"/><path fill="#b9906a" d="M74.5 185.5c1.527-.073 2.527.594 3 2-1.527.073-2.527-.594-3-2z"/><path fill="#fefefe" d="M399.5 193.5c31.514 15.309 48.348 40.642 50.5 76l1 72c15.531 9.054 25.197 22.387 29 40 .168 29.17.668 58.17 1.5 87v2h-278v-1a3855.786 3855.786 0 001.5-88c3.41-16.858 12.243-29.858 26.5-39a5.727 5.727 0 013-1c.496-27.206 1.496-54.54 3-82a66.761 66.761 0 015.5-22c8.545-22.712 24.378-37.712 47.5-45 3.355-.19 6.355-1.19 9-3a105.2 105.2 0 0120-4 410.638 410.638 0 0146-.5c11.842.999 23.175 3.833 34 8.5z"/><path fill="#cb9a5b" d="M77.5 187.5c4.32.155 6.986 2.321 8 6.5.193 2.008-.474 3.508-2 4.5 2.028-3.919 1.028-6.586-3-8a6.544 6.544 0 01-3-3z"/><path fill="#5f524f" d="M135.5 186.5c-.986 1.908-2.652 2.908-5 3 1.159-1.75 2.826-2.75 5-3z"/><path fill="#775f57" d="M130.5 189.5c-.473 1.406-1.473 2.073-3 2 .473-1.406 1.473-2.073 3-2z"/><path fill="#bfc3e4" d="M299.5 189.5c-2.645 1.81-5.645 2.81-9 3 2.584-1.972 5.584-2.972 9-3z"/><path fill="#4c425c" d="M127.5 191.5a8170.238 8170.238 0 013 16h-1c.241-2.398-.426-4.398-2-6a28.156 28.156 0 00-2-7c.14-1.53.807-2.53 2-3z"/><path fill="#473e5e" d="M80.5 190.5c4.028 1.414 5.028 4.081 3 8v1h-1c.21-3.252-.456-6.252-2-9z"/><path fill="#c39758" d="M127.5 201.5c1.574 1.602 2.241 3.602 2 6-1.574-1.602-2.241-3.602-2-6z"/><path fill="#af8c57" d="M103.5 207.5c2.902-1.615 5.235-.949 7 2-2.058-1.433-4.392-2.1-7-2z"/><path fill="#3e3c55" d="M103.5 208.5v-1c2.608-.1 4.942.567 7 2v1l-7-2z"/><path fill="#7b684f" d="M103.5 207.5v1a5.727 5.727 0 01-3 1c.473-1.406 1.473-2.073 3-2z"/><path fill="#796657" d="M97.5 211.5c-.473 1.406-1.473 2.073-3 2 .473-1.406 1.473-2.073 3-2z"/><path fill="#323865" d="M103.5 208.5c-.558 2.064-1.725 3.73-3.5 5a33.53 33.53 0 00-8.5 4.5 8.43 8.43 0 01-4 .5c0-.667.333-1 1-1 1.527.073 2.527-.594 3-2 1.527.073 2.527-.594 3-2 1.527.073 2.527-.594 3-2 .79-.901 1.79-1.568 3-2a5.727 5.727 0 003-1z"/><path fill="#7e6150" d="M94.5 213.5c-.473 1.406-1.473 2.073-3 2 .473-1.406 1.473-2.073 3-2z"/><path fill="#c39763" d="M116.5 213.5c1.527-.073 2.527.594 3 2-1.527.073-2.527-.594-3-2z"/><path fill="#373965" d="M110.5 210.5a409.027 409.027 0 006 3c.473 1.406 1.473 2.073 3 2 .473 1.406 1.473 2.073 3 2l4 4c-1.891-1.036-3.724-1.036-5.5 0-1.044-1.123-1.71-2.456-2-4-4.506-.356-7.339-2.689-8.5-7z"/><path fill="#b98f6a" d="M119.5 215.5c1.527-.073 2.527.594 3 2-1.527.073-2.527-.594-3-2z"/><path fill="#d4a263" d="M82.5 199.5h1a104.529 104.529 0 01-7 22.5c.336 1.03 1.003 1.53 2 1.5-.927 1.976-2.26 2.309-4 1a5.577 5.577 0 001-3 274.651 274.651 0 007-22z"/><path fill="#746454" d="M91.5 215.5c-.473 1.406-1.473 2.073-3 2 .473-1.406 1.473-2.073 3-2z"/><path fill="#95785d" d="M131.5 211.5c1.9 3.018 3.233 6.351 4 10l-2-1a46.86 46.86 0 01-2-9z"/><path fill="#3e3b5e" d="M82.5 199.5a274.651 274.651 0 01-7 22h-1a432.587 432.587 0 004.5-21c1.011-.837 2.178-1.17 3.5-1z"/><path fill="#6e5b57" d="M87.5 218.5c-.986 1.908-2.652 2.908-5 3 1.16-1.75 2.826-2.75 5-3z"/><path fill="#d3a25b" d="M133.5 220.5l2 1v2c.172.992-.162 1.658-1 2-2.698-.345-4.698-1.678-6-4 1.195.178 2.362.511 3.5 1 1.03-.336 1.53-1.003 1.5-2z"/><path fill="#7c686c" d="M74.5 221.5h1a5.577 5.577 0 01-1 3c1.74 1.309 3.073.976 4-1 1.105-1.1 2.438-1.767 4-2-1.871 3.372-4.704 5.372-8.5 6-.678-2.098-.51-4.098.5-6z"/><path fill="#7f6d78" d="M135.5 223.5c1.976.927 2.309 2.26 1 4-1.022-.355-1.689-1.022-2-2 .838-.342 1.172-1.008 1-2z"/><path fill="#9ea8ca" d="M361.5 227.5c3.416.028 6.416 1.028 9 3-3.285-.428-6.285-1.428-9-3z"/><path fill="#24367a" d="M361.5 227.5c2.715 1.572 5.715 2.572 9 3 1.171.845 2.505 1.511 4 2l1 6c2.87-.252 5.203.748 7 3 1.333 1.667 1.333 3.333 0 5a9.86 9.86 0 006 1v4h3a16.339 16.339 0 012 5c-.09 2.652.576 4.985 2 7 .375 2.198 1.042 4.198 2 6a1142.598 1142.598 0 011 64h-110a758.256 758.256 0 012-74 52.082 52.082 0 014.5-12c1.049-2.118 2.549-3.784 4.5-5 4.002-2.339 7.335-5.339 10-9 1.621-1.617 3.621-2.784 6-3.5 15.09-4.933 30.423-5.766 46-2.5z"/><path fill="#454d7c" d="M309.5 233.5c-2.665 3.661-5.998 6.661-10 9 2.639-3.632 5.972-6.632 10-9z"/><path fill="#313e76" d="M374.5 232.5c8.168 4.164 13.834 10.497 17 19h-3v-4a9.86 9.86 0 01-6-1c1.333-1.667 1.333-3.333 0-5-1.797-2.252-4.13-3.252-7-3l-1-6z"/><path fill="#363760" d="M98.5 264.5a27.162 27.162 0 00-3-5c.236-2.726-.597-5.059-2.5-7-1.27 1.405-1.77 3.071-1.5 5-1.574 1.602-2.24 3.602-2 6-1.406.473-2.073 1.473-2 3v2h-1c-.239-3.415.428-6.581 2-9.5-.625-1.841-.792-3.674-.5-5.5 2.159 2.456 2.992 1.79 2.5-2 1.644-.214 3.144.12 4.5 1 2.05 3.761 3.218 7.761 3.5 12z"/><path fill="#b58d63" d="M95.5 259.5a44.093 44.093 0 01-2-3c-.683.363-1.35.696-2 1-.27-1.929.23-3.595 1.5-5 1.903 1.941 2.736 4.274 2.5 7z"/><path fill="#656a96" d="M393.5 256.5c1.037 1.43 1.704 3.097 2 5v2c-1.424-2.015-2.09-4.348-2-7z"/><path fill="#c59761" d="M91.5 257.5c.24 2.398-.426 4.398-2 6-.24-2.398.426-4.398 2-6z"/><path fill="#846e57" d="M89.5 263.5c.073 1.527-.594 2.527-2 3-.073-1.527.594-2.527 2-3z"/><path fill="#cba05e" d="M95.5 259.5a27.162 27.162 0 013 5l4 15c-2.089-3.715-3.922-7.715-5.5-12a34.084 34.084 0 01-1.5-8z"/><path fill="#c5c5e5" d="M395.5 261.5c1.54 2.338 2.206 5.005 2 8-.958-1.802-1.625-3.802-2-6v-2z"/><path fill="#ba8e65" d="M86.5 268.5h1c.24 2.398-.426 4.398-2 6a19.24 19.24 0 011-6z"/><path fill="#343f73" d="M290.5 259.5a758.256 758.256 0 00-2 74 784.68 784.68 0 01-1-56c.254-6.25 1.254-12.25 3-18z"/><path fill="#ba9360" d="M85.5 274.5a90.987 90.987 0 01-2.5 10c-.383.556-.883.889-1.5 1v-2a56.618 56.618 0 014-9z"/><path fill="#313662" d="M98.5 264.5c.98 1.265 1.979 2.599 3 4a224.348 224.348 0 005 16 342.787 342.787 0 0137 1h-38c-.333-1-1-1.667-2-2 .268-1.599-.066-2.932-1-4l-4-15z"/><path fill="#3b3642" d="M81.5 283.5v3h-39a404.045 404.045 0 0039-3z"/><path fill="#f6b333" d="M95.5 259.5a34.084 34.084 0 001.5 8c1.578 4.285 3.411 8.285 5.5 12 .934 1.068 1.268 2.401 1 4-.073 1.527.594 2.527 2 3v1a386.75 386.75 0 0028 1.5c-2.404.508-3.071 1.675-2 3.5-.346 1.196-.846 1.196-1.5 0a4.934 4.934 0 00-.5 3l-2 3c-.992-.172-1.658.162-2 1-1.527-.073-2.527.594-3 2-2.249.58-3.915 1.913-5 4-.992-.172-1.658.162-2 1-1.193.47-1.86 1.47-2 3-.16 1.855.507 3.188 2 4v2c.525 4.033 1.858 7.7 4 11v1a5.727 5.727 0 001 3 51.569 51.569 0 001 7h-3c-2.25-3.089-5.25-5.089-9-6-.992.172-1.658-.162-2-1-.978-2.825-2.978-4.158-6-4 .195-4.621-1.972-6.621-6.5-6-1.986.069-3.486.735-4.5 2l-3 2a78.558 78.558 0 00-11 4.5c.752.671 1.086 1.504 1 2.5-1.527-.073-2.527.594-3 2-1.527-.073-2.527.594-3 2-2.356 1.075-4.689 1.075-7 0a66.12 66.12 0 005-15c2.524-2.739 3.524-6.072 3-10 2.071-4.631.405-6.965-5-7-.992.172-1.658-.162-2-1-1.096-3.273-3.43-4.939-7-5-1.562-.233-2.895-.9-4-2-1.022-2.355-2.688-4.022-5-5-.11-.617-.444-1.117-1-1.5a538.89 538.89 0 0033-1.5v-2c.617-.111 1.117-.444 1.5-1a90.987 90.987 0 002.5-10c1.574-1.602 2.24-3.602 2-6v-2c1.406-.473 2.073-1.473 2-3 1.574-1.602 2.24-3.602 2-6 .65-.304 1.317-.637 2-1a44.093 44.093 0 002 3z"/><path fill="#ab8251" d="M103.5 283.5c1 .333 1.667 1 2 2v1c-1.406-.473-2.073-1.473-2-3z"/><path fill="#3d3b45" d="M105.5 286.5v-1h38c.343 1.983-.324 3.317-2 4v-1c.543-.06.876-.393 1-1a343.225 343.225 0 00-37-1z"/><path fill="#b69b77" d="M42.5 286.5h39v1c-12.38-.646-24.38.021-36 2a6.544 6.544 0 01-3-3z"/><path fill="#af9a72" d="M105.5 287.5v-1a343.225 343.225 0 0137 1c-.124.607-.457.94-1 1-11.822-.995-23.822-1.328-36-1z"/><path fill="#e9b452" d="M81.5 287.5a538.869 538.869 0 01-33 1.5c.556.383.89.883 1 1.5h-2c-.992.172-1.658-.162-2-1 11.62-1.979 23.62-2.646 36-2z"/><path fill="#edb148" d="M105.5 287.5c12.178-.328 24.178.005 36 1v1c-.992-.172-1.658.162-2 1-2.132.054-3.465 1.054-4 3l-6 2a4.934 4.934 0 01.5-3c.654 1.196 1.154 1.196 1.5 0-1.071-1.825-.404-2.992 2-3.5a386.75 386.75 0 01-28-1.5z"/><path fill="#bc9059" d="M47.5 290.5h2c2.312.978 3.978 2.645 5 5-2.87-.933-5.204-2.6-7-5z"/><path fill="#c4c5e7" d="M237.5 259.5a2248.913 2248.913 0 00-3 82v-60c-.061-7.609.939-14.942 3-22z"/><path fill="#65525d" d="M139.5 290.5c-.535 1.946-1.868 2.946-4 3 .535-1.946 1.868-2.946 4-3z"/><path fill="#505688" d="M234.5 281.5v60a5.727 5.727 0 00-3 1 1003.27 1003.27 0 003-61z"/><path fill="#675160" d="M135.5 293.5c.131.876-.202 1.543-1 2a43.859 43.859 0 00-7 3l2-3 6-2z"/><path fill="#373a5c" d="M54.5 295.5c1.105 1.1 2.438 1.767 4 2a28.061 28.061 0 005 5c-4.515-.452-7.515-2.785-9-7z"/><path fill="#d09f5a" d="M58.5 297.5c3.57.061 5.904 1.727 7 5h-2a28.061 28.061 0 01-5-5z"/><path fill="#836956" d="M125.5 299.5c-.473 1.406-1.473 2.073-3 2 .473-1.406 1.473-2.073 3-2z"/><path fill="#61555d" d="M122.5 301.5c-1.085 2.087-2.751 3.42-5 4 1.085-2.087 2.751-3.42 5-4z"/><path fill="#c7965c" d="M67.5 303.5c5.405.035 7.071 2.369 5 7a4.932 4.932 0 00-.5-3c-1.992-.828-3.492-2.161-4.5-4z"/><path fill="#34366c" d="M63.5 302.5h2c.342.838 1.008 1.172 2 1 1.008 1.839 2.508 3.172 4.5 4 .483.948.65 1.948.5 3-1.525 3.083-2.525 6.416-3 10h-1c-.12-3.847.547-7.514 2-11-1.643-.02-2.976.647-4 2a18.208 18.208 0 00-4-5 6.846 6.846 0 001-4z"/><path fill="#745856" d="M115.5 306.5c-1.186 2.292-1.186 4.626 0 7-1.493-.812-2.16-2.145-2-4 .14-1.53.807-2.53 2-3z"/><path fill="#d5a555" d="M72.5 310.5c.524 3.928-.476 7.261-3 10 .475-3.584 1.475-6.917 3-10z"/><path fill="#9c825c" d="M115.5 315.5c2.142 3.3 3.475 6.967 4 11-2.142-3.3-3.475-6.967-4-11z"/><path fill="#e5ac48" d="M101.5 326.5c-.992.172-1.658-.162-2-1-1.403-1.431-3.07-2.598-5-3.5-1.428-.579-2.762-.412-4 .5 1.014-1.265 2.514-1.931 4.5-2 4.528-.621 6.695 1.379 6.5 6z"/><path fill="#5a4b59" d="M99.5 325.5c-2.316-.66-4.649-1.327-7-2a319.756 319.756 0 01-5 2v-1l3-2c1.238-.912 2.572-1.079 4-.5 1.93.902 3.597 2.069 5 3.5z"/><path fill="#423d5a" d="M68.5 320.5c-.435 2.657-1.435 4.991-3 7 .052-2.846 1.052-5.18 3-7z"/><path fill="#dfa957" d="M87.5 324.5v1c-1.527-.073-2.527.594-3 2a36.608 36.608 0 00-7 4c.086-.996-.248-1.829-1-2.5a78.558 78.558 0 0111-4.5z"/><path fill="#c69f5b" d="M101.5 326.5c3.022-.158 5.022 1.175 6 4a18.478 18.478 0 01-6-4z"/><path fill="#443e65" d="M84.5 327.5v3c-3.052.072-5.72 1.072-8 3l1-2a36.608 36.608 0 017-4z"/><path fill="#7a6157" d="M119.5 327.5c1.406.473 2.073 1.473 2 3h-1a5.727 5.727 0 01-1-3z"/><path fill="#8c6b57" d="M77.5 331.5l-1 2h-2c.473-1.406 1.473-2.073 3-2z"/><path fill="#6d7599" d="M287.5 277.5a784.68 784.68 0 001 56h110a3137.289 3137.289 0 01-112 1 813 813 0 011-57z"/><path fill="#8f6c5c" d="M74.5 333.5c-.473 1.406-1.473 2.073-3 2 .473-1.406 1.473-2.073 3-2z"/><path fill="#c49a63" d="M109.5 331.5c3.75.911 6.75 2.911 9 6h-2c-2.839-1.306-5.172-3.306-7-6z"/><path fill="#ce9f5b" d="M68.5 320.5h1a66.12 66.12 0 01-5 15c2.311 1.075 4.644 1.075 7 0a35.377 35.377 0 01-6 4c-1.333 0-2-.667-2-2a51.648 51.648 0 011-7c.904-.709 1.237-1.709 1-3 1.565-2.009 2.565-4.343 3-7z"/><path fill="#d7a761" d="M120.5 330.5h1a21.17 21.17 0 002 7c.219 1.175-.114 2.175-1 3-1.761-.535-3.094-1.535-4-3h3a51.569 51.569 0 01-1-7z"/><path fill="#b59577" d="M63.5 337.5c0 1.333.667 2 2 2v1c-4.29 1.379-4.956.379-2-3z"/><path fill="#3a3c69" d="M64.5 330.5a51.648 51.648 0 00-1 7c-2.956 3.379-2.29 4.379 2 3-.47 1.193-1.47 1.86-3 2-1.611.538-2.944.538-4 0 1.648-4.344 3.648-8.344 6-12z"/><path fill="#61566b" d="M116.5 337.5h2c.906 1.465 2.239 2.465 4 3 .886-.825 1.219-1.825 1-3 1.713 1.135 2.38 2.802 2 5a8.43 8.43 0 01-4-.5c-2.267-.894-3.934-2.394-5-4.5z"/><path fill="#243579" d="M1361.5 343.5c19.48-2.349 35.31 3.984 47.5 19 14.93 26.437 10.43 48.937-13.5 67.5-23.43 11.178-43.93 7.345-61.5-11.5-8.94-14.679-10.94-30.346-6-47 6.91-14.462 18.08-23.795 33.5-28z" opacity=".99"/><path fill="#424054" d="M1381.5 367.5c-1.94-.65-3.94-.983-6-1-4.54-1.244-9.2-1.244-14 0 .11-.617.44-1.117 1-1.5 6.03-.83 12.03-.664 18 .5.36.683.7 1.35 1 2z"/><path fill="#c89a5f" d="M1375.5 366.5c-3.35-.165-6.68.002-10 .5a17.419 17.419 0 01-8 3.5c.33-.667.67-1.333 1-2 1.21-.432 2.21-1.099 3-2 4.8-1.244 9.46-1.244 14 0z"/><path fill="#f8b235" d="M1375.5 366.5c3.33 2.016 6.99 3.683 11 5 2.34 3.382 4.67 6.715 7 10v1c.13 5.703-.21 11.37-1 17-.61.891-.94 1.891-1 3v1a25.772 25.772 0 00-6 6c-2.32 1.777-4.99 2.777-8 3-5.37.108-10.7-.225-16-1h-1c-.84-2.259-2.51-3.259-5-3-.67-1-1.33-2-2-3a67.968 67.968 0 00-5-16.5c.23-2.619.89-5.119 2-7.5a70.415 70.415 0 007-11 17.419 17.419 0 008-3.5c3.32-.498 6.65-.665 10-.5z"/><path fill="#dda558" d="M1375.5 366.5c2.06.017 4.06.35 6 1a21.489 21.489 0 015 4c-4.01-1.317-7.67-2.984-11-5z"/><path fill="#665858" d="M1358.5 368.5c-.33.667-.67 1.333-1 2h-2c.47-1.406 1.47-2.073 3-2z"/><path fill="#3f3b64" d="M114.5 371.5c-1.32-1.442-2.986-2.108-5-2v5c-1.406.473-2.073 1.473-2 3v2h-1a67.602 67.602 0 012-12h6v4z"/><path fill="#443e5c" d="M114.5 372.5c1.844 1.779 2.51 4.112 2 7l-2-4v-3z"/><path fill="#cfa15d" d="M1386.5 371.5c1.33 1 2.67 2 4 3 .33.667.67 1.333 1 2-.07 1.527.59 2.527 2 3v2a1047.06 1047.06 0 01-7-10z"/><path fill="#ae936b" d="M114.5 371.5v4a19.602 19.602 0 01-2-3.5c-1.316-.528-1.983-.028-2 1.5h-1v-4c2.014-.108 3.68.558 5 2z"/><path fill="#956e56" d="M109.5 374.5c.073 1.527-.594 2.527-2 3-.073-1.527.594-2.527 2-3z"/><path fill="#dea857" d="M109.5 373.5h1c.1 2.608-.567 4.942-2 7a47.805 47.805 0 01-5 11 46.86 46.86 0 012-9c1.406-.473 2.073-1.473 2-3v-2c1.406-.473 2.073-1.473 2-3v-1z"/><path fill="#333a61" d="M1390.5 374.5c1.08.039 2.08.373 3 1a28.869 28.869 0 012 8h-1c0-.667-.33-1-1-1v-3c.07-1.527-.59-2.527-2-3-.33-.667-.67-1.333-1-2z"/><path fill="#d8a355" d="M1355.5 370.5h2a70.415 70.415 0 01-7 11 22.202 22.202 0 00-2 7.5 67.968 67.968 0 015 16.5l-3-2c-1.15-2.979-2.32-5.979-3.5-9a36.38 36.38 0 01.5-12c1.41-.473 2.07-1.473 2-3 1.25-3.487 3.25-6.487 6-9z"/><path fill="#67594f" d="M1391.5 376.5c1.41.473 2.07 1.473 2 3-1.41-.473-2.07-1.473-2-3z"/><path fill="#745d54" d="M106.5 379.5h1c.073 1.527-.594 2.527-2 3a5.727 5.727 0 011-3z"/><path fill="#4d4655" d="M116.5 379.5c3.633 4.62 5.633 9.954 6 16h-1c-1.661-5.303-3.328-10.637-5-16z"/><path fill="#7a6260" d="M1349.5 379.5c.07 1.527-.59 2.527-2 3-.07-1.527.59-2.527 2-3z"/><path fill="#deab5c" d="M1393.5 382.5c.67 0 1 .333 1 1 .17 4.346 0 8.679-.5 13-.23 1.237-.73 2.237-1.5 3 .79-5.63 1.13-11.297 1-17z"/><path fill="#f5b335" d="M145.5 412.5c-1.406.473-2.073 1.473-2 3-1.562.233-2.895.9-4 2-1.527-.073-2.527.594-3 2-5.017 1.391-6.017 4.058-3 8v2a91.768 91.768 0 007 22c-.247 1.213-.914 1.88-2 2-2.092-4.047-5.425-6.047-10-6-.667 0-1-.333-1-1-.762-1.762-2.096-2.762-4-3-1.902-3.557-4.902-5.557-9-6-2.968-1.342-5.302-.675-7 2-3.349.669-6.016 2.336-8 5-1.653.16-2.986.826-4 2a30.388 30.388 0 00-10.5 5 2.427 2.427 0 01-.5-2c.204-3.018.537-6.018 1-9v-1c1.406-.473 2.073-1.473 2-3v-1c1.037-1.43 1.704-3.097 2-5v-1c1.885-2.295 2.385-4.962 1.5-8-.816-1.323-1.983-1.989-3.5-2h-1c-1.085-2.087-2.751-3.42-5-4-1.476-4.078-4.476-6.078-9-6-1.527.073-2.527-.594-3-2 .086-.996-.248-1.829-1-2.5-1.544-.29-2.877-.956-4-2a605 605 0 0035-1.5 31.686 31.686 0 002-6v-1c1.406-.473 2.073-1.473 2-3a47.805 47.805 0 005-11c1.747-.093 3.581-.426 5.5-1a43.073 43.073 0 012 9 99.932 99.932 0 017.5 14.5l30 1c.457.414.791.914 1 1.5-2.398 2.699-5.398 4.033-9 4v3z"/><path fill="#92705f" d="M103.5 391.5c.073 1.527-.594 2.527-2 3-.073-1.527.594-2.527 2-3z"/><path fill="#725e57" d="M1394.5 383.5h1a97.7 97.7 0 01-.5 14c-.22 2.381-1.39 4.047-3.5 5 .06-1.109.39-2.109 1-3 .77-.763 1.27-1.763 1.5-3 .5-4.321.67-8.654.5-13z"/><path fill="#7b6453" d="M121.5 395.5h1c.61.891.943 1.891 1 3-1.406-.473-2.073-1.473-2-3z"/><path fill="#604f5d" d="M101.5 395.5a31.686 31.686 0 01-2 6c-13.044-.647-25.71.02-38 2-.904-.709-1.237-1.709-1-3 12.671.167 25.338 0 38-.5.553-1.878 1.553-3.378 3-4.5z"/><path fill="#51475c" d="M123.5 400.5h40c-.101 5.065-2.768 7.399-8 7 .333-1 1-1.667 2-2 1.312-.645 2.312-1.645 3-3a324.95 324.95 0 00-36-1c-.667 0-1-.333-1-1z"/><path fill="#c7985d" d="M99.5 401.5a605 605 0 01-35 1.5c1.123 1.044 2.456 1.71 4 2 .752.671 1.086 1.504 1 2.5a28.456 28.456 0 01-8-4c12.29-1.98 24.956-2.647 38-2z"/><path fill="#c59859" d="M124.5 401.5a324.95 324.95 0 0136 1c-.688 1.355-1.688 2.355-3 3-.086-.996.248-1.829 1-2.5a570.642 570.642 0 01-34-1.5z"/><path fill="#ebaf48" d="M114.5 375.5l2 4c1.672 5.363 3.339 10.697 5 16-.073 1.527.594 2.527 2 3v2c0 .667.333 1 1 1a570.642 570.642 0 0034 1.5c-.752.671-1.086 1.504-1 2.5-1 .333-1.667 1-2 2a59.562 59.562 0 00-9 5h-1v-3c3.602.033 6.602-1.301 9-4a3.647 3.647 0 00-1-1.5l-30-1a99.932 99.932 0 00-7.5-14.5 43.073 43.073 0 00-2-9c-1.919.574-3.753.907-5.5 1 1.433-2.058 2.1-4.392 2-7 .017-1.528.684-2.028 2-1.5a19.602 19.602 0 002 3.5z"/><path fill="#625353" d="M1391.5 403.5c-1 3-3 5-6 6a25.772 25.772 0 016-6z"/><path fill="#c39a58" d="M1355.5 408.5c2.49-.259 4.16.741 5 3-1.93-.61-3.6-1.61-5-3z"/><path fill="#d6a256" d="M72.5 410.5v-1c4.524-.078 7.524 1.922 9 6a59.572 59.572 0 01-9-5z"/><path fill="#383769" d="M1350.5 403.5l3 2c.67 1 1.33 2 2 3 1.4 1.39 3.07 2.39 5 3h1c1.01 1.174 2.35 1.84 4 2 3.46.982 7.13 1.315 11 1-1.55 1.294-3.55 1.961-6 2a191.197 191.197 0 00-18-4.5 22.741 22.741 0 01-2-8.5z"/><path fill="#e0ac58" d="M1361.5 411.5c5.3.775 10.63 1.108 16 1-3.8.983-7.8 1.317-12 1-1.65-.16-2.99-.826-4-2z"/><path fill="#967564" d="M145.5 412.5h1l-1 2-2 1c-.073-1.527.594-2.527 2-3z"/><path fill="#474160" d="M155.5 407.5v3a51.733 51.733 0 00-10 4l1-2a59.562 59.562 0 019-5z"/><path fill="#564b66" d="M1385.5 409.5c-1.38 4.19-4.38 5.857-9 5-3.87.315-7.54-.018-11-1 4.2.317 8.2-.017 12-1 3.01-.223 5.68-1.223 8-3z"/><path fill="#a17d57" d="M81.5 415.5c2.249.58 3.915 1.913 5 4-2.249-.58-3.915-1.913-5-4z"/><path fill="#363764" d="M72.5 410.5a59.572 59.572 0 009 5c1.085 2.087 2.751 3.42 5 4h1l2 3c-2.757-1.586-5.757-2.586-9-3v-3c-2.549.059-4.549-.941-6-3-.806 2.862-2.14 3.362-4 1.5 1.537-1.11 2.204-2.61 2-4.5z"/><path fill="#836654" d="M139.5 417.5c-.473 1.406-1.473 2.073-3 2 .473-1.406 1.473-2.073 3-2z"/><path fill="#644c53" d="M136.5 419.5c-2.484 2.045-3.484 4.712-3 8-3.017-3.942-2.017-6.609 3-8z"/><path fill="#95725c" d="M87.5 419.5c1.517.011 2.684.677 3.5 2 .885 3.038.385 5.705-1.5 8 .603-2.541.603-4.874 0-7l-2-3z"/><path fill="#7f6e54" d="M89.5 430.5c-.296 1.903-.963 3.57-2 5-.38-2.198.287-3.865 2-5z"/><path fill="#594451" d="M114.5 437.5v1c-2.45-.202-4.783.131-7 1 1.698-2.675 4.032-3.342 7-2z"/><path fill="#866a57" d="M87.5 436.5c.073 1.527-.594 2.527-2 3-.073-1.527.594-2.527 2-3z"/><path fill="#d19f59" d="M114.5 438.5v-1c4.098.443 7.098 2.443 9 6a59.562 59.562 0 01-9-5z"/><path fill="#5a4d59" d="M107.5 439.5c-1.703 3.132-4.37 4.799-8 5 1.984-2.664 4.651-4.331 8-5z"/><path fill="#b08a5a" d="M123.5 443.5c1.904.238 3.238 1.238 4 3-1.904-.238-3.238-1.238-4-3z"/><path fill="#4b4162" d="M99.5 444.5c-1.06 3.269-3.393 4.935-7 5a10.177 10.177 0 013-3c1.014-1.174 2.347-1.84 4-2z"/><path fill="#d8a457" d="M128.5 447.5c4.575-.047 7.908 1.953 10 6-1.562-.233-2.895-.9-4-2-.473-1.406-1.473-2.073-3-2-1.21-.432-2.21-1.099-3-2z"/><path fill="#e7ad52" d="M95.5 446.5a10.177 10.177 0 00-3 3c-1.527-.073-2.527.594-3 2-2.319.492-4.319 1.492-6 3-1.178-1.838-.845-3.505 1-5a2.427 2.427 0 00.5 2c3.158-2.333 6.658-4 10.5-5z"/><path fill="#8c6b53" d="M131.5 449.5c1.527-.073 2.527.594 3 2-1.527.073-2.527-.594-3-2z"/><path fill="#c69e69" d="M85.5 440.5a104.578 104.578 0 00-1 9c-1.845 1.495-2.178 3.162-1 5v1c-.996-.086-1.83.248-2.5 1a62.84 62.84 0 014.5-16z"/><path fill="#c89b62" d="M133.5 429.5c.617.111 1.117.444 1.5 1 1.705 7.713 4.205 15.046 7.5 22 .215 1.679-.452 2.679-2 3-1-.333-1.667-1-2-2 1.086-.12 1.753-.787 2-2a91.768 91.768 0 01-7-22z"/><path fill="#635259" d="M89.5 451.5c-1.302 2.322-3.302 3.655-6 4v-1c1.681-1.508 3.681-2.508 6-3z"/><path fill="#836a71" d="M142.5 452.5c1.288 1.535 1.288 3.201 0 5-1.022-.355-1.689-1.022-2-2 1.548-.321 2.215-1.321 2-3z"/></svg>