<svg xmlns="http://www.w3.org/2000/svg" viewBox="0 0 2421 743"><path fill="#FFF" d="M1 78V1.004l2420.915-.001v742.886H1c0-69.664 0-139.325.384-209.265.8 3.131.853 6.632 1.693 9.933C8.59 566.19 27.8 582.062 50.334 582.03c62.664-.087 125.328-.03 187.991-.03H244v-5.92c0-28.665 0-57.33.002-85.995 0-3.329-.567-6.789.137-9.964 3.673-16.574 10.7-31.776 24.964-41.428 8.375-5.668 9.679-11.98 9.677-20.974-.006-28.934.43-57.885 1.55-86.796.518-13.4 4.667-26.224 10.814-38.304 8.273-16.258 20.387-28.564 36.597-36.99 21.4-11.124 44.675-14.193 68.186-15.236 13.652-.605 27.404.968 41.109 1.608 14.107.659 27.578 4.267 40.3 10.105 21.295 9.77 37.91 24.735 47.092 46.682 5.338 12.758 7.665 26.41 8.485 40.183.74 12.403.923 24.848 1.045 37.277.167 16.83.119 33.665-.027 50.496-.027 3.16.82 4.918 3.65 6.723 20.72 13.214 31.56 32.227 31.782 56.86.237 26.33.053 52.663.053 78.995v12.974c6.343-2.986 11.785-4.948 16.596-7.927 14.27-8.837 22.794-21.95 22.824-38.655.28-152.825.173-305.651.105-458.477-.002-3.39-.464-6.908-1.432-10.151-7.017-23.51-26.304-36.933-49.017-36.964-168.658-.226-337.317-.206-505.974.132-8.144.016-16.945 2.39-24.277 6.017C14.098 43.27 5.694 55.611 2.07 71.03 1.533 73.31 1.348 75.674 1 78m339.228 270.953v74.398H471.6c.22-.666.52-1.13.504-1.581-1.122-30.949 3.161-62.101-3.11-92.845-4.236-20.77-13.987-36.115-38.14-40.693-11.409-2.163-23.355-2.248-35.03-1.993-7.608.167-15.55 1.61-22.674 4.272-20.86 7.795-34.367 31.646-32.98 57.013.077.17.154.34.057 1.429M1304 318.5v225.023c17.34 1.866 34.066 4.004 50.854 5.37 14.306 1.163 28.68 1.866 43.032 1.995 16.583.149 33.18-.39 49.76-.955 8.69-.296 17.465-.656 26.014-2.1 14.676-2.48 29.351-5.26 43.768-8.93 38.948-9.917 73.251-27.936 100.036-58.786 11.301-13.018 20.11-27.557 27.003-43.192 13.349-30.276 18.612-62.47 20.337-95.203.81-15.36.06-30.867-.958-46.242-.935-14.151-2.784-28.276-4.933-42.304-3.275-21.384-10.21-41.747-20.006-60.962-9.985-19.584-22.937-36.958-39.624-51.682-16.418-14.486-34.57-25.982-54.675-34.131-33.521-13.588-68.697-19.6-104.77-20.347-15.656-.324-31.324-.054-46.986-.054-3.333 0-6.683-.22-9.994.043-15.702 1.247-31.396 2.593-47.087 3.968-10.538.924-21.066 1.955-31.771 2.954V318.5m721.938 76.133l-16.426-52.64c-8.31-26.63-16.606-53.265-24.935-79.89-8.667-27.702-17.348-55.4-26.055-83.088-8.99-28.588-18.019-57.163-27.27-86.501-16.22-1.157-32.722-2.677-49.258-3.381-9.392-.4-18.85.37-28.26.924-6.53.384-13.044 1.17-19.533 2.02-3.61.473-6.056 1.988-7.328 6.196-7.279 24.079-15.006 48.022-22.56 72.018-7.941 25.228-15.838 50.471-23.793 75.696-8.148 25.834-16.364 51.646-24.513 77.48-7.812 24.763-15.54 49.552-23.369 74.309-8.071 25.522-16.24 51.012-24.331 76.528-6.92 21.827-13.8 43.667-20.659 65.513-.394 1.256-.444 2.62-.638 3.827 30.341 4.701 59.996 4.687 89.408-.043l25.828-90.444h147.512c3.436 12.39 6.836 24.664 10.244 36.937 4.662 16.789 9.295 33.586 14.063 50.344.376 1.323 1.58 3.262 2.614 3.41 8.73 1.25 17.5 2.887 26.276 2.994 16.914.207 33.846-.33 50.757-.94 6.098-.221 12.156-1.542 18.687-2.421-5.21-16.642-10.307-32.947-15.418-49.249-10.324-32.927-20.654-65.852-31.043-99.6m130.415 67.43l-38.786-12.5c-3.533 12.395-7.581 25.158-10.756 38.135-3.218 13.153-5.572 26.518-8.436 40.423 11.91 3.877 23.089 7.502 34.258 11.154 23.752 7.768 48.366 10.603 73.115 11.549 22.733.868 45.48.439 68.071-3.682 18.275-3.333 35.784-8.697 52.368-16.88 17.97-8.868 33.31-21.135 45.96-36.824 16.848-20.898 25.701-45.04 27.58-71.39 1.203-16.866 1.012-33.914-2.606-50.782-6.025-28.09-19.45-51.074-43.547-67.358-20.686-13.979-43.877-22.657-66.814-31.91-17.945-7.24-35.955-14.347-53.67-22.116-9.47-4.153-17.102-11.178-21.834-20.462-6.078-11.925-5.57-24.613-2.276-37.242 2.953-11.324 10.139-19.006 20.496-24.422 11.69-6.112 24.395-7.224 36.947-7.476 12.91-.258 25.977.98 38.766 2.932 12.078 1.843 23.984 5.11 35.775 8.428 7.677 2.16 15.013 5.53 22.4 8.32 9.996-20.633 15.76-42.268 19.594-64.471 1.221-7.071.368-8.38-6.407-10.462-6.012-1.848-12.112-3.41-18.117-5.28-31.127-9.684-62.906-14.871-95.568-13.705-11.853.423-23.807.494-35.503 2.188a173.058 173.058 0 00-43.708 12.345c-19.2 8.258-35.554 20.148-48.168 36.643-16.749 21.903-23.572 47.45-24.332 74.615-.288 10.316.058 20.914 2.14 30.964 2.434 11.746 5.737 23.703 11.053 34.378 9.993 20.068 26.69 34.313 46.77 43.614 21.489 9.955 43.77 18.197 65.683 27.242 14.443 5.962 29.496 10.606 42.362 19.963 8.083 5.88 13.964 13.28 18.09 22.45 4.305 9.575 4.554 19.616 3.447 29.457-.787 7.005-3.483 14.154-6.832 20.437-6.72 12.61-18.82 18.9-31.659 23.62-11.075 4.073-22.624 6.014-34.453 6.036-10.847.021-21.8.931-32.514-.27-12.842-1.44-25.479-4.704-38.889-7.66m-1105.81-131.026c-2.743-16.006-7.25-31.532-14.646-45.969-9.1-17.76-21.248-33.063-37.413-45.275-22.19-16.764-47.085-25.935-74.569-27.62-15.937-.978-31.921-.262-47.803 2.712-25.642 4.8-48.363 15.6-67.897 32.6-15.554 13.536-27.377 30.084-36.127 48.914-12.518 26.94-17.03 55.517-17.936 84.795-.299 9.652.54 19.457 1.998 29.018 2.07 13.59 4.205 27.307 8.058 40.458 10.008 34.16 30.702 60.516 61.65 78.212 26.229 14.996 55.178 20.773 84.999 21.987 22.093.9 44.146-.308 66.09-3.755 18.774-2.95 37.12-7.128 54.919-13.894 3.147-1.197 3.339-2.733 3.092-5.043-.537-5.02-1.353-10.008-1.94-15.022-1.904-16.245-7.06-31.487-13.989-46.214-1.255-2.667-2.371-3.407-5.546-2.239-20.798 7.655-42.388 12.486-64.403 14.028-16.546 1.16-33.376 1.514-49.747-2.77-23.784-6.224-43.303-17.854-51.505-42.71-2.536-7.684-3.787-15.792-5.753-24.25h202.462c1.167 0 2.478.333 3.463-.091 1.144-.493 2.75-1.56 2.867-2.534.89-7.319 2.118-14.687 2.002-22.02-.278-17.516-1.236-35.02-2.326-53.318M1161.515 547l54.3-2.157V93.43c-31.943-6.375-74.679-4.556-92.45.346v450.426c12.613.95 24.885 1.874 38.15 2.798z"/><path fill="#2C4375" d="M1 78.469c.348-2.795.533-5.159 1.07-7.44C5.694 55.61 14.098 43.269 28.24 36.27c7.332-3.627 16.133-6.001 24.277-6.017 168.657-.338 337.316-.358 505.974-.132 22.713.031 42 13.455 49.017 36.964.968 3.243 1.43 6.76 1.432 10.151.068 152.826.174 305.652-.105 458.477-.03 16.704-8.553 29.818-22.824 38.655-4.811 2.98-10.253 4.94-16.596 7.927v-12.974c0-26.332.184-52.666-.053-78.995-.222-24.633-11.061-43.646-31.782-56.86-2.83-1.805-3.677-3.563-3.65-6.723.146-16.83.194-33.665.027-50.496-.122-12.43-.306-24.874-1.045-37.277-.82-13.772-3.147-27.425-8.485-40.183-9.182-21.947-25.797-36.912-47.092-46.682-12.722-5.838-26.193-9.446-40.3-10.105-13.705-.64-27.457-2.213-41.11-1.608-23.51 1.043-46.784 4.112-68.185 15.236-16.21 8.426-28.324 20.732-36.597 36.99-6.147 12.08-10.296 24.904-10.815 38.304-1.12 28.911-1.555 57.862-1.55 86.796.003 8.994-1.3 15.306-9.676 20.974-14.264 9.652-21.291 24.854-24.964 41.428-.704 3.175-.137 6.635-.137 9.964L244 576.08V582h-5.675c-62.663 0-125.327-.058-187.99.03-22.535.03-41.746-15.841-47.258-37.474-.84-3.3-.892-6.802-1.693-10.384C1 382.313 1 230.625 1 78.47m288.103 52.472c.03-.248.168-.646.07-.716a1.652 1.652 0 00-.906-.28c-15.044-.08-30.087-.146-45.262-.934-4.479-12.784-8.957-25.568-13.94-39.787-5.037 14.407-9.61 27.483-15.095 40.697-14.297.024-28.595.037-42.892.12-.517.003-1.03.692-1.068 1.584 10.537 7.004 20.99 14.138 31.66 20.932 3.16 2.012 3.804 3.893 2.511 7.336-3.798 10.116-7.298 20.344-10.898 30.534-.5 1.416-.905 2.865-1.498 4.761 1.158-.354 1.516-.381 1.777-.555 7.481-4.985 14.937-10.008 22.432-14.972 4.289-2.841 8.627-7.75 12.964-7.773 4.32-.024 8.71 4.831 12.993 7.663 7.847 5.187 15.637 10.459 24.47 16.38-.797-2.774-1.16-4.343-1.696-5.852-3.506-9.87-6.837-19.81-10.684-29.545-1.611-4.08-.692-6.097 2.879-8.378 10.652-6.803 21.048-14.006 32.183-21.215m104.515-33.589L379.55 57.557c-5.035 14.03-9.779 27.249-15.464 40.448H319.59l-.103.933a54.32 54.32 0 012.143 1.374l34.544 23.284-14.365 40.75 37.688-25.167 35.93 23.886 1.13-.659-13.611-38.783c11.863-8 23.448-15.812 35.722-23.809 1.206-3.207-1.575-1.728-2.366-1.735-14.103-.114-28.207-.091-42.685-.727M97.06 366.994c-10.703.074-21.406.149-33.013.07H51.244L89.27 392.36l-14.481 40.42c2.241-1.304 3.52-1.958 4.706-2.75 9.54-6.375 19.15-12.65 28.541-19.238 3.122-2.19 5.388-2.711 8.703-.2 5.823 4.41 12.074 8.258 18.158 12.323 4.824 3.224 9.667 6.42 15.39 10.22l-14.413-40.81 37.863-25.188c-5.206 0-8.967 0-13.66-.118-11.029.047-22.058.095-33.74-.272l-13.65-40.666c-5.182 14.424-9.935 27.652-15.625 40.914m43.612-136.691l-13.975-39.629c-4.866 13.881-9.318 26.585-14.485 39.72-1.777.203-3.553.573-5.331.58-12.05.052-24.1-.003-36.15.075-1.232.008-2.459.668-3.396 1.619l36.024 24.122-14.103 39.685c1.99-.96 3.634-1.534 5.04-2.466 9.302-6.162 18.69-12.21 27.753-18.708 3.606-2.586 6.05-2.35 9.575.139 10.427 7.363 21.162 14.29 32.931 22.16l-14.588-40.905c12.036-7.985 23.946-15.889 36.509-24.131-1.388-.521-2.772-1.482-4.165-1.496-13.76-.133-27.521-.11-41.64-.765m51.676 271.959c-14.49-.07-28.98-.14-43.97-.727l-13.866-39.501c-5.02 13.834-9.756 26.888-15.433 39.962-11.774.002-23.548-.04-35.322.04-2.595.016-5.186.456-8.36.821-.195.025-.39.049-.976.277.182.297.363.594 1.178 1.138l35.587 23.764L96.933 567.6c2.269-1.078 3.911-1.638 5.313-2.562 7.355-4.848 14.643-9.799 21.967-14.696 10.383-6.942 10.36-6.894 20.61.08 8.718 5.932 17.51 11.753 27.448 18.414-4.765-13.36-8.955-25.37-13.375-37.294-.977-2.638-.754-4.075 1.743-5.675 11.191-7.17 22.245-14.555 33.77-21.98.09-.114.277-.293.251-.333-.145-.222-.342-.412-1.083-.696-.185-.04-.37-.08-1.23-.596m313.81-349.942c2.941 1.203 2.513 3.13 1.596 5.63-4.376 11.946-8.567 23.96-13.244 37.135 9.363-6.247 17.604-11.792 25.897-17.258 3.999-2.635 8.125-7.16 12.14-7.103 4.068.057 8.08 4.697 12.097 7.359 7.937 5.259 15.86 10.538 24.872 16.529-.779-2.897-1.094-4.496-1.635-6.014-3.458-9.704-6.754-19.476-10.561-29.043-1.588-3.99-.993-6.055 2.699-8.387 10.896-6.883 21.51-14.211 33.444-22.172-14.013 0-26.603-.395-39.15.17-6.028.272-8.657-1.494-10.364-7.317-3.223-10.986-7.407-21.69-11.601-33.686l-14.49 40.992h-46.545a16170.11 16170.11 0 0034.845 23.165z"/><path fill="#38373A" d="M1304 318V92.965c10.705-1 21.233-2.03 31.771-2.954 15.691-1.375 31.385-2.721 47.087-3.968 3.311-.263 6.661-.043 9.994-.043 15.662 0 31.33-.27 46.986.054 36.073.747 71.249 6.76 104.77 20.347 20.104 8.15 38.257 19.645 54.675 34.131 16.687 14.724 29.64 32.098 39.624 51.682 9.796 19.215 16.731 39.578 20.006 60.962 2.149 14.028 3.998 28.153 4.933 42.304 1.017 15.375 1.768 30.881.958 46.242-1.725 32.733-6.988 64.927-20.337 95.203-6.894 15.635-15.702 30.174-27.003 43.192-26.785 30.85-61.088 48.869-100.036 58.786-14.417 3.67-29.092 6.45-43.768 8.93-8.549 1.444-17.323 1.804-26.015 2.1-16.58.564-33.176 1.104-49.759.955-14.351-.129-28.726-.832-43.032-1.996-16.788-1.365-33.513-3.503-50.854-5.37V318m263 5.5c-.333-9.758-.393-19.535-1.08-29.268-.642-9.122-1.14-18.378-3.122-27.258-4.934-22.1-12.628-43.062-27.22-61.026-11.63-14.319-25.98-24.496-43.074-31.117-20.306-7.864-41.56-9.54-63.019-9.77-6.254-.066-12.519.554-18.772.956-4.522.292-9.034.744-13.552 1.125v303.063c9.568.603 19.023 1.503 28.492 1.698 7.415.152 14.88-.24 22.264-.983 10.043-1.01 20.135-2.058 30.02-4.027 21.948-4.372 40.701-14.517 55.515-31.734 10.764-12.51 18.23-26.717 23.565-42.161 7.666-22.19 10.054-45.17 9.983-69.499zm458.968 71.543c10.359 33.337 20.69 66.262 31.013 99.19 5.11 16.3 10.208 32.606 15.418 49.248-6.531.88-12.59 2.2-18.687 2.42-16.91.611-33.843 1.148-50.757.94-8.776-.106-17.547-1.744-26.276-2.993-1.034-.148-2.238-2.087-2.614-3.41-4.768-16.758-9.4-33.555-14.063-50.344-3.408-12.273-6.808-24.547-10.244-36.937h-147.512l-25.828 90.444c-29.412 4.73-59.067 4.744-89.408.043.194-1.207.244-2.571.638-3.827 6.86-21.846 13.738-43.686 20.659-65.513 8.09-25.516 16.26-51.006 24.331-76.528 7.83-24.757 15.557-49.546 23.369-74.309 8.149-25.834 16.365-51.646 24.513-77.48 7.955-25.225 15.852-50.468 23.793-75.696 7.554-23.996 15.281-47.94 22.56-72.018 1.272-4.208 3.718-5.723 7.328-6.196 6.489-.85 13.003-1.636 19.532-2.02 9.41-.553 18.869-1.325 28.26-.924 16.537.704 33.04 2.224 49.26 3.38 9.25 29.34 18.28 57.914 27.269 86.502a60096.53 60096.53 0 0126.055 83.088c8.33 26.625 16.625 53.26 24.935 79.89 5.476 17.546 10.95 35.093 16.456 53.05M1890 237.488l-12.325-45.12-.896.048-53.05 184.332h104.56c-2.764-9.973-5.454-19.593-8.096-29.225-5.079-18.522-10.096-37.061-15.204-55.575-4.934-17.887-9.95-35.75-14.99-54.46zm266.696 224.816c13.067 2.715 25.704 5.979 38.546 7.419 10.714 1.201 21.667.291 32.514.27 11.829-.022 23.378-1.963 34.453-6.035 12.839-4.721 24.938-11.011 31.659-23.62 3.349-6.284 6.045-13.433 6.832-20.438 1.107-9.84.858-19.882-3.448-29.456-4.125-9.171-10.006-16.572-18.09-22.45-12.865-9.358-27.918-14.002-42.36-19.964-21.914-9.045-44.195-17.287-65.685-27.242-20.079-9.3-36.776-23.546-46.769-43.614-5.316-10.675-8.62-22.632-11.053-34.378-2.082-10.05-2.428-20.648-2.14-30.964.76-27.165 7.583-52.712 24.332-74.615 12.614-16.495 28.968-28.385 48.168-36.643a173.058 173.058 0 0143.708-12.345c11.696-1.694 23.65-1.765 35.503-2.188 32.662-1.166 64.44 4.02 95.568 13.706 6.005 1.868 12.105 3.431 18.117 5.279 6.775 2.081 7.628 3.39 6.407 10.462-3.835 22.203-9.598 43.838-19.594 64.47-7.387-2.79-14.723-6.16-22.4-8.32-11.79-3.317-23.697-6.584-35.775-8.427-12.79-1.952-25.856-3.19-38.766-2.932-12.552.252-25.257 1.364-36.947 7.476-10.357 5.416-17.543 13.098-20.496 24.422-3.294 12.63-3.802 25.317 2.276 37.242 4.732 9.284 12.364 16.309 21.833 20.462 17.716 7.77 35.726 14.877 53.671 22.116 22.937 9.253 46.128 17.931 66.814 31.91 24.097 16.284 37.522 39.268 43.547 67.358 3.618 16.868 3.81 33.916 2.607 50.781-1.88 26.352-10.733 50.493-27.582 71.391-12.649 15.69-27.989 27.956-45.959 36.823-16.584 8.184-34.093 13.548-52.368 16.881-22.59 4.12-45.338 4.55-68.07 3.682-24.75-.946-49.364-3.781-73.116-11.549-11.17-3.652-22.347-7.277-34.258-11.154 2.864-13.905 5.218-27.27 8.436-40.423 3.175-12.977 7.223-25.74 10.756-38.136 13.388 4.315 26.087 8.409 39.129 12.743zM1050.746 331.43c.887 17.904 1.845 35.409 2.123 52.925.116 7.333-1.112 14.701-2.002 22.02-.118.974-1.723 2.04-2.867 2.534-.985.424-2.296.09-3.463.09L849.041 409h-6.966c1.966 8.458 3.217 16.566 5.753 24.25 8.202 24.856 27.721 36.486 51.505 42.71 16.371 4.284 33.201 3.93 49.747 2.77 22.015-1.542 43.605-6.373 64.403-14.028 3.175-1.168 4.29-.428 5.546 2.24 6.93 14.726 12.085 29.968 13.988 46.213.588 5.014 1.404 10.003 1.94 15.022.248 2.31.056 3.846-3.091 5.043-17.799 6.766-36.145 10.944-54.92 13.894-21.943 3.447-43.996 4.655-66.09 3.755-29.82-1.214-58.77-6.99-84.998-21.987-30.948-17.696-51.642-44.052-61.65-78.212-3.853-13.151-5.988-26.869-8.058-40.458-1.457-9.561-2.297-19.366-1.998-29.018.907-29.278 5.418-57.854 17.936-84.795 8.75-18.83 20.573-35.378 36.127-48.915 19.534-17 42.255-27.799 67.897-32.6 15.882-2.973 31.866-3.689 47.803-2.712 27.484 1.686 52.379 10.857 74.57 27.621 16.164 12.212 28.312 27.514 37.412 45.275 7.396 14.437 11.903 29.963 14.85 46.363M852.55 346h116.356c-4.037-51.56-34.45-71.973-77.262-64.06-25.924 4.791-51.93 39.671-46.965 64.06h7.87zm308.469 201c-12.769-.924-25.04-1.848-37.654-2.798V93.776c17.771-4.902 60.507-6.721 92.45-.346v451.413c-18.188.723-36.244 1.44-54.796 2.157z"/><path fill="#2C4375" d="M340.203 346.965c-1.42-24.808 12.088-48.66 32.948-56.454 7.124-2.662 15.066-4.105 22.675-4.272 11.674-.255 23.62-.17 35.03 1.993 24.152 4.578 33.903 19.923 38.14 40.693 6.27 30.744 1.987 61.896 3.109 92.845.016.452-.283.915-.504 1.581H340.228c0-24.918 0-49.658.237-74.972.07-.854-.096-1.134-.262-1.414z"/><path fill="#656991" d="M340.187 347.245c.182 0 .348.28.365.675-.227-.055-.304-.225-.365-.675z"/><path fill="#EFCC25" d="M505.846 152.134a31478.674 31478.674 0 01-34.534-22.979h46.546l14.489-40.992c4.194 11.996 8.378 22.7 11.6 33.686 1.708 5.823 4.337 7.59 10.364 7.318 12.548-.566 25.138-.171 39.151-.171-11.934 7.96-22.548 15.289-33.444 22.172-3.692 2.332-4.287 4.398-2.7 8.387 3.808 9.567 7.104 19.339 10.562 29.043.541 1.518.856 3.117 1.635 6.014-9.012-5.991-16.935-11.27-24.872-16.53-4.017-2.661-8.03-7.3-12.096-7.358-4.016-.057-8.142 4.468-12.14 7.103-8.294 5.466-16.535 11.011-25.898 17.258 4.677-13.175 8.868-25.189 13.244-37.135.917-2.5 1.345-4.427-1.907-5.816zM120.02 501.976l14.492-39.942c4.797 13.664 9.331 26.583 14.384 40.102 15.054.601 29.59.602 44.127.602.185.04.37.08.822.431.227.486.185.66.143.835-11.104 7.308-22.158 14.693-33.35 21.863-2.496 1.6-2.72 3.037-1.742 5.675 4.42 11.924 8.61 23.935 13.375 37.294-9.938-6.66-18.73-12.482-27.448-18.413-10.25-6.975-10.227-7.023-20.61-.08-7.324 4.896-14.612 9.847-21.967 14.695-1.402.924-3.044 1.484-5.313 2.562l14.253-39.564c-11.91-7.952-23.748-15.858-35.972-24.157-.392-.578-.397-.764-.403-.949.195-.024.391-.048 1.338-.031 13.788.06 26.825.108 39.862.052 1.338-.005 2.673-.635 4.009-.975z"/><path fill="#F0CC25" d="M185.825 232.903l-35.857 23.792 14.588 40.904c-11.769-7.87-22.504-14.796-32.93-22.16-3.526-2.489-5.97-2.724-9.576-.138-9.063 6.499-18.451 12.546-27.753 18.708-1.406.932-3.05 1.506-5.04 2.466l14.103-39.685c-12.055-8.073-24.04-16.097-35.704-24.427 13.725-.325 27.132-.28 40.536-.457 1.587-.02 3.157-1.266 4.735-1.943l13.771-39.289c4.887 13.857 9.43 26.743 14.387 40.303 13.477.789 26.542.871 39.606 1.055 1.715.024 3.423.568 5.134.871z"/><path fill="#EFCB25" d="M161.007 367.136h12.729l-37.863 25.188 14.414 40.81c-5.724-3.8-10.567-6.996-15.391-10.22-6.084-4.065-12.335-7.913-18.158-12.324-3.315-2.51-5.581-1.99-8.703.2-9.39 6.589-19 12.864-28.54 19.238-1.187.793-2.466 1.447-4.707 2.75l14.48-40.419-38.024-25.295c5.292 0 9.048 0 13.587.33 10.87.415 20.958.521 31.045.541.707.002 1.415-.635 2.123-.976l14.687-40.879c4.801 14.305 9.226 27.486 14.29 41.144 8.716.575 16.79.76 24.864.727 3.057-.012 6.112-.528 9.167-.815z"/><path fill="#F0CC25" d="M365.029 98.024l14.522-40.467c4.88 13.806 9.473 26.8 14.532 40.426 13.232.759 25.998.85 38.762 1.056 1.716.027 3.423.626 5.134.96l-35.032 23.624 13.612 38.783-1.131.659-35.93-23.886-37.688 25.168 14.365-40.75c-11.66-7.86-23.102-15.572-34.537-23.784 12.75-.606 25.494-.677 38.236-.86 1.723-.024 3.437-.606 5.155-.93z"/><path fill="#EFCC25" d="M214.883 129.783l14.183-40.56c4.982 14.22 9.46 27.004 14.222 40.508 2.058.903 3.832 1.234 5.608 1.244 13.19.078 26.379.093 39.568.128-10.496 7.047-20.892 14.25-31.544 21.053-3.571 2.281-4.49 4.299-2.879 8.378 3.847 9.736 7.178 19.676 10.684 29.545.536 1.509.9 3.078 1.696 5.851-8.833-5.92-16.623-11.192-24.47-16.38-4.283-2.83-8.672-7.686-12.993-7.662-4.337.023-8.675 4.932-12.964 7.773-7.495 4.964-14.95 9.987-22.432 14.972-.26.174-.62.201-1.777.555.593-1.896.998-3.345 1.498-4.76 3.6-10.19 7.1-20.419 10.898-30.535 1.293-3.443.649-5.324-2.51-7.336-10.67-6.794-21.124-13.928-31.394-21.216 13.385-.303 26.505-.28 39.623-.396 1.664-.015 3.322-.757 4.983-1.162z"/><path fill="#92806B" d="M112.57 230.178c-1.221.462-2.791 1.707-4.378 1.728-13.404.178-26.81.132-40.682.16.763-.35 1.99-1.01 3.222-1.017 12.05-.078 24.1-.023 36.15-.074 1.778-.008 3.554-.378 5.688-.797zm73.58 2.555c-2.036-.133-3.744-.677-5.46-.7-13.063-.185-26.128-.267-39.427-.738 13.528-.337 27.29-.36 41.05-.227 1.392.014 2.776.975 3.838 1.665z"/><path fill="#C4A756" d="M288.784 131.022c-13.51.046-26.699.031-39.888-.047-1.776-.01-3.55-.34-5.543-.883 14.827-.293 29.87-.226 44.914-.146.31.001.66.103.906.28.098.069-.04.467-.39.796zm-74.357-1.17c-1.205.336-2.863 1.078-4.527 1.093-13.118.116-26.238.093-39.862.135.01-.347.523-1.036 1.04-1.04 14.297-.082 28.595-.095 43.349-.188z"/><path fill="#C3A657" d="M438.324 99.907c-2.056-.242-3.763-.84-5.48-.868-12.763-.205-25.53-.297-38.574-.742 13.826-.31 27.93-.332 42.033-.218.79.007 3.572-1.472 2.021 1.828z"/><path fill="#C2A657" d="M364.558 98.015c-1.247.332-2.961.914-4.684.939-12.742.182-25.486.253-38.509.661-.812-.025-1.344-.351-1.877-.677l.103-.933c14.832 0 29.664 0 44.967.01z"/><path fill="#636073" d="M119.55 501.986c-.866.33-2.201.96-3.539.965-13.037.056-26.074.008-39.572-.112 2.132-.347 4.723-.787 7.318-.804 11.774-.078 23.548-.037 35.792-.05zm73.135.514c-14.199.238-28.735.237-43.54-.106 14.222-.272 28.713-.202 43.54.106z"/><path fill="#C3A657" d="M160.542 367.077c-2.59.346-5.645.862-8.702.874-8.074.033-16.148-.152-24.537-.52 10.715-.318 21.744-.366 33.24-.354z"/><path fill="#C4A756" d="M97.53 366.976c-.24.324-.947.96-1.654.96-10.087-.02-20.174-.127-30.593-.466 10.372-.327 21.075-.402 32.247-.494z"/><path fill="#636073" d="M74.616 503.032c.2.083.206.269.281.724-.113-.028-.294-.325-.281-.724zm119.583.914c-.17-.117-.127-.291-.073-.735.192-.069.389.12.534.343.026.04-.161.219-.461.392z"/><path fill="#FFF" d="M1567 323.999c.071 23.828-2.317 46.81-9.983 68.999-5.335 15.444-12.801 29.65-23.565 42.161-14.814 17.217-33.567 27.362-55.515 31.734-9.885 1.97-19.977 3.016-30.02 4.027-7.384.743-14.85 1.135-22.264.983-9.469-.195-18.924-1.095-28.492-1.698V167.142c4.518-.38 9.03-.833 13.552-1.125 6.253-.402 12.518-1.022 18.772-.955 21.458.228 42.713 1.905 63.02 9.77 17.093 6.62 31.443 16.797 43.073 31.116 14.592 17.964 22.286 38.926 27.22 61.026 1.983 8.88 2.48 18.136 3.123 27.258.686 9.733.746 19.51 1.079 29.767zm323.03-86.093c5.009 18.291 10.025 36.155 14.96 54.042 5.107 18.514 10.124 37.053 15.203 55.575 2.642 9.632 5.332 19.252 8.096 29.225h-104.56l53.05-184.332.896-.048c4.108 15.04 8.216 30.08 12.354 45.538zM852.06 346h-7.38c-4.965-24.389 21.041-59.269 46.965-64.06 42.813-7.913 73.225 12.5 77.262 64.06H852.06z"/></svg>