<svg version="1.1" id="Layer_1" xmlns="http://www.w3.org/2000/svg" xmlns:xlink="http://www.w3.org/1999/xlink" x="0px" y="0px"
	 width="100%" viewBox="0 0 2421 743" enable-background="new 0 0 2421 743" xml:space="preserve">
<path fill="#FFFFFF" opacity="1.000000" stroke="none" 
	d="
M1.000000,78.000000 
	C1.000000,52.335087 1.000000,26.670176 1.000000,1.003948 
	C807.943054,1.002632 1614.886108,1.002632 2421.914551,1.002632 
	C2421.914551,248.592789 2421.914551,496.185608 2421.914551,743.889221 
	C1615.000000,743.889221 808.000000,743.889221 1.000003,743.888184 
	C1.000000,674.225342 1.000000,604.563599 1.383919,534.624390 
	C2.184632,537.755249 2.236527,541.256470 3.077351,544.556702 
	C8.588847,566.189575 27.799728,582.061829 50.334476,582.030457 
	C112.997955,581.943237 175.661621,582.000183 238.325226,582.000183 
	C240.101959,582.000183 241.878708,582.000244 244.000427,582.000244 
	C244.000427,579.678772 244.000427,577.879700 244.000427,576.080627 
	C244.000427,547.415344 243.999176,518.750122 244.002151,490.084839 
	C244.002487,486.756165 243.434677,483.296356 244.138504,480.120789 
	C247.811798,463.547150 254.839172,448.345428 269.102509,438.692993 
	C277.478119,433.024994 278.781677,426.713104 278.779877,417.718567 
	C278.774078,388.784546 279.209473,359.834320 280.329102,330.923431 
	C280.848083,317.522552 284.997131,304.699249 291.143738,292.619446 
	C299.416565,276.361084 311.530762,264.055328 327.740540,255.629395 
	C349.141876,244.504822 372.415985,241.435760 395.926575,240.393234 
	C409.579346,239.787827 423.330994,241.361206 437.035980,242.001099 
	C451.142883,242.659760 464.613708,246.267853 477.336487,252.105515 
	C498.631256,261.876282 515.245605,276.840637 524.428162,298.788025 
	C529.765808,311.545624 532.092712,325.198883 532.913330,338.970978 
	C533.652466,351.374023 533.835510,363.818634 533.958435,376.247925 
	C534.124878,393.078766 534.076782,409.913208 533.931274,426.744446 
	C533.903992,429.903748 534.751770,431.662292 537.581482,433.466888 
	C558.301514,446.680725 569.140747,465.693848 569.362549,490.326538 
	C569.599670,516.656433 569.416138,542.990173 569.416138,569.322205 
	C569.416138,573.102356 569.416077,576.882568 569.416077,582.296204 
	C575.758545,579.309753 581.200623,577.348267 586.012329,574.368652 
	C600.282715,565.531860 608.805725,552.418274 608.836182,535.714294 
	C609.115112,382.888977 609.009460,230.062912 608.940796,77.237091 
	C608.939270,73.846313 608.476746,70.328911 607.508728,67.085655 
	C600.491821,43.576683 581.205261,30.152969 558.492065,30.122450 
	C389.834015,29.895815 221.175293,29.916290 52.517570,30.253733 
	C44.374340,30.270023 35.572811,32.643688 28.241381,36.271191 
	C14.097760,43.269279 5.694134,55.611233 2.069630,71.028542 
	C1.533254,73.310081 1.347807,75.674126 1.000000,78.000000 
M340.227814,348.952576 
	C340.227814,373.692719 340.227814,398.432892 340.227814,423.351044 
	C384.421600,423.351044 428.006348,423.351044 471.600616,423.351044 
	C471.821777,422.685150 472.121307,422.221863 472.104950,421.770020 
	C470.982574,390.821442 475.266357,359.668793 468.995361,328.924591 
	C464.758942,308.155334 455.008026,292.809631 430.855835,288.231567 
	C419.446289,286.068878 407.500488,285.984283 395.825684,286.239441 
	C388.217102,286.405701 380.274506,287.849182 373.150665,290.511139 
	C352.290619,298.305786 338.783875,322.156738 340.170959,347.524445 
	C340.248016,347.694611 340.325104,347.864777 340.227814,348.952576 
M1304.000000,318.500000 
	C1304.000000,393.584625 1304.000000,468.669250 1304.000000,543.522888 
	C1321.340820,545.389038 1338.065918,547.526733 1354.853760,548.892456 
	C1369.160034,550.056213 1383.534912,550.759216 1397.886230,550.887878 
	C1414.469482,551.036682 1431.065796,550.497253 1447.645386,549.932922 
	C1456.336914,549.637024 1465.111206,549.277161 1473.659790,547.832458 
	C1488.336182,545.352295 1503.011230,542.573303 1517.427856,538.902649 
	C1556.376221,528.985962 1590.679443,510.966858 1617.463623,480.116577 
	C1628.765137,467.099365 1637.573242,452.560211 1644.467163,436.924591 
	C1657.815796,406.648895 1663.078979,374.454620 1664.804199,341.722076 
	C1665.613770,326.361267 1664.863159,310.855347 1663.846436,295.479553 
	C1662.910522,281.328766 1661.061890,267.204254 1658.913330,253.175705 
	C1655.638184,231.791992 1648.702881,211.428787 1638.906738,192.214050 
	C1628.922119,172.629715 1615.970337,155.256439 1599.282959,140.532150 
	C1582.865234,126.045959 1564.712402,114.550186 1544.607788,106.400787 
	C1511.087036,92.813171 1475.911255,86.800964 1439.838257,86.054367 
	C1424.182495,85.730354 1408.514404,85.999702 1392.851929,86.000244 
	C1389.519409,86.000359 1386.169312,85.780403 1382.857544,86.043297 
	C1367.155884,87.289703 1351.462158,88.635956 1335.771118,90.011040 
	C1325.233154,90.934540 1314.704834,91.965546 1304.000000,92.964516 
	C1304.000000,168.243469 1304.000000,242.871735 1304.000000,318.500000 
M2025.937622,394.632568 
	C2020.462524,377.086029 2014.987671,359.539337 2009.512207,341.992889 
	C2001.202026,315.362488 1992.906128,288.727600 1984.576782,262.103241 
	C1975.910400,234.401260 1967.229126,206.703903 1958.521851,179.014755 
	C1949.532104,150.427368 1940.503174,121.852341 1931.252319,92.513626 
	C1915.032471,91.356537 1898.530273,89.836914 1881.993530,89.132530 
	C1872.601685,88.732491 1863.143433,89.503548 1853.733276,90.056793 
	C1847.204224,90.440659 1840.689697,91.226784 1834.200806,92.077171 
	C1830.590698,92.550270 1828.145264,94.065407 1826.873291,98.272964 
	C1819.593994,122.351700 1811.866821,146.294846 1804.313110,170.290756 
	C1796.371582,195.519409 1788.475464,220.762390 1780.519775,245.986588 
	C1772.371826,271.820709 1764.155518,297.633301 1756.006592,323.467102 
	C1748.195435,348.229889 1740.467651,373.019012 1732.638062,397.775970 
	C1724.566528,423.297668 1716.397217,448.788422 1708.306763,474.304169 
	C1701.386108,496.130798 1694.507568,517.970764 1687.648438,539.816772 
	C1687.254028,541.072632 1687.203613,542.436523 1687.010376,543.643921 
	C1717.351318,548.345459 1747.005737,548.331238 1776.418213,543.600952 
	C1785.050659,513.371826 1793.668823,483.192627 1802.245972,453.157043 
	C1851.717407,453.157043 1900.680054,453.157043 1949.758423,453.157043 
	C1953.194092,465.546570 1956.593994,477.821442 1960.001953,490.094055 
	C1964.664062,506.882782 1969.297363,523.679749 1974.065186,540.438477 
	C1974.441406,541.760620 1975.644531,543.700378 1976.678711,543.848267 
	C1985.408325,545.097351 1994.179199,546.734558 2002.954956,546.841858 
	C2019.869263,547.048828 2036.801270,546.512329 2053.712158,545.901123 
	C2059.809814,545.680786 2065.867676,544.360413 2072.398926,543.480713 
	C2067.189453,526.838867 2062.091797,510.533600 2056.980957,494.232483 
	C2046.657471,461.305145 2036.326660,428.380066 2025.937622,394.632568 
M2156.353027,462.062927 
	C2143.653809,457.969696 2130.954590,453.876465 2117.566895,449.561371 
	C2114.033691,461.956940 2109.985840,474.720184 2106.811279,487.697052 
	C2103.593262,500.850464 2101.238525,514.215027 2098.375488,528.119568 
	C2110.285889,531.996826 2121.463867,535.622009 2132.633057,539.274475 
	C2156.384766,547.041504 2180.999268,549.877075 2205.748291,550.822571 
	C2228.480713,551.691040 2251.228271,551.261597 2273.819336,547.141357 
	C2292.093506,543.808289 2309.603027,538.443970 2326.187256,530.260437 
	C2344.156982,521.393066 2359.497314,509.126221 2372.146240,493.437103 
	C2388.994629,472.539185 2397.848145,448.397705 2399.727783,422.046173 
	C2400.930420,405.180664 2400.739014,388.133423 2397.121094,371.265472 
	C2391.095947,343.175171 2377.671143,320.191254 2353.573730,303.906769 
	C2332.888184,289.928009 2309.696777,281.250092 2286.760010,271.997070 
	C2268.814941,264.757660 2250.805420,257.650391 2233.089355,249.880630 
	C2223.620117,245.727600 2215.988037,238.703476 2211.255859,229.419128 
	C2205.177734,217.494171 2205.686279,204.806107 2208.979736,192.177399 
	C2211.933105,180.852798 2219.118652,173.170746 2229.476318,167.755280 
	C2241.165771,161.643417 2253.870850,160.530533 2266.423340,160.279114 
	C2279.333008,160.020523 2292.399902,161.259476 2305.189209,163.210785 
	C2317.267334,165.053543 2329.173096,168.321106 2340.964355,171.638657 
	C2348.640869,173.798431 2355.976807,177.168610 2363.364014,179.958206 
	C2373.359863,159.325714 2379.123291,137.691345 2382.958008,115.487732 
	C2384.179199,108.416565 2383.325684,107.107201 2376.551025,105.025536 
	C2370.539062,103.178169 2364.438965,101.615143 2358.433838,99.746674 
	C2327.306885,90.061630 2295.528076,84.874519 2262.865723,86.040520 
	C2251.012939,86.463638 2239.058838,86.534805 2227.362793,88.229141 
	C2212.347900,90.404228 2197.750488,94.512497 2183.655029,100.574409 
	C2164.454590,108.831894 2148.100586,120.721741 2135.487061,137.216766 
	C2118.738281,159.119644 2111.914551,184.666809 2111.155273,211.831818 
	C2110.866943,222.148026 2111.213379,232.745651 2113.295166,242.795578 
	C2115.728516,254.542328 2119.032227,266.498871 2124.348145,277.174377 
	C2134.340820,297.241791 2151.038330,311.487213 2171.117188,320.788452 
	C2192.606934,330.743103 2214.888184,338.984955 2236.801270,348.030029 
	C2251.243896,353.991516 2266.296631,358.636139 2279.162598,367.993256 
	C2287.246094,373.872192 2293.127441,381.272583 2297.252197,390.443634 
	C2301.558350,400.018127 2301.806641,410.059448 2300.700439,419.900452 
	C2299.913086,426.905487 2297.216797,434.054474 2293.867920,440.337433 
	C2287.147461,452.946594 2275.047607,459.236511 2262.209473,463.957550 
	C2251.134033,468.030365 2239.584961,469.970581 2227.756348,469.993225 
	C2216.908936,470.014008 2205.955566,470.924347 2195.241699,469.722778 
	C2182.400391,468.282623 2169.763428,465.019196 2156.353027,462.062927 
M1050.542603,331.036682 
	C1047.799805,315.031219 1043.292847,299.504547 1035.896851,285.068420 
	C1026.797241,267.307068 1014.649475,252.004700 998.484497,239.793045 
	C976.293518,223.029022 951.399109,213.857544 923.915283,212.172440 
	C907.977905,211.195251 891.993713,211.911499 876.112366,214.884689 
	C850.469727,219.685349 827.749146,230.484818 808.215393,247.484497 
	C792.660767,261.021179 780.837524,277.568756 772.088013,296.398682 
	C759.569702,323.339539 755.058655,351.915833 754.151917,381.193817 
	C753.852966,390.846130 754.692688,400.650787 756.149719,410.212402 
	C758.220459,423.801086 760.355286,437.518829 764.208130,450.670105 
	C774.215576,484.830231 794.909851,511.186401 825.858459,528.881775 
	C852.086853,543.878296 881.036316,549.655029 910.856812,550.869080 
	C932.950195,551.768616 955.003174,550.561096 976.946167,547.113647 
	C995.720825,544.164001 1014.067078,539.985779 1031.865601,533.219788 
	C1035.012695,532.023438 1035.204712,530.486572 1034.957764,528.176636 
	C1034.421387,523.157593 1033.605225,518.169128 1033.017456,513.154785 
	C1031.113525,496.910400 1025.958740,481.667755 1019.029175,466.941315 
	C1017.773926,464.273621 1016.658020,463.533722 1013.482910,464.702301 
	C992.684509,472.356995 971.095154,477.187958 949.080261,478.730225 
	C932.534119,479.889374 915.704285,480.243561 899.333252,475.959869 
	C875.549133,469.736359 856.030090,458.106201 847.827881,433.249908 
	C845.292236,425.565674 844.041016,417.457550 842.075317,409.000000 
	C845.410400,409.000000 847.225830,409.000000 849.041260,409.000000 
	C914.206604,409.000000 979.372009,409.000000 1044.537354,408.999817 
	C1045.703979,408.999817 1047.014893,409.332581 1047.999512,408.908630 
	C1049.144409,408.415588 1050.749146,407.349152 1050.867432,406.375183 
	C1051.756714,399.056061 1052.985229,391.687988 1052.869019,384.354828 
	C1052.591431,366.839050 1051.633179,349.334106 1050.542603,331.036682 
M1161.515137,547.000000 
	C1179.571045,546.282898 1197.626953,545.565735 1215.815430,544.843384 
	C1215.815430,393.489929 1215.815430,243.441849 1215.815430,93.429779 
	C1183.871582,87.054855 1141.136230,88.873840 1123.364990,93.775963 
	C1123.364990,243.867035 1123.364990,393.883209 1123.364990,544.202026 
	C1135.978394,545.151794 1148.250488,546.075928 1161.515137,547.000000 
z"/>
<path fill="#2C4375" opacity="1.000000" stroke="none" 
	d="
M1.000000,78.468658 
	C1.347807,75.674126 1.533254,73.310081 2.069630,71.028542 
	C5.694134,55.611233 14.097760,43.269279 28.241381,36.271191 
	C35.572811,32.643688 44.374340,30.270023 52.517570,30.253733 
	C221.175293,29.916290 389.834015,29.895815 558.492065,30.122450 
	C581.205261,30.152969 600.491821,43.576683 607.508728,67.085655 
	C608.476746,70.328911 608.939270,73.846313 608.940796,77.237091 
	C609.009460,230.062912 609.115112,382.888977 608.836182,535.714294 
	C608.805725,552.418274 600.282715,565.531860 586.012329,574.368652 
	C581.200623,577.348267 575.758545,579.309753 569.416077,582.296204 
	C569.416077,576.882568 569.416138,573.102356 569.416138,569.322205 
	C569.416138,542.990173 569.599670,516.656433 569.362549,490.326538 
	C569.140747,465.693848 558.301514,446.680725 537.581482,433.466888 
	C534.751770,431.662292 533.903992,429.903748 533.931274,426.744446 
	C534.076782,409.913208 534.124878,393.078766 533.958435,376.247925 
	C533.835510,363.818634 533.652466,351.374023 532.913330,338.970978 
	C532.092712,325.198883 529.765808,311.545624 524.428162,298.788025 
	C515.245605,276.840637 498.631256,261.876282 477.336487,252.105515 
	C464.613708,246.267853 451.142883,242.659760 437.035980,242.001099 
	C423.330994,241.361206 409.579346,239.787827 395.926575,240.393234 
	C372.415985,241.435760 349.141876,244.504822 327.740540,255.629395 
	C311.530762,264.055328 299.416565,276.361084 291.143738,292.619446 
	C284.997131,304.699249 280.848083,317.522552 280.329102,330.923431 
	C279.209473,359.834320 278.774078,388.784546 278.779877,417.718567 
	C278.781677,426.713104 277.478119,433.024994 269.102509,438.692993 
	C254.839172,448.345428 247.811798,463.547150 244.138504,480.120789 
	C243.434677,483.296356 244.002487,486.756165 244.002151,490.084839 
	C243.999176,518.750122 244.000427,547.415344 244.000427,576.080627 
	C244.000427,577.879700 244.000427,579.678772 244.000427,582.000244 
	C241.878708,582.000244 240.101959,582.000183 238.325226,582.000183 
	C175.661621,582.000183 112.997955,581.943237 50.334476,582.030457 
	C27.799728,582.061829 8.588847,566.189575 3.077351,544.556702 
	C2.236527,541.256470 2.184632,537.755249 1.383919,534.173462 
	C1.000000,382.312439 1.000000,230.624878 1.000000,78.468658 
M289.103424,130.941162 
	C289.133575,130.692703 289.270599,130.295044 289.172913,130.225098 
	C288.927612,130.049438 288.576660,129.947357 288.267365,129.945709 
	C273.223450,129.865540 258.179504,129.799149 243.005325,129.010880 
	C238.526443,116.226967 234.047562,103.443054 229.065720,89.223595 
	C224.027939,103.630707 219.455505,116.706978 213.970474,129.920761 
	C199.672760,129.945221 185.374969,129.958130 171.077591,130.040771 
	C170.560684,130.043762 170.047760,130.732941 170.010468,131.625351 
	C180.546875,138.629196 191.000656,145.762772 201.670532,152.557007 
	C204.829651,154.568649 205.473938,156.449600 204.180954,159.893173 
	C200.382706,170.009079 196.882782,180.237137 193.283005,190.427261 
	C192.782928,191.842819 192.378372,193.292130 191.784836,195.188278 
	C192.942856,194.834366 193.301224,194.806946 193.562042,194.633148 
	C201.043350,189.648254 208.499252,184.625076 215.993988,179.660553 
	C220.283020,176.819534 224.620972,171.911148 228.958313,171.887650 
	C233.278519,171.864227 237.668457,176.719055 241.951416,179.550522 
	C249.797623,184.737686 257.587616,190.009872 266.421356,195.930466 
	C265.624237,193.157455 265.261078,191.587616 264.725128,190.079163 
	C261.218536,180.209869 257.887939,170.269562 254.041138,160.533707 
	C252.429520,156.454849 253.348953,154.436951 256.919769,152.156403 
	C267.571808,145.353378 277.968079,138.149933 289.103424,130.941162 
M393.617737,97.352234 
	C389.024384,84.357597 384.431061,71.362961 379.551086,57.557491 
	C374.515991,71.587868 369.772461,84.805824 364.086945,98.005287 
	C349.255035,98.005287 334.423126,98.005287 319.591187,98.005287 
	C319.556824,98.316040 319.522461,98.626785 319.488098,98.937538 
	C320.020599,99.263985 320.553070,99.590439 321.631378,100.312439 
	C333.073090,108.024689 344.514832,115.736931 356.175079,123.596481 
	C351.455200,136.985931 346.795593,150.204391 341.810394,164.346542 
	C354.950867,155.571579 367.226257,147.374268 379.498444,139.179108 
	C391.639893,147.250717 403.533813,155.157776 415.427704,163.064835 
	C415.804718,162.845352 416.181732,162.625885 416.558746,162.406418 
	C412.031708,149.507523 407.504669,136.608612 402.947021,123.622505 
	C414.810425,115.622498 426.394562,107.810837 438.669373,99.814240 
	C439.875305,96.606583 437.093842,98.085678 436.302765,98.079300 
	C422.199738,97.965340 408.095581,97.987816 393.617737,97.352234 
M97.061211,366.993652 
	C86.358070,367.068329 75.654930,367.142975 64.047676,367.064301 
	C60.291859,367.064301 56.536037,367.064301 51.244186,367.064301 
	C64.699005,376.014893 76.916489,384.142334 89.268768,392.359467 
	C84.488670,405.701630 79.836197,418.687561 74.787712,432.778809 
	C77.029297,431.475494 78.307800,430.820923 79.494064,430.028320 
	C89.034203,423.653992 98.644875,417.378937 108.035423,410.790527 
	C111.156929,408.600494 113.423424,408.079712 116.737892,410.590454 
	C122.561035,415.001465 128.811737,418.849152 134.895569,422.914490 
	C139.719955,426.138245 144.562515,429.334778 150.286682,433.133850 
	C145.211151,418.763458 140.539307,405.536011 135.872910,392.324036 
	C148.444046,383.961212 160.531265,375.920319 173.735657,367.136200 
	C168.529800,367.136200 164.768585,367.136200 160.076767,367.018005 
	C149.047440,367.065338 138.018127,367.112671 126.335701,366.746368 
	C121.911575,353.565643 117.487442,340.384918 112.686096,326.080353 
	C107.503792,340.503906 102.751175,353.731567 97.061211,366.993652 
M140.672501,230.302780 
	C136.128616,217.417084 131.584732,204.531387 126.698257,190.674164 
	C121.832497,204.555466 117.379570,217.259048 112.213417,230.394180 
	C110.436256,230.596664 108.659821,230.966873 106.881821,230.974518 
	C94.831924,231.026352 82.781494,230.970703 70.731880,231.048553 
	C69.500458,231.056503 68.273239,231.716736 67.336281,232.667633 
	C79.320465,240.692535 91.304657,248.717438 103.360222,256.790131 
	C98.630745,270.098541 94.087715,282.882324 89.257286,296.474792 
	C91.247757,295.514862 92.890541,294.940613 94.296707,294.009125 
	C103.598846,287.847321 112.987076,281.799683 122.050400,275.300873 
	C125.656136,272.715393 128.100128,272.950348 131.625153,275.439545 
	C142.052246,282.802612 152.787201,289.729736 164.556320,297.599396 
	C159.402954,283.149414 154.695389,269.949463 149.968445,256.695190 
	C162.003601,248.709503 173.914474,240.806244 186.476517,232.563828 
	C185.088654,232.042572 183.705032,231.081635 182.312256,231.068130 
	C168.552170,230.934738 154.790558,230.958450 140.672501,230.302780 
M192.347946,502.261536 
	C177.857666,502.191589 163.367401,502.121613 148.378067,501.535370 
	C143.843292,488.616913 139.308517,475.698486 134.511719,462.033539 
	C129.492157,475.868408 124.755981,488.922180 119.078987,501.995636 
	C107.304932,501.997681 95.530586,501.956848 83.757034,502.035187 
	C81.162430,502.052429 78.570641,502.492340 75.397942,502.857391 
	C75.202148,502.881622 75.006348,502.905853 74.420929,503.134094 
	C74.602631,503.431183 74.784340,503.728241 75.598595,504.272308 
	C87.437592,512.178101 99.276596,520.083862 111.185738,528.036499 
	C106.437828,541.216064 101.867195,553.903503 96.933113,567.599854 
	C99.202026,566.521729 100.844086,565.962402 102.245735,565.038452 
	C109.601135,560.189880 116.889290,555.239380 124.212906,550.342407 
	C134.596069,543.399780 134.572433,543.447937 144.823425,550.422791 
	C153.540619,556.354126 162.332657,562.175476 172.270813,568.835754 
	C167.506104,555.476746 163.316452,543.466492 158.896255,531.541687 
	C157.918640,528.904236 158.141785,527.467163 160.638763,525.867371 
	C171.830429,518.696960 182.884430,511.311646 194.409683,503.887085 
	C194.498703,503.772552 194.686203,503.593506 194.660477,503.554199 
	C194.514603,503.331573 194.317688,503.142426 193.577271,502.857849 
	C193.392487,502.817932 193.207703,502.777985 192.347946,502.261536 
M506.156860,152.320145 
	C509.098175,153.522812 508.669678,155.449295 507.753448,157.950119 
	C503.376831,169.896088 499.186371,181.910263 494.509094,195.085022 
	C503.872040,188.838348 512.113037,183.293121 520.406433,177.827484 
	C524.404907,175.192276 528.531128,170.667038 532.546753,170.723831 
	C536.613647,170.781326 540.626343,175.420822 544.643433,178.082687 
	C552.579834,183.341644 560.502869,188.620850 569.514648,194.611847 
	C568.736206,191.714676 568.421204,190.116257 567.880188,188.598343 
	C564.421509,178.893738 561.126404,169.121918 557.318909,159.554718 
	C555.731445,155.565842 556.326416,153.500259 560.017822,151.168182 
	C570.913513,144.284836 581.528137,136.956604 593.462036,128.995682 
	C579.449097,128.995682 566.858521,128.601059 554.311218,129.166702 
	C548.284180,129.438400 545.655273,127.672012 543.947510,121.849495 
	C540.725159,110.863045 536.541443,100.158562 532.346741,88.162613 
	C527.263916,102.542892 522.623596,115.671371 517.857666,129.155304 
	C502.676605,129.155304 487.652893,129.155304 471.311615,129.155304 
	C483.473846,137.255569 494.504364,144.602081 506.156860,152.320145 
z"/>
<path fill="#38373A" opacity="1.000000" stroke="none" 
	d="
M1304.000000,318.000000 
	C1304.000000,242.871735 1304.000000,168.243469 1304.000000,92.964516 
	C1314.704834,91.965546 1325.233154,90.934540 1335.771118,90.011040 
	C1351.462158,88.635956 1367.155884,87.289703 1382.857544,86.043297 
	C1386.169312,85.780403 1389.519409,86.000359 1392.851929,86.000244 
	C1408.514404,85.999702 1424.182495,85.730354 1439.838257,86.054367 
	C1475.911255,86.800964 1511.087036,92.813171 1544.607788,106.400787 
	C1564.712402,114.550186 1582.865234,126.045959 1599.282959,140.532150 
	C1615.970337,155.256439 1628.922119,172.629715 1638.906738,192.214050 
	C1648.702881,211.428787 1655.638184,231.791992 1658.913330,253.175705 
	C1661.061890,267.204254 1662.910522,281.328766 1663.846436,295.479553 
	C1664.863159,310.855347 1665.613770,326.361267 1664.804199,341.722076 
	C1663.078979,374.454620 1657.815796,406.648895 1644.467163,436.924591 
	C1637.573242,452.560211 1628.765137,467.099365 1617.463623,480.116577 
	C1590.679443,510.966858 1556.376221,528.985962 1517.427856,538.902649 
	C1503.011230,542.573303 1488.336182,545.352295 1473.659790,547.832458 
	C1465.111206,549.277161 1456.336914,549.637024 1447.645386,549.932922 
	C1431.065796,550.497253 1414.469482,551.036682 1397.886230,550.887878 
	C1383.534912,550.759216 1369.160034,550.056213 1354.853760,548.892456 
	C1338.065918,547.526733 1321.340820,545.389038 1304.000000,543.522888 
	C1304.000000,468.669250 1304.000000,393.584625 1304.000000,318.000000 
M1567.000000,323.499115 
	C1566.666748,313.741638 1566.606934,303.964905 1565.920776,294.232300 
	C1565.277710,285.110077 1564.780640,275.854065 1562.798218,266.974152 
	C1557.864380,244.873642 1550.170288,223.912262 1535.578125,205.947617 
	C1523.947754,191.629364 1509.598389,181.452225 1492.504272,174.831406 
	C1472.198486,166.966629 1450.943237,165.290314 1429.485352,165.061615 
	C1423.231445,164.994949 1416.966309,165.614700 1410.712524,166.017426 
	C1406.190552,166.308640 1401.678955,166.761169 1397.161011,167.141891 
	C1397.161011,268.267517 1397.161011,368.883759 1397.161011,470.204834 
	C1406.729370,470.807739 1416.184082,471.707977 1425.653320,471.902740 
	C1433.067871,472.055237 1440.533325,471.662994 1447.916626,470.920044 
	C1457.960205,469.909332 1468.052246,468.862213 1477.936646,466.893066 
	C1499.885376,462.520508 1518.638428,452.375610 1533.452026,435.158966 
	C1544.215942,422.648834 1551.681641,408.442291 1557.017334,392.997986 
	C1564.683472,370.808258 1567.071411,347.827209 1567.000000,323.499115 
z"/>
<path fill="#38373A" opacity="1.000000" stroke="none" 
	d="
M2025.968140,395.043335 
	C2036.326660,428.380066 2046.657471,461.305145 2056.980957,494.232483 
	C2062.091797,510.533600 2067.189453,526.838867 2072.398926,543.480713 
	C2065.867676,544.360413 2059.809814,545.680786 2053.712158,545.901123 
	C2036.801270,546.512329 2019.869263,547.048828 2002.954956,546.841858 
	C1994.179199,546.734558 1985.408325,545.097351 1976.678711,543.848267 
	C1975.644531,543.700378 1974.441406,541.760620 1974.065186,540.438477 
	C1969.297363,523.679749 1964.664062,506.882782 1960.001953,490.094055 
	C1956.593994,477.821442 1953.194092,465.546570 1949.758423,453.157043 
	C1900.680054,453.157043 1851.717407,453.157043 1802.245972,453.157043 
	C1793.668823,483.192627 1785.050659,513.371826 1776.418213,543.600952 
	C1747.005737,548.331238 1717.351318,548.345459 1687.010376,543.643921 
	C1687.203613,542.436523 1687.254028,541.072632 1687.648438,539.816772 
	C1694.507568,517.970764 1701.386108,496.130798 1708.306763,474.304169 
	C1716.397217,448.788422 1724.566528,423.297668 1732.638062,397.775970 
	C1740.467651,373.019012 1748.195435,348.229889 1756.006592,323.467102 
	C1764.155518,297.633301 1772.371826,271.820709 1780.519775,245.986588 
	C1788.475464,220.762390 1796.371582,195.519409 1804.313110,170.290756 
	C1811.866821,146.294846 1819.593994,122.351700 1826.873291,98.272964 
	C1828.145264,94.065407 1830.590698,92.550270 1834.200806,92.077171 
	C1840.689697,91.226784 1847.204224,90.440659 1853.733276,90.056793 
	C1863.143433,89.503548 1872.601685,88.732491 1881.993530,89.132530 
	C1898.530273,89.836914 1915.032471,91.356537 1931.252319,92.513626 
	C1940.503174,121.852341 1949.532104,150.427368 1958.521851,179.014755 
	C1967.229126,206.703903 1975.910400,234.401260 1984.576782,262.103241 
	C1992.906128,288.727600 2001.202026,315.362488 2009.512207,341.992889 
	C2014.987671,359.539337 2020.462524,377.086029 2025.968140,395.043335 
M1889.999634,237.487930 
	C1885.891479,222.447891 1881.783447,207.407852 1877.675293,192.367813 
	C1877.376465,192.383881 1877.077759,192.399948 1876.778931,192.416031 
	C1859.129150,253.742813 1841.479370,315.069611 1823.728394,376.747650 
	C1858.728394,376.747650 1893.280029,376.747650 1928.288818,376.747650 
	C1925.524536,366.775055 1922.834595,357.155487 1920.193115,347.522644 
	C1915.114014,329.000793 1910.096924,310.461853 1904.989380,291.947937 
	C1900.054932,274.061371 1895.038818,256.197357 1889.999634,237.487930 
z"/>
<path fill="#38373A" opacity="1.000000" stroke="none" 
	d="
M2156.695557,462.304138 
	C2169.763428,465.019196 2182.400391,468.282623 2195.241699,469.722778 
	C2205.955566,470.924347 2216.908936,470.014008 2227.756348,469.993225 
	C2239.584961,469.970581 2251.134033,468.030365 2262.209473,463.957550 
	C2275.047607,459.236511 2287.147461,452.946594 2293.867920,440.337433 
	C2297.216797,434.054474 2299.913086,426.905487 2300.700439,419.900452 
	C2301.806641,410.059448 2301.558350,400.018127 2297.252197,390.443634 
	C2293.127441,381.272583 2287.246094,373.872192 2279.162598,367.993256 
	C2266.296631,358.636139 2251.243896,353.991516 2236.801270,348.030029 
	C2214.888184,338.984955 2192.606934,330.743103 2171.117188,320.788452 
	C2151.038330,311.487213 2134.340820,297.241791 2124.348145,277.174377 
	C2119.032227,266.498871 2115.728516,254.542328 2113.295166,242.795578 
	C2111.213379,232.745651 2110.866943,222.148026 2111.155273,211.831818 
	C2111.914551,184.666809 2118.738281,159.119644 2135.487061,137.216766 
	C2148.100586,120.721741 2164.454590,108.831894 2183.655029,100.574409 
	C2197.750488,94.512497 2212.347900,90.404228 2227.362793,88.229141 
	C2239.058838,86.534805 2251.012939,86.463638 2262.865723,86.040520 
	C2295.528076,84.874519 2327.306885,90.061630 2358.433838,99.746674 
	C2364.438965,101.615143 2370.539062,103.178169 2376.551025,105.025536 
	C2383.325684,107.107201 2384.179199,108.416565 2382.958008,115.487732 
	C2379.123291,137.691345 2373.359863,159.325714 2363.364014,179.958206 
	C2355.976807,177.168610 2348.640869,173.798431 2340.964355,171.638657 
	C2329.173096,168.321106 2317.267334,165.053543 2305.189209,163.210785 
	C2292.399902,161.259476 2279.333008,160.020523 2266.423340,160.279114 
	C2253.870850,160.530533 2241.165771,161.643417 2229.476318,167.755280 
	C2219.118652,173.170746 2211.933105,180.852798 2208.979736,192.177399 
	C2205.686279,204.806107 2205.177734,217.494171 2211.255859,229.419128 
	C2215.988037,238.703476 2223.620117,245.727600 2233.089355,249.880630 
	C2250.805420,257.650391 2268.814941,264.757660 2286.760010,271.997070 
	C2309.696777,281.250092 2332.888184,289.928009 2353.573730,303.906769 
	C2377.671143,320.191254 2391.095947,343.175171 2397.121094,371.265472 
	C2400.739014,388.133423 2400.930420,405.180664 2399.727783,422.046173 
	C2397.848145,448.397705 2388.994629,472.539185 2372.146240,493.437103 
	C2359.497314,509.126221 2344.156982,521.393066 2326.187256,530.260437 
	C2309.603027,538.443970 2292.093506,543.808289 2273.819336,547.141357 
	C2251.228271,551.261597 2228.480713,551.691040 2205.748291,550.822571 
	C2180.999268,549.877075 2156.384766,547.041504 2132.633057,539.274475 
	C2121.463867,535.622009 2110.285889,531.996826 2098.375488,528.119568 
	C2101.238525,514.215027 2103.593262,500.850464 2106.811279,487.697052 
	C2109.985840,474.720184 2114.033691,461.956940 2117.566895,449.561371 
	C2130.954590,453.876465 2143.653809,457.969696 2156.695557,462.304138 
z"/>
<path fill="#38373A" opacity="1.000000" stroke="none" 
	d="
M1050.746216,331.430725 
	C1051.633179,349.334106 1052.591431,366.839050 1052.869019,384.354828 
	C1052.985229,391.687988 1051.756714,399.056061 1050.867432,406.375183 
	C1050.749146,407.349152 1049.144409,408.415588 1047.999512,408.908630 
	C1047.014893,409.332581 1045.703979,408.999817 1044.537354,408.999817 
	C979.372009,409.000000 914.206604,409.000000 849.041260,409.000000 
	C847.225830,409.000000 845.410400,409.000000 842.075317,409.000000 
	C844.041016,417.457550 845.292236,425.565674 847.827881,433.249908 
	C856.030090,458.106201 875.549133,469.736359 899.333252,475.959869 
	C915.704285,480.243561 932.534119,479.889374 949.080261,478.730225 
	C971.095154,477.187958 992.684509,472.356995 1013.482910,464.702301 
	C1016.658020,463.533722 1017.773926,464.273621 1019.029175,466.941315 
	C1025.958740,481.667755 1031.113525,496.910400 1033.017456,513.154785 
	C1033.605225,518.169128 1034.421387,523.157593 1034.957764,528.176636 
	C1035.204712,530.486572 1035.012695,532.023438 1031.865601,533.219788 
	C1014.067078,539.985779 995.720825,544.164001 976.946167,547.113647 
	C955.003174,550.561096 932.950195,551.768616 910.856812,550.869080 
	C881.036316,549.655029 852.086853,543.878296 825.858459,528.881775 
	C794.909851,511.186401 774.215576,484.830231 764.208130,450.670105 
	C760.355286,437.518829 758.220459,423.801086 756.149719,410.212402 
	C754.692688,400.650787 753.852966,390.846130 754.151917,381.193817 
	C755.058655,351.915833 759.569702,323.339539 772.088013,296.398682 
	C780.837524,277.568756 792.660767,261.021179 808.215393,247.484497 
	C827.749146,230.484818 850.469727,219.685349 876.112366,214.884689 
	C891.993713,211.911499 907.977905,211.195251 923.915283,212.172440 
	C951.399109,213.857544 976.293518,223.029022 998.484497,239.793045 
	C1014.649475,252.004700 1026.797241,267.307068 1035.896851,285.068420 
	C1043.292847,299.504547 1047.799805,315.031219 1050.746216,331.430725 
M852.550903,346.000000 
	C891.323914,346.000000 930.096924,346.000000 968.906921,346.000000 
	C964.870239,294.440918 934.457886,274.026550 891.644897,281.939606 
	C865.721191,286.731018 839.715088,321.610962 844.679565,346.000000 
	C846.943420,346.000000 849.257141,346.000000 852.550903,346.000000 
z"/>
<path fill="#38373A" opacity="1.000000" stroke="none" 
	d="
M1161.018799,547.000000 
	C1148.250488,546.075928 1135.978394,545.151794 1123.364990,544.202026 
	C1123.364990,393.883209 1123.364990,243.867035 1123.364990,93.775963 
	C1141.136230,88.873840 1183.871582,87.054855 1215.815430,93.429779 
	C1215.815430,243.441849 1215.815430,393.489929 1215.815430,544.843384 
	C1197.626953,545.565735 1179.571045,546.282898 1161.018799,547.000000 
z"/>
<path fill="#2C4375" opacity="1.000000" stroke="none" 
	d="
M340.202576,346.964935 
	C338.783875,322.156738 352.290619,298.305786 373.150665,290.511139 
	C380.274506,287.849182 388.217102,286.405701 395.825684,286.239441 
	C407.500488,285.984283 419.446289,286.068878 430.855835,288.231567 
	C455.008026,292.809631 464.758942,308.155334 468.995361,328.924591 
	C475.266357,359.668793 470.982574,390.821442 472.104950,421.770020 
	C472.121307,422.221863 471.821777,422.685150 471.600616,423.351044 
	C428.006348,423.351044 384.421600,423.351044 340.227814,423.351044 
	C340.227814,398.432892 340.227814,373.692719 340.464600,348.379150 
	C340.535095,347.525452 340.368835,347.245209 340.202576,346.964935 
z"/>
<path fill="#656991" opacity="1.000000" stroke="none" 
	d="
M340.186768,347.244690 
	C340.368835,347.245209 340.535095,347.525452 340.551758,347.920349 
	C340.325104,347.864777 340.248016,347.694611 340.186768,347.244690 
z"/>
<path fill="#EFCC25" opacity="1.000000" stroke="none" 
	d="
M505.845886,152.134369 
	C494.504364,144.602081 483.473846,137.255569 471.311615,129.155304 
	C487.652893,129.155304 502.676605,129.155304 517.857666,129.155304 
	C522.623596,115.671371 527.263916,102.542892 532.346741,88.162613 
	C536.541443,100.158562 540.725159,110.863045 543.947510,121.849495 
	C545.655273,127.672012 548.284180,129.438400 554.311218,129.166702 
	C566.858521,128.601059 579.449097,128.995682 593.462036,128.995682 
	C581.528137,136.956604 570.913513,144.284836 560.017822,151.168182 
	C556.326416,153.500259 555.731445,155.565842 557.318909,159.554718 
	C561.126404,169.121918 564.421509,178.893738 567.880188,188.598343 
	C568.421204,190.116257 568.736206,191.714676 569.514648,194.611847 
	C560.502869,188.620850 552.579834,183.341644 544.643433,178.082687 
	C540.626343,175.420822 536.613647,170.781326 532.546753,170.723831 
	C528.531128,170.667038 524.404907,175.192276 520.406433,177.827484 
	C512.113037,183.293121 503.872040,188.838348 494.509094,195.085022 
	C499.186371,181.910263 503.376831,169.896088 507.753448,157.950119 
	C508.669678,155.449295 509.098175,153.522812 505.845886,152.134369 
z"/>
<path fill="#EFCC25" opacity="1.000000" stroke="none" 
	d="
M120.019806,501.975983 
	C124.755981,488.922180 129.492157,475.868408 134.511719,462.033539 
	C139.308517,475.698486 143.843292,488.616913 148.895630,502.136230 
	C163.949783,502.737396 178.486343,502.737701 193.022919,502.738007 
	C193.207703,502.777985 193.392487,502.817932 193.845261,503.168976 
	C194.071564,503.654724 194.029861,503.829346 193.988129,504.003967 
	C182.884430,511.311646 171.830429,518.696960 160.638763,525.867371 
	C158.141785,527.467163 157.918640,528.904236 158.896255,531.541687 
	C163.316452,543.466492 167.506104,555.476746 172.270813,568.835754 
	C162.332657,562.175476 153.540619,556.354126 144.823425,550.422791 
	C134.572433,543.447937 134.596069,543.399780 124.212906,550.342407 
	C116.889290,555.239380 109.601135,560.189880 102.245735,565.038452 
	C100.844086,565.962402 99.202026,566.521729 96.933113,567.599854 
	C101.867195,553.903503 106.437828,541.216064 111.185738,528.036499 
	C99.276596,520.083862 87.437592,512.178101 75.213509,503.879211 
	C74.822464,503.300812 74.816513,503.115479 74.810555,502.930115 
	C75.006348,502.905853 75.202148,502.881622 76.148865,502.898651 
	C89.936974,502.958710 102.974297,503.007172 116.011162,502.951385 
	C117.348740,502.945679 118.683655,502.316101 120.019806,501.975983 
z"/>
<path fill="#F0CC25" opacity="1.000000" stroke="none" 
	d="
M185.825348,232.902985 
	C173.914474,240.806244 162.003601,248.709503 149.968445,256.695190 
	C154.695389,269.949463 159.402954,283.149414 164.556320,297.599396 
	C152.787201,289.729736 142.052246,282.802612 131.625153,275.439545 
	C128.100128,272.950348 125.656136,272.715393 122.050400,275.300873 
	C112.987076,281.799683 103.598846,287.847321 94.296707,294.009125 
	C92.890541,294.940613 91.247757,295.514862 89.257286,296.474792 
	C94.087715,282.882324 98.630745,270.098541 103.360222,256.790131 
	C91.304657,248.717438 79.320465,240.692535 67.655869,232.363373 
	C81.381416,232.037918 94.788277,232.083862 108.192162,231.906265 
	C109.778618,231.885239 111.348862,230.640244 112.926628,229.962616 
	C117.379570,217.259048 121.832497,204.555466 126.698257,190.674164 
	C131.584732,204.531387 136.128616,217.417084 141.084747,230.977264 
	C154.561707,231.765762 167.626877,231.848190 180.690613,232.032104 
	C182.405930,232.056259 184.113953,232.599930 185.825348,232.902985 
z"/>
<path fill="#EFCB25" opacity="1.000000" stroke="none" 
	d="
M161.007370,367.136200 
	C164.768585,367.136200 168.529800,367.136200 173.735657,367.136200 
	C160.531265,375.920319 148.444046,383.961212 135.872910,392.324036 
	C140.539307,405.536011 145.211151,418.763458 150.286682,433.133850 
	C144.562515,429.334778 139.719955,426.138245 134.895569,422.914490 
	C128.811737,418.849152 122.561035,415.001465 116.737892,410.590454 
	C113.423424,408.079712 111.156929,408.600494 108.035423,410.790527 
	C98.644875,417.378937 89.034203,423.653992 79.494064,430.028320 
	C78.307800,430.820923 77.029297,431.475494 74.787712,432.778809 
	C79.836197,418.687561 84.488670,405.701630 89.268768,392.359467 
	C76.916489,384.142334 64.699005,376.014893 51.244186,367.064301 
	C56.536037,367.064301 60.291859,367.064301 64.831207,367.393738 
	C75.701706,367.808777 85.788635,367.915222 95.875740,367.935394 
	C96.582695,367.936798 97.290932,367.299530 97.998558,366.959229 
	C102.751175,353.731567 107.503792,340.503906 112.686096,326.080353 
	C117.487442,340.384918 121.911575,353.565643 126.976776,367.223633 
	C135.691833,367.799194 143.766174,367.984436 151.839630,367.951355 
	C154.896606,367.938843 157.951523,367.422760 161.007370,367.136200 
z"/>
<path fill="#F0CC25" opacity="1.000000" stroke="none" 
	d="
M365.028931,98.023773 
	C369.772461,84.805824 374.515991,71.587868 379.551086,57.557491 
	C384.431061,71.362961 389.024384,84.357597 394.083496,97.983093 
	C407.314606,98.741508 420.080536,98.833527 432.844604,99.038811 
	C434.560638,99.066399 436.267548,99.665001 437.978668,99.999176 
	C426.394562,107.810837 414.810425,115.622498 402.947021,123.622505 
	C407.504669,136.608612 412.031708,149.507523 416.558746,162.406418 
	C416.181732,162.625885 415.804718,162.845352 415.427704,163.064835 
	C403.533813,155.157776 391.639893,147.250717 379.498444,139.179108 
	C367.226257,147.374268 354.950867,155.571579 341.810394,164.346542 
	C346.795593,150.204391 351.455200,136.985931 356.175079,123.596481 
	C344.514832,115.736931 333.073090,108.024689 321.637878,99.812943 
	C334.387970,99.207230 347.131989,99.135864 359.874481,98.953621 
	C361.596710,98.928993 363.311005,98.347443 365.028931,98.023773 
z"/>
<path fill="#EFCC25" opacity="1.000000" stroke="none" 
	d="
M214.883087,129.783249 
	C219.455505,116.706978 224.027939,103.630707 229.065720,89.223595 
	C234.047562,103.443054 238.526443,116.226967 243.287994,129.731461 
	C245.345856,130.634262 247.120163,130.964523 248.896362,130.975052 
	C262.085449,131.053360 275.274933,131.068161 288.464264,131.102905 
	C277.968079,138.149933 267.571808,145.353378 256.919769,152.156403 
	C253.348953,154.436951 252.429520,156.454849 254.041138,160.533707 
	C257.887939,170.269562 261.218536,180.209869 264.725128,190.079163 
	C265.261078,191.587616 265.624237,193.157455 266.421356,195.930466 
	C257.587616,190.009872 249.797623,184.737686 241.951416,179.550522 
	C237.668457,176.719055 233.278519,171.864227 228.958313,171.887650 
	C224.620972,171.911148 220.283020,176.819534 215.993988,179.660553 
	C208.499252,184.625076 201.043350,189.648254 193.562042,194.633148 
	C193.301224,194.806946 192.942856,194.834366 191.784836,195.188278 
	C192.378372,193.292130 192.782928,191.842819 193.283005,190.427261 
	C196.882782,180.237137 200.382706,170.009079 204.180954,159.893173 
	C205.473938,156.449600 204.829651,154.568649 201.670532,152.557007 
	C191.000656,145.762772 180.546875,138.629196 170.277008,131.341339 
	C183.662354,131.037552 196.781570,131.060532 209.899536,130.944626 
	C211.564011,130.929932 213.222046,130.188156 214.883087,129.783249 
z"/>
<path fill="#92806B" opacity="1.000000" stroke="none" 
	d="
M112.570023,230.178406 
	C111.348862,230.640244 109.778618,231.885239 108.192162,231.906265 
	C94.788277,232.083862 81.381416,232.037918 67.509766,232.066711 
	C68.273239,231.716736 69.500458,231.056503 70.731880,231.048553 
	C82.781494,230.970703 94.831924,231.026352 106.881821,230.974518 
	C108.659821,230.966873 110.436256,230.596664 112.570023,230.178406 
z"/>
<path fill="#92806B" opacity="1.000000" stroke="none" 
	d="
M186.150940,232.733398 
	C184.113953,232.599930 182.405930,232.056259 180.690613,232.032104 
	C167.626877,231.848190 154.561707,231.765762 141.263184,231.294693 
	C154.790558,230.958450 168.552170,230.934738 182.312256,231.068130 
	C183.705032,231.081635 185.088654,232.042572 186.150940,232.733398 
z"/>
<path fill="#C4A756" opacity="1.000000" stroke="none" 
	d="
M288.783844,131.022034 
	C275.274933,131.068161 262.085449,131.053360 248.896362,130.975052 
	C247.120163,130.964523 245.345856,130.634262 243.353119,130.091629 
	C258.179504,129.799149 273.223450,129.865540 288.267365,129.945709 
	C288.576660,129.947357 288.927612,130.049438 289.172913,130.225098 
	C289.270599,130.295044 289.133575,130.692703 288.783844,131.022034 
z"/>
<path fill="#C4A756" opacity="1.000000" stroke="none" 
	d="
M214.426773,129.852005 
	C213.222046,130.188156 211.564011,130.929932 209.899536,130.944626 
	C196.781570,131.060532 183.662354,131.037552 170.038254,131.079834 
	C170.047760,130.732941 170.560684,130.043762 171.077591,130.040771 
	C185.374969,129.958130 199.672760,129.945221 214.426773,129.852005 
z"/>
<path fill="#C3A657" opacity="1.000000" stroke="none" 
	d="
M438.324036,99.906708 
	C436.267548,99.665001 434.560638,99.066399 432.844604,99.038811 
	C420.080536,98.833527 407.314606,98.741508 394.270477,98.297440 
	C408.095581,97.987816 422.199738,97.965340 436.302765,98.079300 
	C437.093842,98.085678 439.875305,96.606583 438.324036,99.906708 
z"/>
<path fill="#C2A657" opacity="1.000000" stroke="none" 
	d="
M364.557953,98.014526 
	C363.311005,98.347443 361.596710,98.928993 359.874481,98.953621 
	C347.131989,99.135864 334.387970,99.207230 321.364990,99.615166 
	C320.553070,99.590439 320.020599,99.263985 319.488098,98.937538 
	C319.522461,98.626785 319.556824,98.316040 319.591187,98.005287 
	C334.423126,98.005287 349.255035,98.005287 364.557953,98.014526 
z"/>
<path fill="#636073" opacity="1.000000" stroke="none" 
	d="
M119.549393,501.985809 
	C118.683655,502.316101 117.348740,502.945679 116.011162,502.951385 
	C102.974297,503.007172 89.936974,502.958710 76.438675,502.838745 
	C78.570641,502.492340 81.162430,502.052429 83.757034,502.035187 
	C95.530586,501.956848 107.304932,501.997681 119.549393,501.985809 
z"/>
<path fill="#636073" opacity="1.000000" stroke="none" 
	d="
M192.685425,502.499756 
	C178.486343,502.737701 163.949783,502.737396 149.145172,502.394348 
	C163.367401,502.121613 177.857666,502.191589 192.685425,502.499756 
z"/>
<path fill="#C3A657" opacity="1.000000" stroke="none" 
	d="
M160.542068,367.077087 
	C157.951523,367.422760 154.896606,367.938843 151.839630,367.951355 
	C143.766174,367.984436 135.691833,367.799194 127.303322,367.430420 
	C138.018127,367.112671 149.047440,367.065338 160.542068,367.077087 
z"/>
<path fill="#C4A756" opacity="1.000000" stroke="none" 
	d="
M97.529892,366.976440 
	C97.290932,367.299530 96.582695,367.936798 95.875740,367.935394 
	C85.788635,367.915222 75.701706,367.808777 65.283264,367.470398 
	C75.654930,367.142975 86.358070,367.068329 97.529892,366.976440 
z"/>
<path fill="#636073" opacity="1.000000" stroke="none" 
	d="
M74.615738,503.032104 
	C74.816513,503.115479 74.822464,503.300812 74.897232,503.755707 
	C74.784340,503.728241 74.602631,503.431183 74.615738,503.032104 
z"/>
<path fill="#636073" opacity="1.000000" stroke="none" 
	d="
M194.198914,503.945526 
	C194.029861,503.829346 194.071564,503.654724 194.125702,503.210999 
	C194.317688,503.142426 194.514603,503.331573 194.660477,503.554199 
	C194.686203,503.593506 194.498703,503.772552 194.198914,503.945526 
z"/>
<path fill="#FFFFFF" opacity="1.000000" stroke="none" 
	d="
M1567.000000,323.998779 
	C1567.071411,347.827209 1564.683472,370.808258 1557.017334,392.997986 
	C1551.681641,408.442291 1544.215942,422.648834 1533.452026,435.158966 
	C1518.638428,452.375610 1499.885376,462.520508 1477.936646,466.893066 
	C1468.052246,468.862213 1457.960205,469.909332 1447.916626,470.920044 
	C1440.533325,471.662994 1433.067871,472.055237 1425.653320,471.902740 
	C1416.184082,471.707977 1406.729370,470.807739 1397.161011,470.204834 
	C1397.161011,368.883759 1397.161011,268.267517 1397.161011,167.141891 
	C1401.678955,166.761169 1406.190552,166.308640 1410.712524,166.017426 
	C1416.966309,165.614700 1423.231445,164.994949 1429.485352,165.061615 
	C1450.943237,165.290314 1472.198486,166.966629 1492.504272,174.831406 
	C1509.598389,181.452225 1523.947754,191.629364 1535.578125,205.947617 
	C1550.170288,223.912262 1557.864380,244.873642 1562.798218,266.974152 
	C1564.780640,275.854065 1565.277710,285.110077 1565.920776,294.232300 
	C1566.606934,303.964905 1566.666748,313.741638 1567.000000,323.998779 
z"/>
<path fill="#FFFFFF" opacity="1.000000" stroke="none" 
	d="
M1890.029053,237.905685 
	C1895.038818,256.197357 1900.054932,274.061371 1904.989380,291.947937 
	C1910.096924,310.461853 1915.114014,329.000793 1920.193115,347.522644 
	C1922.834595,357.155487 1925.524536,366.775055 1928.288818,376.747650 
	C1893.280029,376.747650 1858.728394,376.747650 1823.728394,376.747650 
	C1841.479370,315.069611 1859.129150,253.742813 1876.778931,192.416031 
	C1877.077759,192.399948 1877.376465,192.383881 1877.675293,192.367813 
	C1881.783447,207.407852 1885.891479,222.447891 1890.029053,237.905685 
z"/>
<path fill="#FFFFFF" opacity="1.000000" stroke="none" 
	d="
M852.060852,346.000000 
	C849.257141,346.000000 846.943420,346.000000 844.679565,346.000000 
	C839.715088,321.610962 865.721191,286.731018 891.644897,281.939606 
	C934.457886,274.026550 964.870239,294.440918 968.906921,346.000000 
	C930.096924,346.000000 891.323914,346.000000 852.060852,346.000000 
z"/>
</svg>